<?xml version="1.0" encoding="UTF-8" standalone="no"?>
<!-- Generator: Adobe Illustrator 22.1.0, SVG Export Plug-In . SVG Version: 6.00 Build 0)  -->

<svg
   xmlns:dc="http://purl.org/dc/elements/1.1/"
   xmlns:cc="http://creativecommons.org/ns#"
   xmlns:rdf="http://www.w3.org/1999/02/22-rdf-syntax-ns#"
   xmlns:svg="http://www.w3.org/2000/svg"
   xmlns="http://www.w3.org/2000/svg"
   xmlns:sodipodi="http://sodipodi.sourceforge.net/DTD/sodipodi-0.dtd"
   xmlns:inkscape="http://www.inkscape.org/namespaces/inkscape"
   version="1.1"
   id="Layer_1"
   x="0px"
   y="0px"
   viewBox="0 0 271.617 251.229"
   xml:space="preserve"
   inkscape:version="0.91 r13725"
   sodipodi:docname="rest_likes.svg"
   width="271.617"
   height="251.229"><metadata
     id="metadata571"><rdf:RDF><cc:Work
         rdf:about=""><dc:format>image/svg+xml</dc:format><dc:type
           rdf:resource="http://purl.org/dc/dcmitype/StillImage" /><dc:title></dc:title></cc:Work></rdf:RDF></metadata><defs
     id="defs569" /><sodipodi:namedview
     pagecolor="#ffffff"
     bordercolor="#666666"
     borderopacity="1"
     objecttolerance="10"
     gridtolerance="10"
     guidetolerance="10"
     inkscape:pageopacity="0"
     inkscape:pageshadow="2"
     inkscape:window-width="698"
     inkscape:window-height="480"
     id="namedview567"
     showgrid="false"
     fit-margin-top="0"
     fit-margin-left="0"
     fit-margin-right="0"
     fit-margin-bottom="0"
     inkscape:zoom="0.21742313"
     inkscape:cx="136.69501"
     inkscape:cy="125.096"
     inkscape:window-x="0"
     inkscape:window-y="30"
     inkscape:window-maximized="0"
     inkscape:current-layer="Layer_1" /><style
     type="text/css"
     id="style3">
	.st0{fill:#668AA3;}
	.st1{fill:#666666;}
	.st2{fill:#FFFFFF;}
	.st3{fill:#4D4D4D;}
</style><g
     id="g5"
     transform="translate(-546.30499,-257.867)"><g
       id="g7"><path
         class="st0"
         d="m 619.868,313.132 c 1.843,0 2.739,-1.079 2.706,-2.853 -0.558,0.725 -1.471,1.172 -2.756,1.172 -2.3,0 -3.754,-1.403 -3.754,-3.516 0,-2.282 1.725,-3.716 4.346,-3.716 3.128,0 5.022,2.035 5.022,5.351 0,3.454 -2.097,5.705 -5.377,5.705 -1.302,0 -2.773,-0.355 -3.771,-0.894 l 1.15,-1.943 c 0.675,0.447 1.538,0.694 2.434,0.694 z m -1.031,-5.181 c 0,0.925 0.592,1.48 1.64,1.48 1.15,0 1.776,-0.648 1.759,-1.527 0.017,-0.787 -0.524,-1.48 -1.708,-1.48 -1.049,0 -1.691,0.555 -1.691,1.527 z"
         id="path9"
         inkscape:connector-curvature="0"
         style="fill:#668aa3" /><path
         class="st0"
         d="m 632.99,304.327 -3.297,6.337 2.215,0 -0.017,-2.282 2.841,0 0,2.282 1.522,0 0,2.143 -1.522,0 0,2.344 -2.841,0 0,-2.344 -5.36,0 0,-1.897 3.517,-6.584 2.942,0 z"
         id="path11"
         inkscape:connector-curvature="0"
         style="fill:#668aa3" /><path
         class="st0"
         d="m 646.145,311.744 c 0,2.082 -1.877,3.531 -4.819,3.531 -1.725,0 -3.517,-0.524 -4.667,-1.326 l 1.251,-2.174 c 0.93,0.879 2.046,1.342 3.179,1.342 1.302,0 2.029,-0.493 2.029,-1.342 0,-0.863 -0.727,-1.311 -2.046,-1.311 l -1.995,0 0,-1.511 2.773,-2.421 -4.566,0 -0.017,-2.174 8.286,0 0,1.635 -3.196,2.714 0.592,0.077 c 1.877,0.261 3.196,1.31 3.196,2.96 z"
         id="path13"
         inkscape:connector-curvature="0"
         style="fill:#668aa3" /></g><g
       id="g15"><path
         class="st1"
         d="m 745.577,282.113 -156.809,0 c -5.183,0 -9.423,-4.241 -9.423,-9.423 l 0,-5.4 c 0,-5.183 4.241,-9.423 9.423,-9.423 l 156.809,0 c 5.183,0 9.423,4.241 9.423,9.423 l 0,5.4 c 0,5.182 -4.241,9.423 -9.423,9.423 z"
         id="path17"
         inkscape:connector-curvature="0"
         style="fill:#666666" /></g><g
       id="g19"><path
         class="st2"
         d="m 590.526,268.405 c 0,-0.805 0,-1.684 -0.021,-2.414 l 1.006,0 c 0.021,0.318 0.062,1.123 0.041,1.666 0.431,-0.936 1.375,-1.89 3.078,-1.89 1.437,0 2.565,0.655 2.976,1.853 0.513,-0.973 1.539,-1.853 3.345,-1.853 1.58,0 3.222,0.823 3.222,3.425 l 0,6.157 -1.026,0 0,-6.045 c 0,-1.254 -0.493,-2.62 -2.401,-2.62 -1.991,0 -2.894,1.46 -2.894,3.275 l 0,5.39 -1.006,0 0,-6.026 c 0,-1.366 -0.452,-2.639 -2.34,-2.639 -1.991,0 -2.955,1.609 -2.955,3.518 l 0,5.146 -1.026,0 0,-6.943 z"
         id="path21"
         inkscape:connector-curvature="0"
         style="fill:#ffffff" /><path
         class="st2"
         d="m 615.85,270.651 c 0,2.601 -1.58,4.922 -4.638,4.922 -2.771,0 -4.494,-2.077 -4.494,-4.903 0,-2.676 1.621,-4.903 4.597,-4.903 2.729,-10e-4 4.535,1.946 4.535,4.884 z m -8.045,0.019 c 0,2.227 1.313,4.023 3.489,4.023 2.216,0 3.468,-1.666 3.468,-4.023 0,-2.208 -1.231,-4.024 -3.509,-4.024 -2.339,0 -3.448,1.778 -3.448,4.024 z"
         id="path23"
         inkscape:connector-curvature="0"
         style="fill:#ffffff" /><path
         class="st2"
         d="m 618.599,272.765 c 0.349,1.216 1.293,1.946 2.914,1.946 1.826,0 2.565,-0.767 2.565,-1.815 0,-1.067 -0.492,-1.591 -2.791,-2.096 -2.647,-0.58 -3.304,-1.31 -3.304,-2.545 0,-1.291 1.067,-2.489 3.386,-2.489 2.319,0 3.427,1.291 3.591,2.62 l -1.026,0 c -0.185,-0.786 -0.862,-1.759 -2.606,-1.759 -1.785,0 -2.298,0.805 -2.298,1.553 0,0.861 0.493,1.291 2.524,1.74 2.894,0.636 3.612,1.497 3.612,2.901 0,1.703 -1.519,2.751 -3.673,2.751 -2.34,0 -3.653,-1.123 -3.94,-2.807 l 1.046,0 z"
         id="path25"
         inkscape:connector-curvature="0"
         style="fill:#ffffff" /><path
         class="st2"
         d="m 626.11,265.991 1.909,0 0,-2.919 1.026,0 0,2.919 2.442,0 0,0.88 -2.442,0 0,6.082 c 0,1.048 0.246,1.647 1.231,1.647 0.308,0 0.739,-0.019 1.067,-0.112 l 0,0.823 c -0.349,0.131 -0.841,0.168 -1.272,0.168 -1.313,0 -2.052,-0.599 -2.052,-2.096 l 0,-6.512 -1.909,0 0,-0.88 z"
         id="path27"
         inkscape:connector-curvature="0"
         style="fill:#ffffff" /><path
         class="st2"
         d="m 638.915,275.348 0,-13.792 1.026,0 0,13.792 -1.026,0 z"
         id="path29"
         inkscape:connector-curvature="0"
         style="fill:#ffffff" /><path
         class="st2"
         d="m 643.307,261.556 1.026,0 0,1.815 -1.026,0 0,-1.815 z m 0,4.435 1.026,0 0,9.357 -1.026,0 0,-9.357 z"
         id="path31"
         inkscape:connector-curvature="0"
         style="fill:#ffffff" /><path
         class="st2"
         d="m 648.724,270.819 c 0.944,-0.917 3.817,-3.574 5.192,-4.828 l 1.313,0 -4.063,3.724 4.576,5.633 -1.272,0 -4.043,-5.034 -1.703,1.497 0,3.537 -1.026,0 0,-13.792 1.026,0 0,9.263 z"
         id="path33"
         inkscape:connector-curvature="0"
         style="fill:#ffffff" /><path
         class="st2"
         d="m 657.405,270.782 c 0.021,2.414 1.354,3.911 3.325,3.911 1.929,0 2.586,-0.992 2.955,-1.759 l 1.047,0 c -0.431,1.235 -1.519,2.639 -4.043,2.639 -3.119,0 -4.33,-2.451 -4.33,-4.828 0,-2.676 1.457,-4.978 4.453,-4.978 3.16,0 4.166,2.489 4.166,4.248 0,0.262 0,0.524 -0.021,0.767 l -7.552,0 z m 6.506,-0.824 c -0.021,-1.853 -1.129,-3.312 -3.14,-3.312 -2.114,0 -3.078,1.347 -3.304,3.312 l 6.444,0 z"
         id="path35"
         inkscape:connector-curvature="0"
         style="fill:#ffffff" /><path
         class="st2"
         d="m 675.505,261.556 0,11.097 c 0,0.898 0,1.759 0.021,2.695 l -0.985,0 c -0.041,-0.225 -0.062,-1.104 -0.062,-1.572 -0.513,1.142 -1.662,1.797 -3.448,1.797 -2.668,0 -4.269,-1.984 -4.269,-4.791 0,-2.882 1.744,-5.015 4.535,-5.015 2.052,0 2.873,0.805 3.181,1.404 l 0,-5.614 1.027,0 z m -7.654,9.188 c 0,2.564 1.457,3.949 3.222,3.949 2.709,0 3.448,-1.703 3.448,-4.248 0,-2.414 -0.636,-3.799 -3.263,-3.799 -2.032,0 -3.407,1.478 -3.407,4.098 z"
         id="path37"
         inkscape:connector-curvature="0"
         style="fill:#ffffff" /><path
         class="st2"
         d="m 683.939,265.991 c 1.662,4.286 2.812,7.205 3.201,8.403 l 0.021,0 c 0.226,-0.692 1.375,-3.481 3.366,-8.403 l 1.088,0 -3.879,9.357 -1.231,0 -3.653,-9.357 1.087,0 z"
         id="path39"
         inkscape:connector-curvature="0"
         style="fill:#ffffff" /><path
         class="st2"
         d="m 693.851,270.782 c 0.021,2.414 1.354,3.911 3.325,3.911 1.929,0 2.586,-0.992 2.955,-1.759 l 1.047,0 c -0.431,1.235 -1.519,2.639 -4.043,2.639 -3.119,0 -4.33,-2.451 -4.33,-4.828 0,-2.676 1.457,-4.978 4.453,-4.978 3.16,0 4.166,2.489 4.166,4.248 0,0.262 0,0.524 -0.021,0.767 l -7.552,0 z m 6.506,-0.824 c -0.021,-1.853 -1.129,-3.312 -3.14,-3.312 -2.114,0 -3.078,1.347 -3.304,3.312 l 6.444,0 z"
         id="path41"
         inkscape:connector-curvature="0"
         style="fill:#ffffff" /><path
         class="st2"
         d="m 703.927,268.349 c 0,-0.823 0,-1.609 -0.021,-2.358 l 1.006,0 c 0.041,0.299 0.062,1.516 0.041,1.778 0.451,-0.954 1.293,-2.002 3.407,-2.002 1.826,0 3.448,0.936 3.448,3.518 l 0,6.063 -1.026,0 0,-5.914 c 0,-1.666 -0.759,-2.751 -2.545,-2.751 -2.442,0 -3.284,1.853 -3.284,3.893 l 0,4.772 -1.026,0 0,-6.999 z"
         id="path43"
         inkscape:connector-curvature="0"
         style="fill:#ffffff" /><path
         class="st2"
         d="m 722.705,272.616 c 0,0.917 0.021,2.377 0.021,2.732 l -0.985,0 c -0.041,-0.243 -0.062,-0.861 -0.062,-1.628 -0.431,1.104 -1.478,1.853 -3.304,1.853 -1.478,0 -3.366,-0.524 -3.366,-3.387 l 0,-6.194 1.006,0 0,5.97 c 0,1.366 0.472,2.695 2.504,2.695 2.299,0 3.16,-1.179 3.16,-3.855 l 0,-4.81 1.026,0 0,6.624 z"
         id="path45"
         inkscape:connector-curvature="0"
         style="fill:#ffffff" /><path
         class="st2"
         d="m 726.296,270.782 c 0.021,2.414 1.354,3.911 3.325,3.911 1.929,0 2.586,-0.992 2.955,-1.759 l 1.047,0 c -0.431,1.235 -1.519,2.639 -4.043,2.639 -3.119,0 -4.33,-2.451 -4.33,-4.828 0,-2.676 1.457,-4.978 4.453,-4.978 3.16,0 4.166,2.489 4.166,4.248 0,0.262 0,0.524 -0.021,0.767 l -7.552,0 z m 6.506,-0.824 c -0.021,-1.853 -1.129,-3.312 -3.14,-3.312 -2.114,0 -3.078,1.347 -3.304,3.312 l 6.444,0 z"
         id="path47"
         inkscape:connector-curvature="0"
         style="fill:#ffffff" /><path
         class="st2"
         d="m 736.618,272.765 c 0.349,1.216 1.293,1.946 2.914,1.946 1.826,0 2.565,-0.767 2.565,-1.815 0,-1.067 -0.492,-1.591 -2.791,-2.096 -2.647,-0.58 -3.304,-1.31 -3.304,-2.545 0,-1.291 1.067,-2.489 3.386,-2.489 2.319,0 3.427,1.291 3.591,2.62 l -1.026,0 c -0.185,-0.786 -0.862,-1.759 -2.606,-1.759 -1.785,0 -2.298,0.805 -2.298,1.553 0,0.861 0.493,1.291 2.524,1.74 2.894,0.636 3.612,1.497 3.612,2.901 0,1.703 -1.519,2.751 -3.673,2.751 -2.339,0 -3.653,-1.123 -3.94,-2.807 l 1.046,0 z"
         id="path49"
         inkscape:connector-curvature="0"
         style="fill:#ffffff" /></g><g
       id="g51"><path
         class="st0"
         d="m 625.702,346.706 0,1.958 -4.464,8.866 -3.264,0 4.329,-8.543 -3.314,0 0,1.511 -2.739,0 0,-3.793 9.452,0 z"
         id="path53"
         inkscape:connector-curvature="0"
         style="fill:#668aa3" /><path
         class="st0"
         d="m 635.915,352.119 c 0,3.531 -1.657,5.489 -4.633,5.489 -3.01,0 -4.65,-1.958 -4.65,-5.489 0,-3.531 1.64,-5.474 4.65,-5.474 2.976,0 4.633,1.943 4.633,5.474 z m -6.324,0 c 0,2.467 0.49,3.5 1.691,3.5 1.184,0 1.674,-1.033 1.674,-3.5 0,-2.483 -0.49,-3.5 -1.674,-3.5 -1.201,-0.001 -1.691,1.017 -1.691,3.5 z"
         id="path55"
         inkscape:connector-curvature="0"
         style="fill:#668aa3" /><path
         class="st0"
         d="m 641.714,350.623 c 2.79,0 4.599,1.342 4.599,3.269 0,2.282 -1.911,3.762 -4.836,3.762 -1.59,0 -3.416,-0.54 -4.701,-1.357 l 1.234,-2.19 c 0.93,0.894 2.012,1.357 3.094,1.357 1.201,0 1.877,-0.493 1.877,-1.372 0,-0.817 -0.676,-1.28 -1.86,-1.28 -0.626,0 -2.57,0.015 -3.314,0.062 l 0,-6.168 7.964,0 0,2.282 -5.124,0 0,1.65 c 0.256,-0.015 0.831,-0.015 1.067,-0.015 z"
         id="path57"
         inkscape:connector-curvature="0"
         style="fill:#668aa3" /></g><g
       id="g59"><path
         class="st0"
         d="m 621.847,371.042 c 0,-0.586 -0.49,-0.925 -1.353,-0.925 -0.964,0 -2.181,0.524 -3.28,1.372 l -1.167,-2.082 c 1.522,-1.018 3.179,-1.634 4.904,-1.634 2.401,0 4.143,1.141 4.143,2.853 0,1.172 -0.981,2.39 -2.3,3.608 l -2.435,2.22 5.073,0 0,2.267 -9.03,0 -0.017,-1.866 4.312,-4.04 c 0.659,-0.617 1.15,-1.311 1.15,-1.773 z"
         id="path61"
         inkscape:connector-curvature="0"
         style="fill:#668aa3" /><path
         class="st0"
         d="m 635.712,375.313 c 0,2.082 -1.877,3.531 -4.819,3.531 -1.725,0 -3.517,-0.524 -4.667,-1.326 l 1.251,-2.174 c 0.93,0.879 2.046,1.341 3.179,1.341 1.302,0 2.029,-0.493 2.029,-1.341 0,-0.863 -0.727,-1.311 -2.046,-1.311 l -1.995,0 0,-1.511 2.773,-2.421 -4.566,0 -0.017,-2.174 8.286,0 0,1.635 -3.196,2.714 0.592,0.077 c 1.877,0.261 3.196,1.31 3.196,2.96 z"
         id="path63"
         inkscape:connector-curvature="0"
         style="fill:#668aa3" /><path
         class="st0"
         d="m 643.422,367.896 -3.297,6.337 2.215,0 -0.017,-2.282 2.841,0 0,2.282 1.522,0 0,2.143 -1.522,0 0,2.344 -2.841,0 0,-2.344 -5.36,0 0,-1.897 3.517,-6.584 2.942,0 z"
         id="path65"
         inkscape:connector-curvature="0"
         style="fill:#668aa3" /></g><g
       id="g67"><path
         class="st0"
         d="m 621.847,392.231 c 0,-0.586 -0.49,-0.925 -1.353,-0.925 -0.964,0 -2.181,0.524 -3.28,1.372 l -1.167,-2.082 c 1.522,-1.018 3.179,-1.634 4.904,-1.634 2.401,0 4.143,1.141 4.143,2.853 0,1.172 -0.981,2.39 -2.3,3.608 l -2.435,2.22 5.073,0 0,2.267 -9.03,0 -0.017,-1.866 4.312,-4.04 c 0.659,-0.616 1.15,-1.31 1.15,-1.773 z"
         id="path69"
         inkscape:connector-curvature="0"
         style="fill:#668aa3" /><path
         class="st0"
         d="m 635.712,396.503 c 0,2.082 -1.877,3.531 -4.819,3.531 -1.725,0 -3.517,-0.524 -4.667,-1.326 l 1.251,-2.174 c 0.93,0.879 2.046,1.341 3.179,1.341 1.302,0 2.029,-0.493 2.029,-1.341 0,-0.863 -0.727,-1.311 -2.046,-1.311 l -1.995,0 0,-1.511 2.773,-2.421 -4.566,0 -0.017,-2.174 8.286,0 0,1.635 -3.196,2.714 0.592,0.077 c 1.877,0.261 3.196,1.31 3.196,2.96 z"
         id="path71"
         inkscape:connector-curvature="0"
         style="fill:#668aa3" /><path
         class="st0"
         d="m 642.712,392.231 c 0,-0.586 -0.49,-0.925 -1.353,-0.925 -0.964,0 -2.181,0.524 -3.28,1.372 l -1.167,-2.082 c 1.522,-1.018 3.179,-1.634 4.904,-1.634 2.401,0 4.143,1.141 4.143,2.853 0,1.172 -0.981,2.39 -2.3,3.608 l -2.435,2.22 5.073,0 0,2.267 -9.03,0 -0.017,-1.866 4.312,-4.04 c 0.66,-0.616 1.15,-1.31 1.15,-1.773 z"
         id="path73"
         inkscape:connector-curvature="0"
         style="fill:#668aa3" /></g><g
       id="g75"><path
         class="st0"
         d="m 621.847,413.421 c 0,-0.586 -0.49,-0.925 -1.353,-0.925 -0.964,0 -2.181,0.524 -3.28,1.372 l -1.167,-2.082 c 1.522,-1.018 3.179,-1.634 4.904,-1.634 2.401,0 4.143,1.141 4.143,2.853 0,1.172 -0.981,2.39 -2.3,3.608 l -2.435,2.22 5.073,0 0,2.267 -9.03,0 -0.017,-1.866 4.312,-4.04 c 0.659,-0.617 1.15,-1.31 1.15,-1.773 z"
         id="path77"
         inkscape:connector-curvature="0"
         style="fill:#668aa3" /><path
         class="st0"
         d="m 632.279,413.421 c 0,-0.586 -0.49,-0.925 -1.353,-0.925 -0.964,0 -2.181,0.524 -3.28,1.372 l -1.167,-2.082 c 1.522,-1.018 3.179,-1.634 4.904,-1.634 2.401,0 4.143,1.141 4.143,2.853 0,1.172 -0.981,2.39 -2.3,3.608 l -2.435,2.22 5.073,0 0,2.267 -9.03,0 -0.017,-1.866 4.312,-4.04 c 0.66,-0.617 1.15,-1.31 1.15,-1.773 z"
         id="path79"
         inkscape:connector-curvature="0"
         style="fill:#668aa3" /><path
         class="st0"
         d="m 641.714,414.192 c 2.79,0 4.599,1.341 4.599,3.269 0,2.282 -1.911,3.763 -4.836,3.763 -1.59,0 -3.416,-0.54 -4.701,-1.357 l 1.234,-2.19 c 0.93,0.894 2.012,1.357 3.094,1.357 1.201,0 1.877,-0.493 1.877,-1.372 0,-0.817 -0.676,-1.28 -1.86,-1.28 -0.626,0 -2.57,0.015 -3.314,0.062 l 0,-6.168 7.964,0 0,2.282 -5.124,0 0,1.65 c 0.256,-0.016 0.831,-0.016 1.067,-0.016 z"
         id="path81"
         inkscape:connector-curvature="0"
         style="fill:#668aa3" /></g><g
       id="g83"><path
         class="st0"
         d="m 622.557,431.481 0,10.809 -3.094,0 0,-8.496 -2.283,0 0,-2.313 5.377,0 z"
         id="path85"
         inkscape:connector-curvature="0"
         style="fill:#668aa3" /><path
         class="st0"
         d="m 632.262,433.5 c -1.843,0 -2.739,1.079 -2.706,2.837 0.558,-0.725 1.471,-1.156 2.756,-1.156 2.3,0 3.788,1.388 3.788,3.5 0,2.282 -1.759,3.732 -4.363,3.732 -3.145,0 -5.039,-2.051 -5.039,-5.366 0,-3.454 2.114,-5.69 5.377,-5.69 1.319,0 2.79,0.339 3.771,0.894 l -1.133,1.943 c -0.675,-0.447 -1.537,-0.694 -2.451,-0.694 z m -2.384,5.212 c 0,0.787 0.541,1.48 1.742,1.48 1.048,0 1.691,-0.54 1.691,-1.527 0,-0.91 -0.609,-1.465 -1.657,-1.465 -1.133,0.001 -1.776,0.633 -1.776,1.512 z"
         id="path87"
         inkscape:connector-curvature="0"
         style="fill:#668aa3" /><path
         class="st0"
         d="m 645.874,434.271 c 0,0.91 -0.541,1.758 -1.42,2.22 1.234,0.509 2.029,1.542 2.029,2.745 0,1.943 -1.877,3.176 -4.785,3.176 -2.892,0 -4.752,-1.218 -4.752,-3.13 0,-1.218 0.846,-2.282 2.164,-2.791 -0.964,-0.509 -1.573,-1.388 -1.573,-2.298 0,-1.742 1.64,-2.853 4.143,-2.853 2.571,0.002 4.194,1.143 4.194,2.931 z m -6.037,4.719 c 0,0.879 0.659,1.357 1.86,1.357 1.217,0 1.894,-0.478 1.894,-1.357 0,-0.864 -0.676,-1.342 -1.877,-1.342 -1.217,0 -1.877,0.478 -1.877,1.342 z m 0.288,-4.564 c 0,0.74 0.558,1.156 1.573,1.156 1.031,0 1.589,-0.416 1.589,-1.156 0,-0.771 -0.558,-1.187 -1.589,-1.187 -1.015,-10e-4 -1.573,0.416 -1.573,1.187 z"
         id="path89"
         inkscape:connector-curvature="0"
         style="fill:#668aa3" /></g><g
       id="g91"><path
         class="st0"
         d="m 622.557,452.67 0,10.809 -3.094,0 0,-8.496 -2.283,0 0,-2.313 5.377,0 z"
         id="path93"
         inkscape:connector-curvature="0"
         style="fill:#668aa3" /><path
         class="st0"
         d="m 632.262,454.69 c -1.843,0 -2.739,1.079 -2.706,2.837 0.558,-0.725 1.471,-1.156 2.756,-1.156 2.3,0 3.788,1.388 3.788,3.5 0,2.282 -1.759,3.732 -4.363,3.732 -3.145,0 -5.039,-2.051 -5.039,-5.366 0,-3.454 2.114,-5.69 5.377,-5.69 1.319,0 2.79,0.339 3.771,0.894 l -1.133,1.943 c -0.675,-0.447 -1.537,-0.694 -2.451,-0.694 z m -2.384,5.212 c 0,0.787 0.541,1.48 1.742,1.48 1.048,0 1.691,-0.54 1.691,-1.527 0,-0.91 -0.609,-1.465 -1.657,-1.465 -1.133,0.001 -1.776,0.633 -1.776,1.512 z"
         id="path95"
         inkscape:connector-curvature="0"
         style="fill:#668aa3" /><path
         class="st0"
         d="m 643.422,452.655 -3.297,6.337 2.215,0 -0.017,-2.282 2.841,0 0,2.282 1.522,0 0,2.143 -1.522,0 0,2.344 -2.841,0 0,-2.344 -5.36,0 0,-1.897 3.517,-6.584 2.942,0 z"
         id="path97"
         inkscape:connector-curvature="0"
         style="fill:#668aa3" /></g><g
       id="g99"><path
         class="st0"
         d="m 622.557,473.86 0,10.809 -3.094,0 0,-8.496 -2.283,0 0,-2.313 5.377,0 z"
         id="path101"
         inkscape:connector-curvature="0"
         style="fill:#668aa3" /><path
         class="st0"
         d="m 632.99,473.844 -3.297,6.337 2.215,0 -0.017,-2.282 2.841,0 0,2.282 1.522,0 0,2.143 -1.522,0 0,2.344 -2.841,0 0,-2.344 -5.36,0 0,-1.897 3.517,-6.584 2.942,0 z"
         id="path103"
         inkscape:connector-curvature="0"
         style="fill:#668aa3" /><path
         class="st0"
         d="m 643.422,473.86 0,10.809 -3.094,0 0,-8.496 -2.283,0 0,-2.313 5.377,0 z"
         id="path105"
         inkscape:connector-curvature="0"
         style="fill:#668aa3" /></g><g
       id="g107"><path
         class="st0"
         d="m 622.557,495.05 0,10.809 -3.094,0 0,-8.496 -2.283,0 0,-2.313 5.377,0 z"
         id="path109"
         inkscape:connector-curvature="0"
         style="fill:#668aa3" /><path
         class="st0"
         d="m 635.712,502.451 c 0,2.082 -1.877,3.531 -4.819,3.531 -1.725,0 -3.517,-0.524 -4.667,-1.326 l 1.251,-2.174 c 0.93,0.879 2.046,1.341 3.179,1.341 1.302,0 2.029,-0.493 2.029,-1.341 0,-0.863 -0.727,-1.311 -2.046,-1.311 l -1.995,0 0,-1.511 2.773,-2.421 -4.566,0 -0.017,-2.174 8.286,0 0,1.635 -3.196,2.714 0.592,0.077 c 1.877,0.262 3.196,1.31 3.196,2.96 z"
         id="path111"
         inkscape:connector-curvature="0"
         style="fill:#668aa3" /><path
         class="st0"
         d="m 640.734,503.839 c 1.843,0 2.739,-1.079 2.706,-2.853 -0.558,0.725 -1.471,1.172 -2.756,1.172 -2.3,0 -3.754,-1.403 -3.754,-3.516 0,-2.282 1.725,-3.716 4.346,-3.716 3.128,0 5.022,2.035 5.022,5.351 0,3.454 -2.097,5.705 -5.377,5.705 -1.302,0 -2.773,-0.355 -3.771,-0.894 l 1.15,-1.943 c 0.675,0.447 1.537,0.694 2.434,0.694 z m -1.032,-5.181 c 0,0.925 0.592,1.48 1.64,1.48 1.15,0 1.776,-0.648 1.759,-1.527 0.017,-0.787 -0.524,-1.48 -1.708,-1.48 -1.048,0 -1.691,0.555 -1.691,1.527 z"
         id="path113"
         inkscape:connector-curvature="0"
         style="fill:#668aa3" /></g><g
       id="g115"><path
         class="st0"
         d="m 625.702,325.517 0,1.958 -4.464,8.866 -3.264,0 4.329,-8.543 -3.314,0 0,1.511 -2.739,0 0,-3.793 9.452,0 z"
         id="path117"
         inkscape:connector-curvature="0"
         style="fill:#668aa3" /><path
         class="st0"
         d="m 632.99,325.517 -3.297,6.337 2.215,0 -0.017,-2.282 2.841,0 0,2.282 1.522,0 0,2.143 -1.522,0 0,2.344 -2.841,0 0,-2.344 -5.36,0 0,-1.897 3.517,-6.584 2.942,0 z"
         id="path119"
         inkscape:connector-curvature="0"
         style="fill:#668aa3" /><path
         class="st0"
         d="m 646.348,330.929 c 0,3.531 -1.657,5.489 -4.633,5.489 -3.01,0 -4.65,-1.958 -4.65,-5.489 0,-3.531 1.64,-5.474 4.65,-5.474 2.976,0 4.633,1.943 4.633,5.474 z m -6.325,0 c 0,2.467 0.49,3.5 1.691,3.5 1.184,0 1.674,-1.033 1.674,-3.5 0,-2.483 -0.49,-3.5 -1.674,-3.5 -1.2,0 -1.691,1.017 -1.691,3.5 z"
         id="path121"
         inkscape:connector-curvature="0"
         style="fill:#668aa3" /></g><g
       id="g123"><path
         class="st3"
         d="m 658.555,304.358 0.913,0 0,4.703 7.102,0 0,-4.703 0.913,0 0,10.794 -0.913,0 0,-5.32 -7.102,0 0,5.32 -0.913,0 0,-10.794 z"
         id="path125"
         inkscape:connector-curvature="0"
         style="fill:#4d4d4d" /><path
         class="st3"
         d="m 670.442,303.787 0.845,0 0,1.496 -0.845,0 0,-1.496 z m 0,3.655 0.845,0 0,7.71 -0.845,0 0,-7.71 z"
         id="path127"
         inkscape:connector-curvature="0"
         style="fill:#4d4d4d" /><path
         class="st3"
         d="m 674.06,315.152 0,-11.364 0.846,0 0,11.364 -0.846,0 z"
         id="path129"
         inkscape:connector-curvature="0"
         style="fill:#4d4d4d" /><path
         class="st3"
         d="m 676.529,307.442 1.573,0 0,-2.406 0.845,0 0,2.406 2.012,0 0,0.725 -2.012,0 0,5.011 c 0,0.863 0.203,1.357 1.015,1.357 0.254,0 0.609,-0.015 0.879,-0.093 l 0,0.679 c -0.287,0.108 -0.693,0.139 -1.048,0.139 -1.082,0 -1.691,-0.493 -1.691,-1.727 l 0,-5.366 -1.573,0 0,-0.725 z"
         id="path131"
         inkscape:connector-curvature="0"
         style="fill:#4d4d4d" /><path
         class="st3"
         d="m 682.633,315.152 0,-11.364 0.846,0 0,11.364 -0.846,0 z"
         id="path133"
         inkscape:connector-curvature="0"
         style="fill:#4d4d4d" /></g><g
       id="g135"><path
         class="st3"
         d="m 660.973,368.698 -3.974,0 0,-0.771 8.894,0 0,0.771 -3.991,0 0,10.023 -0.93,0 0,-10.023 z"
         id="path137"
         inkscape:connector-curvature="0"
         style="fill:#4d4d4d" /><path
         class="st3"
         d="m 665.741,374.958 c 0.017,1.989 1.116,3.223 2.739,3.223 1.59,0 2.131,-0.817 2.435,-1.449 l 0.862,0 c -0.355,1.018 -1.251,2.174 -3.331,2.174 -2.57,0 -3.568,-2.02 -3.568,-3.978 0,-2.205 1.201,-4.102 3.669,-4.102 2.604,0 3.433,2.051 3.433,3.5 0,0.216 0,0.432 -0.017,0.632 l -6.222,0 z m 5.36,-0.678 c -0.017,-1.527 -0.93,-2.729 -2.587,-2.729 -1.742,0 -2.536,1.11 -2.722,2.729 l 5.309,0 z"
         id="path139"
         inkscape:connector-curvature="0"
         style="fill:#4d4d4d" /><path
         class="st3"
         d="m 674.043,373.108 c 0,-1.295 -0.017,-1.85 -0.017,-2.097 l 0.829,0 c 0.017,0.247 0.034,0.74 0.034,1.727 0.49,-1.157 1.573,-1.85 2.942,-1.912 l 0,0.833 c -1.759,0.108 -2.942,1.218 -2.942,3.053 l 0,4.009 -0.845,0 0,-5.613 z"
         id="path141"
         inkscape:connector-curvature="0"
         style="fill:#4d4d4d" /><path
         class="st3"
         d="m 679.336,373.108 c 0,-1.295 -0.017,-1.85 -0.017,-2.097 l 0.829,0 c 0.017,0.247 0.034,0.74 0.034,1.727 0.49,-1.157 1.573,-1.85 2.942,-1.912 l 0,0.833 c -1.759,0.108 -2.942,1.218 -2.942,3.053 l 0,4.009 -0.846,0 0,-5.613 z"
         id="path143"
         inkscape:connector-curvature="0"
         style="fill:#4d4d4d" /><path
         class="st3"
         d="m 690.327,377.256 c 0,0.678 0.068,1.218 0.118,1.465 l -0.812,0 c -0.068,-0.185 -0.118,-0.524 -0.152,-1.187 -0.287,0.571 -1.031,1.372 -2.773,1.372 -1.961,0 -2.807,-1.157 -2.807,-2.313 0,-1.696 1.437,-2.467 3.974,-2.467 0.71,0 1.268,0 1.606,0 l 0,-0.786 c 0,-0.771 -0.254,-1.804 -2.181,-1.804 -1.708,0 -1.961,0.817 -2.148,1.449 l -0.845,0 c 0.101,-0.848 0.676,-2.159 3.01,-2.159 1.928,0 3.01,0.74 3.01,2.436 l 0,3.994 z m -0.829,-2.467 c -0.321,0 -1.099,0 -1.657,0 -1.877,0 -3.044,0.447 -3.044,1.773 0,0.971 0.761,1.634 1.945,1.634 2.418,0 2.756,-1.465 2.756,-3.13 l 0,-0.277 z"
         id="path145"
         inkscape:connector-curvature="0"
         style="fill:#4d4d4d" /><path
         class="st3"
         d="m 693.032,376.593 c 0.288,1.002 1.065,1.604 2.401,1.604 1.505,0 2.114,-0.632 2.114,-1.496 0,-0.879 -0.406,-1.311 -2.3,-1.727 -2.181,-0.478 -2.722,-1.079 -2.722,-2.097 0,-1.064 0.879,-2.051 2.79,-2.051 1.911,0 2.824,1.064 2.959,2.159 l -0.846,0 c -0.152,-0.648 -0.71,-1.449 -2.147,-1.449 -1.471,0 -1.894,0.663 -1.894,1.28 0,0.709 0.406,1.064 2.08,1.434 2.384,0.524 2.976,1.234 2.976,2.39 0,1.403 -1.251,2.267 -3.027,2.267 -1.928,0 -3.01,-0.925 -3.247,-2.313 l 0.863,0 z"
         id="path147"
         inkscape:connector-curvature="0"
         style="fill:#4d4d4d" /><path
         class="st3"
         d="m 700.743,376.593 c 0.287,1.002 1.065,1.604 2.401,1.604 1.505,0 2.114,-0.632 2.114,-1.496 0,-0.879 -0.406,-1.311 -2.3,-1.727 -2.181,-0.478 -2.722,-1.079 -2.722,-2.097 0,-1.064 0.879,-2.051 2.79,-2.051 1.911,0 2.824,1.064 2.959,2.159 l -0.845,0 c -0.152,-0.648 -0.71,-1.449 -2.148,-1.449 -1.471,0 -1.894,0.663 -1.894,1.28 0,0.709 0.406,1.064 2.08,1.434 2.384,0.524 2.976,1.234 2.976,2.39 0,1.403 -1.251,2.267 -3.027,2.267 -1.928,0 -3.01,-0.925 -3.247,-2.313 l 0.863,0 z"
         id="path149"
         inkscape:connector-curvature="0"
         style="fill:#4d4d4d" /><path
         class="st3"
         d="m 708.436,374.958 c 0.017,1.989 1.116,3.223 2.739,3.223 1.589,0 2.131,-0.817 2.435,-1.449 l 0.862,0 c -0.355,1.018 -1.251,2.174 -3.331,2.174 -2.57,0 -3.568,-2.02 -3.568,-3.978 0,-2.205 1.201,-4.102 3.669,-4.102 2.604,0 3.433,2.051 3.433,3.5 0,0.216 0,0.432 -0.017,0.632 l -6.222,0 z m 5.36,-0.678 c -0.017,-1.527 -0.93,-2.729 -2.587,-2.729 -1.742,0 -2.536,1.11 -2.722,2.729 l 5.309,0 z"
         id="path151"
         inkscape:connector-curvature="0"
         style="fill:#4d4d4d" /></g><g
       id="g153"><path
         class="st3"
         d="m 661.531,399.91 -4.396,-10.794 0.981,0 2.3,5.644 c 0.659,1.634 1.403,3.439 1.657,4.348 l 0.034,0 c 0.254,-0.802 1.065,-2.698 1.725,-4.287 l 2.384,-5.705 0.964,0 -4.566,10.794 -1.083,0 z"
         id="path155"
         inkscape:connector-curvature="0"
         style="fill:#4d4d4d" /><path
         class="st3"
         d="m 668.04,396.148 c 0.017,1.989 1.116,3.223 2.739,3.223 1.59,0 2.131,-0.817 2.435,-1.45 l 0.862,0 c -0.355,1.018 -1.251,2.174 -3.331,2.174 -2.57,0 -3.568,-2.02 -3.568,-3.978 0,-2.205 1.201,-4.102 3.669,-4.102 2.604,0 3.433,2.051 3.433,3.5 0,0.216 0,0.432 -0.017,0.632 l -6.222,0 z m 5.361,-0.678 c -0.017,-1.527 -0.93,-2.729 -2.587,-2.729 -1.742,0 -2.536,1.11 -2.722,2.729 l 5.309,0 z"
         id="path157"
         inkscape:connector-curvature="0"
         style="fill:#4d4d4d" /><path
         class="st3"
         d="m 676.343,394.298 c 0,-1.295 -0.017,-1.85 -0.017,-2.097 l 0.829,0 c 0.017,0.247 0.034,0.74 0.034,1.727 0.49,-1.157 1.573,-1.85 2.942,-1.912 l 0,0.833 c -1.759,0.108 -2.942,1.218 -2.942,3.053 l 0,4.009 -0.846,0 0,-5.613 z"
         id="path159"
         inkscape:connector-curvature="0"
         style="fill:#4d4d4d" /><path
         class="st3"
         d="m 682.667,396.179 c 0.778,-0.756 3.145,-2.945 4.278,-3.978 l 1.082,0 -3.348,3.068 3.771,4.641 -1.048,0 -3.331,-4.148 -1.403,1.234 0,2.914 -0.846,0 0,-11.364 0.846,0 0,7.633 z"
         id="path161"
         inkscape:connector-curvature="0"
         style="fill:#4d4d4d" /><path
         class="st3"
         d="m 689.819,396.148 c 0.017,1.989 1.116,3.223 2.739,3.223 1.589,0 2.131,-0.817 2.435,-1.45 l 0.862,0 c -0.355,1.018 -1.251,2.174 -3.331,2.174 -2.57,0 -3.568,-2.02 -3.568,-3.978 0,-2.205 1.201,-4.102 3.669,-4.102 2.604,0 3.433,2.051 3.433,3.5 0,0.216 0,0.432 -0.017,0.632 l -6.222,0 z m 5.361,-0.678 c -0.017,-1.527 -0.93,-2.729 -2.587,-2.729 -1.742,0 -2.536,1.11 -2.722,2.729 l 5.309,0 z"
         id="path163"
         inkscape:connector-curvature="0"
         style="fill:#4d4d4d" /><path
         class="st3"
         d="m 699.035,388.546 0,4.95 c 0.474,-0.802 1.302,-1.48 2.79,-1.48 1.201,0 2.858,0.555 2.858,2.991 l 0,4.903 -0.845,0 0,-4.749 c 0,-1.527 -0.761,-2.39 -2.164,-2.39 -1.674,0 -2.638,0.941 -2.638,2.837 l 0,4.302 -0.845,0 0,-11.364 0.844,0 z"
         id="path165"
         inkscape:connector-curvature="0"
         style="fill:#4d4d4d" /><path
         class="st3"
         d="m 707.455,394.298 c 0,-1.295 -0.017,-1.85 -0.017,-2.097 l 0.829,0 c 0.017,0.247 0.034,0.74 0.034,1.727 0.49,-1.157 1.573,-1.85 2.942,-1.912 l 0,0.833 c -1.759,0.108 -2.942,1.218 -2.942,3.053 l 0,4.009 -0.846,0 0,-5.613 z"
         id="path167"
         inkscape:connector-curvature="0"
         style="fill:#4d4d4d" /><path
         class="st3"
         d="m 713.001,397.782 c 0.288,1.002 1.065,1.604 2.401,1.604 1.505,0 2.114,-0.632 2.114,-1.496 0,-0.879 -0.406,-1.311 -2.3,-1.727 -2.181,-0.478 -2.722,-1.079 -2.722,-2.097 0,-1.064 0.879,-2.051 2.79,-2.051 1.911,0 2.824,1.064 2.959,2.159 l -0.846,0 c -0.152,-0.648 -0.71,-1.449 -2.148,-1.449 -1.471,0 -1.894,0.663 -1.894,1.28 0,0.709 0.406,1.064 2.08,1.434 2.384,0.524 2.976,1.234 2.976,2.39 0,1.403 -1.251,2.267 -3.027,2.267 -1.928,0 -3.01,-0.925 -3.247,-2.313 l 0.864,0 z"
         id="path169"
         inkscape:connector-curvature="0"
         style="fill:#4d4d4d" /><path
         class="st3"
         d="m 721.219,388.546 0,4.95 c 0.474,-0.802 1.302,-1.48 2.79,-1.48 1.201,0 2.858,0.555 2.858,2.991 l 0,4.903 -0.845,0 0,-4.749 c 0,-1.527 -0.761,-2.39 -2.164,-2.39 -1.674,0 -2.638,0.941 -2.638,2.837 l 0,4.302 -0.845,0 0,-11.364 0.844,0 z"
         id="path171"
         inkscape:connector-curvature="0"
         style="fill:#4d4d4d" /><path
         class="st3"
         d="m 735.338,398.445 c 0,0.678 0.068,1.218 0.118,1.465 l -0.812,0 c -0.068,-0.185 -0.118,-0.524 -0.152,-1.187 -0.287,0.571 -1.031,1.372 -2.773,1.372 -1.961,0 -2.807,-1.157 -2.807,-2.313 0,-1.696 1.437,-2.467 3.974,-2.467 0.71,0 1.268,0 1.606,0 l 0,-0.786 c 0,-0.771 -0.254,-1.804 -2.181,-1.804 -1.708,0 -1.961,0.817 -2.147,1.449 l -0.845,0 c 0.102,-0.848 0.676,-2.159 3.01,-2.159 1.928,0 3.01,0.74 3.01,2.436 l 0,3.994 z m -0.828,-2.467 c -0.321,0 -1.099,0 -1.657,0 -1.877,0 -3.044,0.447 -3.044,1.773 0,0.971 0.761,1.634 1.945,1.634 2.418,0 2.756,-1.465 2.756,-3.13 l 0,-0.277 z"
         id="path173"
         inkscape:connector-curvature="0"
         style="fill:#4d4d4d" /><path
         class="st3"
         d="m 744.351,397.659 c 0,0.756 0.017,1.958 0.017,2.251 l -0.812,0 c -0.034,-0.201 -0.051,-0.709 -0.051,-1.341 -0.355,0.91 -1.218,1.527 -2.722,1.527 -1.218,0 -2.773,-0.432 -2.773,-2.791 l 0,-5.104 0.829,0 0,4.919 c 0,1.126 0.389,2.22 2.063,2.22 1.894,0 2.604,-0.971 2.604,-3.176 l 0,-3.963 0.846,0 0,5.458 z"
         id="path175"
         inkscape:connector-curvature="0"
         style="fill:#4d4d4d" /><path
         class="st3"
         d="m 747.022,397.782 c 0.288,1.002 1.065,1.604 2.401,1.604 1.505,0 2.114,-0.632 2.114,-1.496 0,-0.879 -0.406,-1.311 -2.3,-1.727 -2.181,-0.478 -2.722,-1.079 -2.722,-2.097 0,-1.064 0.879,-2.051 2.79,-2.051 1.911,0 2.824,1.064 2.959,2.159 l -0.846,0 c -0.152,-0.648 -0.71,-1.449 -2.147,-1.449 -1.471,0 -1.894,0.663 -1.894,1.28 0,0.709 0.406,1.064 2.08,1.434 2.384,0.524 2.976,1.234 2.976,2.39 0,1.403 -1.251,2.267 -3.027,2.267 -1.928,0 -3.01,-0.925 -3.247,-2.313 l 0.863,0 z"
         id="path177"
         inkscape:connector-curvature="0"
         style="fill:#4d4d4d" /></g><g
       id="g179"><path
         class="st3"
         d="m 659.484,458.437 0,5.042 -0.93,0 0,-10.794 4.244,0 c 2.333,0 3.568,1.141 3.568,2.837 0,1.372 -0.896,2.267 -2.215,2.529 1.217,0.262 2.029,0.987 2.029,2.822 l 0,0.416 c 0,0.756 -0.068,1.773 0.152,2.19 l -0.93,0 c -0.22,-0.463 -0.169,-1.326 -0.169,-2.251 l 0,-0.277 c 0,-1.773 -0.575,-2.514 -2.841,-2.514 l -2.908,0 z m 0,-0.771 2.858,0 c 2.08,0 3.044,-0.709 3.044,-2.128 0,-1.326 -0.947,-2.082 -2.79,-2.082 l -3.111,0 0,4.21 z"
         id="path181"
         inkscape:connector-curvature="0"
         style="fill:#4d4d4d" /><path
         class="st3"
         d="m 669.207,459.717 c 0.017,1.989 1.116,3.223 2.739,3.223 1.59,0 2.131,-0.817 2.435,-1.449 l 0.862,0 c -0.355,1.018 -1.251,2.174 -3.331,2.174 -2.57,0 -3.568,-2.02 -3.568,-3.978 0,-2.205 1.201,-4.102 3.669,-4.102 2.604,0 3.433,2.051 3.433,3.5 0,0.216 0,0.432 -0.017,0.632 l -6.222,0 z m 5.36,-0.678 c -0.017,-1.527 -0.93,-2.729 -2.587,-2.729 -1.742,0 -2.536,1.11 -2.722,2.729 l 5.309,0 z"
         id="path183"
         inkscape:connector-curvature="0"
         style="fill:#4d4d4d" /><path
         class="st3"
         d="m 677.712,461.352 c 0.287,1.002 1.065,1.604 2.401,1.604 1.505,0 2.114,-0.632 2.114,-1.496 0,-0.879 -0.406,-1.311 -2.3,-1.727 -2.181,-0.478 -2.722,-1.079 -2.722,-2.097 0,-1.064 0.879,-2.051 2.79,-2.051 1.911,0 2.824,1.064 2.959,2.159 l -0.846,0 c -0.152,-0.648 -0.71,-1.449 -2.148,-1.449 -1.471,0 -1.894,0.663 -1.894,1.28 0,0.709 0.406,1.064 2.08,1.434 2.384,0.524 2.976,1.234 2.976,2.39 0,1.403 -1.251,2.267 -3.027,2.267 -1.928,0 -3.01,-0.925 -3.247,-2.313 l 0.864,0 z"
         id="path185"
         inkscape:connector-curvature="0"
         style="fill:#4d4d4d" /><path
         class="st3"
         d="m 683.901,455.77 1.573,0 0,-2.406 0.845,0 0,2.406 2.012,0 0,0.725 -2.012,0 0,5.011 c 0,0.863 0.203,1.357 1.015,1.357 0.254,0 0.609,-0.015 0.879,-0.093 l 0,0.679 c -0.287,0.108 -0.693,0.139 -1.048,0.139 -1.082,0 -1.691,-0.493 -1.691,-1.727 l 0,-5.366 -1.573,0 0,-0.725 z"
         id="path187"
         inkscape:connector-curvature="0"
         style="fill:#4d4d4d" /><path
         class="st3"
         d="m 695.855,462.015 c 0,0.678 0.068,1.218 0.118,1.465 l -0.812,0 c -0.068,-0.185 -0.118,-0.524 -0.152,-1.187 -0.287,0.571 -1.031,1.372 -2.773,1.372 -1.961,0 -2.807,-1.157 -2.807,-2.313 0,-1.696 1.437,-2.467 3.974,-2.467 0.71,0 1.268,0 1.606,0 l 0,-0.786 c 0,-0.771 -0.254,-1.804 -2.181,-1.804 -1.708,0 -1.961,0.817 -2.148,1.449 l -0.845,0 c 0.101,-0.848 0.676,-2.159 3.01,-2.159 1.928,0 3.01,0.74 3.01,2.436 l 0,3.994 z m -0.828,-2.468 c -0.321,0 -1.099,0 -1.657,0 -1.877,0 -3.044,0.447 -3.044,1.773 0,0.971 0.761,1.634 1.945,1.634 2.418,0 2.756,-1.465 2.756,-3.13 l 0,-0.277 z"
         id="path189"
         inkscape:connector-curvature="0"
         style="fill:#4d4d4d" /><path
         class="st3"
         d="m 704.868,461.228 c 0,0.756 0.017,1.958 0.017,2.251 l -0.812,0 c -0.034,-0.201 -0.051,-0.709 -0.051,-1.342 -0.355,0.91 -1.218,1.527 -2.722,1.527 -1.217,0 -2.773,-0.432 -2.773,-2.791 l 0,-5.104 0.829,0 0,4.919 c 0,1.126 0.389,2.22 2.063,2.22 1.894,0 2.604,-0.971 2.604,-3.176 l 0,-3.963 0.846,0 0,5.459 z"
         id="path191"
         inkscape:connector-curvature="0"
         style="fill:#4d4d4d" /><path
         class="st3"
         d="m 707.641,457.867 c 0,-1.295 -0.017,-1.85 -0.017,-2.097 l 0.829,0 c 0.017,0.247 0.034,0.74 0.034,1.727 0.49,-1.157 1.573,-1.85 2.942,-1.912 l 0,0.833 c -1.759,0.108 -2.942,1.218 -2.942,3.053 l 0,4.009 -0.845,0 0,-5.613 z"
         id="path193"
         inkscape:connector-curvature="0"
         style="fill:#4d4d4d" /><path
         class="st3"
         d="m 718.632,462.015 c 0,0.678 0.068,1.218 0.118,1.465 l -0.812,0 c -0.068,-0.185 -0.118,-0.524 -0.152,-1.187 -0.287,0.571 -1.032,1.372 -2.773,1.372 -1.961,0 -2.807,-1.157 -2.807,-2.313 0,-1.696 1.437,-2.467 3.974,-2.467 0.71,0 1.268,0 1.606,0 l 0,-0.786 c 0,-0.771 -0.254,-1.804 -2.181,-1.804 -1.708,0 -1.961,0.817 -2.147,1.449 l -0.845,0 c 0.101,-0.848 0.676,-2.159 3.01,-2.159 1.928,0 3.01,0.74 3.01,2.436 l 0,3.994 z m -0.829,-2.468 c -0.321,0 -1.099,0 -1.657,0 -1.877,0 -3.044,0.447 -3.044,1.773 0,0.971 0.761,1.634 1.945,1.634 2.418,0 2.756,-1.465 2.756,-3.13 l 0,-0.277 z"
         id="path195"
         inkscape:connector-curvature="0"
         style="fill:#4d4d4d" /><path
         class="st3"
         d="m 721.422,457.712 c 0,-0.679 0,-1.326 -0.017,-1.943 l 0.829,0 c 0.034,0.247 0.051,1.249 0.034,1.465 0.372,-0.786 1.065,-1.65 2.807,-1.65 1.505,0 2.841,0.771 2.841,2.899 l 0,4.996 -0.845,0 0,-4.873 c 0,-1.372 -0.626,-2.267 -2.097,-2.267 -2.012,0 -2.706,1.527 -2.706,3.207 l 0,3.932 -0.846,0 0,-5.766 z"
         id="path197"
         inkscape:connector-curvature="0"
         style="fill:#4d4d4d" /><path
         class="st3"
         d="m 729.369,455.77 1.573,0 0,-2.406 0.845,0 0,2.406 2.012,0 0,0.725 -2.012,0 0,5.011 c 0,0.863 0.203,1.357 1.014,1.357 0.254,0 0.609,-0.015 0.879,-0.093 l 0,0.679 c -0.287,0.108 -0.693,0.139 -1.048,0.139 -1.082,0 -1.691,-0.493 -1.691,-1.727 l 0,-5.366 -1.573,0 0,-0.725 z"
         id="path199"
         inkscape:connector-curvature="0"
         style="fill:#4d4d4d" /><path
         class="st3"
         d="m 740.19,452.686 3.923,0 c 3.247,0 5.496,2.066 5.496,5.304 0,3.223 -2.198,5.489 -5.513,5.489 l -3.906,0 0,-10.793 z m 0.914,10.022 2.858,0 c 3.128,0 4.667,-2.005 4.667,-4.672 0,-2.375 -1.387,-4.58 -4.667,-4.58 l -2.858,0 0,9.252 z"
         id="path201"
         inkscape:connector-curvature="0"
         style="fill:#4d4d4d" /><path
         class="st3"
         d="m 752.078,452.115 0.845,0 0,1.496 -0.845,0 0,-1.496 z m 0,3.655 0.845,0 0,7.71 -0.845,0 0,-7.71 z"
         id="path203"
         inkscape:connector-curvature="0"
         style="fill:#4d4d4d" /><path
         class="st3"
         d="m 755.882,459.717 c 0.017,1.989 1.116,3.223 2.739,3.223 1.59,0 2.131,-0.817 2.435,-1.449 l 0.862,0 c -0.355,1.018 -1.251,2.174 -3.331,2.174 -2.57,0 -3.568,-2.02 -3.568,-3.978 0,-2.205 1.201,-4.102 3.669,-4.102 2.604,0 3.433,2.051 3.433,3.5 0,0.216 0,0.432 -0.017,0.632 l -6.222,0 z m 5.36,-0.678 c -0.017,-1.527 -0.93,-2.729 -2.587,-2.729 -1.742,0 -2.536,1.11 -2.722,2.729 l 5.309,0 z"
         id="path205"
         inkscape:connector-curvature="0"
         style="fill:#4d4d4d" /><path
         class="st3"
         d="m 770.914,463.479 -3.281,-10.794 0.947,0 c 0.795,2.591 2.587,8.558 2.858,9.822 l 0.017,0 c 0.22,-1.002 2.164,-6.97 2.993,-9.822 l 1.014,0 c 0.778,2.637 2.672,8.974 2.858,9.807 l 0.017,0 c 0.372,-1.527 2.351,-7.232 3.162,-9.807 l 0.93,0 -3.619,10.794 -1.048,0 c -0.778,-2.544 -2.621,-8.789 -2.824,-9.714 l -0.017,0 c -0.304,1.403 -2.131,7.031 -2.976,9.714 l -1.031,0 z"
         id="path207"
         inkscape:connector-curvature="0"
         style="fill:#4d4d4d" /><path
         class="st3"
         d="m 789.058,462.015 c 0,0.678 0.068,1.218 0.118,1.465 l -0.812,0 c -0.068,-0.185 -0.118,-0.524 -0.152,-1.187 -0.287,0.571 -1.032,1.372 -2.773,1.372 -1.961,0 -2.807,-1.157 -2.807,-2.313 0,-1.696 1.437,-2.467 3.974,-2.467 0.71,0 1.268,0 1.606,0 l 0,-0.786 c 0,-0.771 -0.254,-1.804 -2.181,-1.804 -1.708,0 -1.962,0.817 -2.148,1.449 l -0.845,0 c 0.101,-0.848 0.676,-2.159 3.01,-2.159 1.928,0 3.01,0.74 3.01,2.436 l 0,3.994 z m -0.829,-2.468 c -0.321,0 -1.099,0 -1.657,0 -1.877,0 -3.044,0.447 -3.044,1.773 0,0.971 0.761,1.634 1.945,1.634 2.418,0 2.756,-1.465 2.756,-3.13 l 0,-0.277 z"
         id="path209"
         inkscape:connector-curvature="0"
         style="fill:#4d4d4d" /><path
         class="st3"
         d="m 791.847,452.115 0.846,0 0,1.496 -0.846,0 0,-1.496 z m 0,3.655 0.846,0 0,7.71 -0.846,0 0,-7.71 z"
         id="path211"
         inkscape:connector-curvature="0"
         style="fill:#4d4d4d" /><path
         class="st3"
         d="m 801.993,452.115 0,9.144 c 0,0.74 0,1.449 0.017,2.22 l -0.812,0 c -0.034,-0.185 -0.051,-0.91 -0.051,-1.295 -0.423,0.941 -1.37,1.48 -2.841,1.48 -2.198,0 -3.517,-1.634 -3.517,-3.947 0,-2.375 1.437,-4.133 3.737,-4.133 1.691,0 2.367,0.663 2.621,1.157 l 0,-4.626 0.846,0 z m -6.307,7.571 c 0,2.112 1.201,3.254 2.655,3.254 2.232,0 2.841,-1.403 2.841,-3.5 0,-1.989 -0.524,-3.13 -2.689,-3.13 -1.675,-10e-4 -2.807,1.217 -2.807,3.376 z"
         id="path213"
         inkscape:connector-curvature="0"
         style="fill:#4d4d4d" /></g><g
       id="g215"><path
         class="st3"
         d="m 667.483,418.217 c -0.558,1.712 -1.945,3.007 -4.447,3.007 -3.399,0 -5.191,-2.467 -5.191,-5.505 0,-2.914 1.759,-5.567 5.208,-5.567 2.553,0 4.058,1.295 4.447,3.099 l -0.913,0 c -0.541,-1.403 -1.539,-2.328 -3.585,-2.328 -2.942,0 -4.177,2.452 -4.177,4.78 0,2.313 1.218,4.749 4.244,4.749 1.928,0 2.908,-0.91 3.5,-2.236 l 0.914,0 z"
         id="path217"
         inkscape:connector-curvature="0"
         style="fill:#4d4d4d" /><path
         class="st3"
         d="m 669.68,421.1 0,-11.364 0.846,0 0,11.364 -0.846,0 z"
         id="path219"
         inkscape:connector-curvature="0"
         style="fill:#4d4d4d" /><path
         class="st3"
         d="m 680.147,417.23 c 0,2.143 -1.302,4.055 -3.822,4.055 -2.283,0 -3.703,-1.712 -3.703,-4.04 0,-2.205 1.336,-4.04 3.788,-4.04 2.249,0 3.737,1.604 3.737,4.025 z m -6.628,0.015 c 0,1.835 1.082,3.315 2.875,3.315 1.826,0 2.858,-1.372 2.858,-3.315 0,-1.82 -1.015,-3.315 -2.892,-3.315 -1.928,0 -2.841,1.465 -2.841,3.315 z"
         id="path221"
         inkscape:connector-curvature="0"
         style="fill:#4d4d4d" /><path
         class="st3"
         d="m 688.568,418.849 c 0,0.756 0.017,1.958 0.017,2.251 l -0.812,0 c -0.034,-0.201 -0.051,-0.709 -0.051,-1.341 -0.355,0.91 -1.217,1.527 -2.722,1.527 -1.217,0 -2.773,-0.432 -2.773,-2.791 l 0,-5.104 0.829,0 0,4.919 c 0,1.125 0.389,2.22 2.063,2.22 1.894,0 2.604,-0.971 2.604,-3.176 l 0,-3.963 0.846,0 0,5.458 z"
         id="path223"
         inkscape:connector-curvature="0"
         style="fill:#4d4d4d" /><path
         class="st3"
         d="m 697.868,409.736 0,9.144 c 0,0.74 0,1.449 0.017,2.22 l -0.812,0 c -0.034,-0.185 -0.051,-0.91 -0.051,-1.295 -0.423,0.941 -1.37,1.48 -2.841,1.48 -2.198,0 -3.517,-1.634 -3.517,-3.947 0,-2.375 1.437,-4.133 3.737,-4.133 1.691,0 2.367,0.663 2.621,1.157 l 0,-4.626 0.846,0 z m -6.308,7.571 c 0,2.112 1.201,3.254 2.655,3.254 2.232,0 2.841,-1.403 2.841,-3.5 0,-1.989 -0.524,-3.13 -2.689,-3.13 -1.674,-10e-4 -2.807,1.217 -2.807,3.376 z"
         id="path225"
         inkscape:connector-curvature="0"
         style="fill:#4d4d4d" /><path
         class="st3"
         d="m 700.556,418.972 c 0.287,1.002 1.065,1.604 2.401,1.604 1.505,0 2.114,-0.632 2.114,-1.496 0,-0.879 -0.406,-1.311 -2.3,-1.727 -2.181,-0.478 -2.722,-1.079 -2.722,-2.097 0,-1.064 0.879,-2.051 2.79,-2.051 1.911,0 2.824,1.064 2.959,2.159 l -0.845,0 c -0.152,-0.648 -0.71,-1.449 -2.148,-1.449 -1.471,0 -1.894,0.663 -1.894,1.28 0,0.709 0.406,1.064 2.08,1.434 2.384,0.524 2.976,1.234 2.976,2.39 0,1.403 -1.251,2.267 -3.027,2.267 -1.928,0 -3.01,-0.925 -3.247,-2.313 l 0.863,0 z"
         id="path227"
         inkscape:connector-curvature="0"
         style="fill:#4d4d4d" /></g><g
       id="g229"><path
         class="st3"
         d="m 658.555,495.065 0.913,0 0,10.023 6.358,0 -0.169,0.771 -7.102,0 0,-10.794 z"
         id="path231"
         inkscape:connector-curvature="0"
         style="fill:#4d4d4d" /><path
         class="st3"
         d="m 673.604,503.608 c 0,0.756 0.017,1.958 0.017,2.251 l -0.812,0 c -0.034,-0.201 -0.051,-0.709 -0.051,-1.341 -0.355,0.91 -1.217,1.527 -2.722,1.527 -1.217,0 -2.773,-0.432 -2.773,-2.791 l 0,-5.104 0.829,0 0,4.919 c 0,1.126 0.389,2.22 2.063,2.22 1.894,0 2.604,-0.971 2.604,-3.176 l 0,-3.963 0.846,0 0,5.458 z"
         id="path233"
         inkscape:connector-curvature="0"
         style="fill:#4d4d4d" /><path
         class="st3"
         d="m 676.377,494.494 0.846,0 0,1.496 -0.846,0 0,-1.496 z m 0,3.655 0.846,0 0,7.71 -0.846,0 0,-7.71 z"
         id="path235"
         inkscape:connector-curvature="0"
         style="fill:#4d4d4d" /><path
         class="st3"
         d="m 686.454,505.334 c 0,2.467 -1.201,3.762 -3.652,3.762 -2.198,0 -3.111,-1.125 -3.314,-2.298 l 0.862,0 c 0.304,1.064 1.268,1.573 2.486,1.573 2.198,0 2.807,-1.295 2.807,-3.254 l 0,-0.802 c -0.457,1.002 -1.285,1.542 -2.824,1.542 -1.978,0 -3.5,-1.465 -3.5,-3.855 0,-2.591 1.623,-4.04 3.619,-4.04 1.725,0 2.469,0.74 2.706,1.357 0.017,-0.447 0.034,-0.987 0.051,-1.172 l 0.795,0 c 0,0.278 -0.034,1.496 -0.034,2.236 l 0,4.951 z m -6.239,-3.361 c 0,1.835 1.065,3.161 2.689,3.161 2.114,0 2.756,-1.28 2.756,-3.284 0,-2.035 -0.676,-3.161 -2.706,-3.161 -1.944,0 -2.739,1.526 -2.739,3.284 z"
         id="path237"
         inkscape:connector-curvature="0"
         style="fill:#4d4d4d" /><path
         class="st3"
         d="m 689.227,494.494 0.846,0 0,1.496 -0.846,0 0,-1.496 z m 0,3.655 0.846,0 0,7.71 -0.846,0 0,-7.71 z"
         id="path239"
         inkscape:connector-curvature="0"
         style="fill:#4d4d4d" /><path
         class="st3"
         d="m 698.527,504.394 c 0,0.678 0.068,1.218 0.118,1.465 l -0.812,0 c -0.068,-0.185 -0.118,-0.524 -0.152,-1.187 -0.287,0.571 -1.031,1.372 -2.773,1.372 -1.961,0 -2.807,-1.157 -2.807,-2.313 0,-1.696 1.437,-2.467 3.974,-2.467 0.71,0 1.268,0 1.606,0 l 0,-0.786 c 0,-0.771 -0.254,-1.804 -2.181,-1.804 -1.708,0 -1.961,0.817 -2.148,1.449 l -0.845,0 c 0.102,-0.848 0.676,-2.159 3.01,-2.159 1.928,0 3.01,0.74 3.01,2.436 l 0,3.994 z m -0.828,-2.467 c -0.321,0 -1.099,0 -1.657,0 -1.877,0 -3.044,0.447 -3.044,1.773 0,0.971 0.761,1.634 1.945,1.634 2.418,0 2.756,-1.465 2.756,-3.13 l 0,-0.277 z"
         id="path241"
         inkscape:connector-curvature="0"
         style="fill:#4d4d4d" /></g><g
       id="g243"><path
         class="st3"
         d="m 657.422,335.647 7.677,-9.329 -7.271,0 0,-0.771 8.353,0 0,0.725 -7.626,9.298 7.778,0 -0.152,0.771 -8.759,0 0,-0.694 z"
         id="path245"
         inkscape:connector-curvature="0"
         style="fill:#4d4d4d" /><path
         class="st3"
         d="m 668.328,332.579 c 0.017,1.989 1.116,3.223 2.739,3.223 1.589,0 2.131,-0.817 2.435,-1.449 l 0.862,0 c -0.355,1.018 -1.251,2.174 -3.331,2.174 -2.57,0 -3.568,-2.02 -3.568,-3.978 0,-2.205 1.201,-4.102 3.669,-4.102 2.604,0 3.433,2.051 3.433,3.5 0,0.216 0,0.432 -0.017,0.632 l -6.222,0 z m 5.36,-0.679 c -0.017,-1.527 -0.93,-2.729 -2.587,-2.729 -1.742,0 -2.536,1.11 -2.722,2.729 l 5.309,0 z"
         id="path247"
         inkscape:connector-curvature="0"
         style="fill:#4d4d4d" /><path
         class="st3"
         d="m 682.954,334.09 c 0,0.756 0.017,1.958 0.017,2.251 l -0.812,0 c -0.034,-0.201 -0.051,-0.709 -0.051,-1.342 -0.355,0.91 -1.217,1.527 -2.722,1.527 -1.217,0 -2.773,-0.432 -2.773,-2.791 l 0,-5.104 0.829,0 0,4.919 c 0,1.126 0.389,2.22 2.063,2.22 1.894,0 2.604,-0.971 2.604,-3.176 l 0,-3.963 0.845,0 0,5.459 z"
         id="path249"
         inkscape:connector-curvature="0"
         style="fill:#4d4d4d" /><path
         class="st3"
         d="m 692.187,335.817 c 0,2.467 -1.201,3.762 -3.653,3.762 -2.198,0 -3.111,-1.126 -3.314,-2.298 l 0.862,0 c 0.304,1.064 1.268,1.573 2.486,1.573 2.198,0 2.807,-1.295 2.807,-3.254 l 0,-0.802 c -0.457,1.002 -1.285,1.542 -2.824,1.542 -1.978,0 -3.5,-1.465 -3.5,-3.855 0,-2.591 1.623,-4.04 3.619,-4.04 1.725,0 2.469,0.74 2.706,1.357 0.017,-0.447 0.034,-0.987 0.051,-1.172 l 0.795,0 c 0,0.278 -0.034,1.496 -0.034,2.236 l 0,4.951 z m -6.24,-3.361 c 0,1.835 1.065,3.161 2.689,3.161 2.114,0 2.756,-1.28 2.756,-3.284 0,-2.035 -0.676,-3.161 -2.706,-3.161 -1.944,-0.001 -2.739,1.526 -2.739,3.284 z"
         id="path251"
         inkscape:connector-curvature="0"
         style="fill:#4d4d4d" /><path
         class="st3"
         d="m 695.805,324.977 0,4.95 c 0.474,-0.802 1.302,-1.48 2.79,-1.48 1.201,0 2.858,0.555 2.858,2.991 l 0,4.903 -0.845,0 0,-4.749 c 0,-1.527 -0.761,-2.39 -2.164,-2.39 -1.674,0 -2.638,0.941 -2.638,2.837 l 0,4.302 -0.845,0 0,-11.364 0.844,0 z"
         id="path253"
         inkscape:connector-curvature="0"
         style="fill:#4d4d4d" /><path
         class="st3"
         d="m 709.924,334.876 c 0,0.678 0.068,1.218 0.118,1.465 l -0.812,0 c -0.068,-0.185 -0.118,-0.524 -0.152,-1.187 -0.287,0.571 -1.031,1.372 -2.773,1.372 -1.961,0 -2.807,-1.157 -2.807,-2.313 0,-1.696 1.437,-2.467 3.974,-2.467 0.71,0 1.268,0 1.606,0 l 0,-0.786 c 0,-0.771 -0.254,-1.804 -2.181,-1.804 -1.708,0 -1.961,0.817 -2.147,1.449 l -0.845,0 c 0.102,-0.848 0.676,-2.159 3.01,-2.159 1.928,0 3.01,0.74 3.01,2.436 l 0,3.994 z m -0.828,-2.467 c -0.321,0 -1.099,0 -1.657,0 -1.877,0 -3.044,0.447 -3.044,1.773 0,0.971 0.761,1.634 1.945,1.634 2.418,0 2.756,-1.465 2.756,-3.13 l 0,-0.277 z"
         id="path255"
         inkscape:connector-curvature="0"
         style="fill:#4d4d4d" /><path
         class="st3"
         d="m 718.937,334.09 c 0,0.756 0.017,1.958 0.017,2.251 l -0.812,0 c -0.034,-0.201 -0.051,-0.709 -0.051,-1.342 -0.355,0.91 -1.217,1.527 -2.722,1.527 -1.218,0 -2.773,-0.432 -2.773,-2.791 l 0,-5.104 0.829,0 0,4.919 c 0,1.126 0.389,2.22 2.063,2.22 1.894,0 2.604,-0.971 2.604,-3.176 l 0,-3.963 0.846,0 0,5.459 z"
         id="path257"
         inkscape:connector-curvature="0"
         style="fill:#4d4d4d" /><path
         class="st3"
         d="m 721.608,334.213 c 0.288,1.002 1.065,1.604 2.401,1.604 1.505,0 2.114,-0.632 2.114,-1.496 0,-0.879 -0.406,-1.311 -2.3,-1.727 -2.181,-0.478 -2.722,-1.079 -2.722,-2.097 0,-1.064 0.879,-2.051 2.79,-2.051 1.911,0 2.824,1.064 2.959,2.159 l -0.846,0 c -0.152,-0.648 -0.71,-1.449 -2.147,-1.449 -1.471,0 -1.894,0.663 -1.894,1.28 0,0.709 0.406,1.064 2.08,1.434 2.384,0.524 2.976,1.234 2.976,2.39 0,1.403 -1.251,2.267 -3.027,2.267 -1.928,0 -3.01,-0.925 -3.247,-2.313 l 0.863,0 z"
         id="path259"
         inkscape:connector-curvature="0"
         style="fill:#4d4d4d" /><path
         class="st3"
         d="m 729.826,332.61 c 0.778,-0.756 3.145,-2.945 4.278,-3.978 l 1.082,0 -3.348,3.068 3.771,4.641 -1.048,0 -3.331,-4.148 -1.404,1.234 0,2.914 -0.846,0 0,-11.364 0.846,0 0,7.633 z"
         id="path261"
         inkscape:connector-curvature="0"
         style="fill:#4d4d4d" /><path
         class="st3"
         d="m 736.979,332.579 c 0.017,1.989 1.116,3.223 2.739,3.223 1.589,0 2.13,-0.817 2.435,-1.449 l 0.862,0 c -0.355,1.018 -1.251,2.174 -3.331,2.174 -2.57,0 -3.568,-2.02 -3.568,-3.978 0,-2.205 1.201,-4.102 3.669,-4.102 2.604,0 3.433,2.051 3.433,3.5 0,0.216 0,0.432 -0.017,0.632 l -6.222,0 z m 5.36,-0.679 c -0.017,-1.527 -0.93,-2.729 -2.587,-2.729 -1.742,0 -2.536,1.11 -2.722,2.729 l 5.309,0 z"
         id="path263"
         inkscape:connector-curvature="0"
         style="fill:#4d4d4d" /><path
         class="st3"
         d="m 745.348,336.341 0,-11.364 0.845,0 0,11.364 -0.845,0 z"
         id="path265"
         inkscape:connector-curvature="0"
         style="fill:#4d4d4d" /><path
         class="st3"
         d="m 748.967,336.341 0,-11.364 0.846,0 0,11.364 -0.846,0 z"
         id="path267"
         inkscape:connector-curvature="0"
         style="fill:#4d4d4d" /><path
         class="st3"
         d="m 752.771,332.579 c 0.017,1.989 1.116,3.223 2.739,3.223 1.59,0 2.131,-0.817 2.435,-1.449 l 0.862,0 c -0.355,1.018 -1.251,2.174 -3.331,2.174 -2.57,0 -3.568,-2.02 -3.568,-3.978 0,-2.205 1.201,-4.102 3.669,-4.102 2.604,0 3.433,2.051 3.433,3.5 0,0.216 0,0.432 -0.017,0.632 l -6.222,0 z m 5.361,-0.679 c -0.017,-1.527 -0.93,-2.729 -2.587,-2.729 -1.742,0 -2.536,1.11 -2.722,2.729 l 5.309,0 z"
         id="path269"
         inkscape:connector-curvature="0"
         style="fill:#4d4d4d" /><path
         class="st3"
         d="m 761.074,330.728 c 0,-1.295 -0.017,-1.85 -0.017,-2.097 l 0.829,0 c 0.017,0.247 0.034,0.74 0.034,1.727 0.49,-1.157 1.572,-1.85 2.942,-1.912 l 0,0.833 c -1.759,0.108 -2.942,1.218 -2.942,3.053 l 0,4.009 -0.846,0 0,-5.613 z"
         id="path271"
         inkscape:connector-curvature="0"
         style="fill:#4d4d4d" /></g><g
       id="g273"><g
         id="g275"><path
           class="st3"
           d="m 658.639,354.632 c 0.355,1.434 1.404,2.282 3.348,2.282 2.164,0 2.993,-0.987 2.993,-2.159 0,-1.218 -0.592,-1.974 -3.196,-2.56 -2.503,-0.571 -3.585,-1.311 -3.585,-2.868 0,-1.419 1.133,-2.745 3.669,-2.745 2.604,0 3.703,1.449 3.855,2.76 l -0.947,0 c -0.271,-1.156 -1.099,-1.989 -2.959,-1.989 -1.708,0 -2.638,0.725 -2.638,1.927 0,1.187 0.778,1.65 2.959,2.143 3.331,0.756 3.822,1.974 3.822,3.269 0,1.588 -1.268,2.961 -4.008,2.961 -2.959,0 -4.041,-1.573 -4.261,-3.022 l 0.948,0 z"
           id="path277"
           inkscape:connector-curvature="0"
           style="fill:#4d4d4d" /><path
           class="st3"
           d="m 668.852,356.39 0,4.225 -0.845,0 0,-8.897 c 0,-0.632 0,-1.311 -0.017,-1.897 l 0.829,0 c 0.034,0.293 0.034,0.755 0.034,1.388 0.524,-0.925 1.454,-1.573 2.976,-1.573 1.995,0 3.382,1.527 3.382,3.84 0,2.776 -1.623,4.24 -3.669,4.24 -1.489,0 -2.267,-0.601 -2.69,-1.326 z m 5.462,-2.884 c 0,-1.789 -0.947,-3.13 -2.621,-3.13 -2.046,0 -2.892,1.172 -2.892,3.269 0,2.066 0.659,3.346 2.773,3.346 1.759,0 2.74,-1.357 2.74,-3.485 z"
           id="path279"
           inkscape:connector-curvature="0"
           style="fill:#4d4d4d" /><path
           class="st3"
           d="m 677.323,351.918 c 0,-1.295 -0.017,-1.85 -0.017,-2.097 l 0.829,0 c 0.017,0.247 0.034,0.74 0.034,1.727 0.49,-1.157 1.573,-1.85 2.942,-1.912 l 0,0.833 c -1.759,0.108 -2.942,1.218 -2.942,3.053 l 0,4.009 -0.846,0 0,-5.613 z"
           id="path281"
           inkscape:connector-curvature="0"
           style="fill:#4d4d4d" /><path
           class="st3"
           d="m 688.94,355.28 c 0,0.756 0.017,1.958 0.017,2.251 l -0.812,0 c -0.034,-0.201 -0.051,-0.709 -0.051,-1.342 -0.355,0.91 -1.217,1.527 -2.722,1.527 -1.217,0 -2.773,-0.432 -2.773,-2.791 l 0,-5.104 0.829,0 0,4.919 c 0,1.126 0.389,2.22 2.063,2.22 1.894,0 2.604,-0.971 2.604,-3.176 l 0,-3.963 0.845,0 0,5.459 z"
           id="path283"
           inkscape:connector-curvature="0"
           style="fill:#4d4d4d" /><path
           class="st3"
           d="m 691.713,351.764 c 0,-0.679 0,-1.326 -0.017,-1.943 l 0.829,0 c 0.034,0.247 0.051,1.249 0.034,1.465 0.372,-0.786 1.065,-1.65 2.807,-1.65 1.505,0 2.841,0.771 2.841,2.899 l 0,4.996 -0.845,0 0,-4.873 c 0,-1.372 -0.626,-2.267 -2.097,-2.267 -2.012,0 -2.706,1.527 -2.706,3.207 l 0,3.932 -0.845,0 0,-5.766 z"
           id="path285"
           inkscape:connector-curvature="0"
           style="fill:#4d4d4d" /><path
           class="st3"
           d="m 707.439,357.007 c 0,2.467 -1.201,3.762 -3.653,3.762 -2.198,0 -3.111,-1.126 -3.314,-2.298 l 0.862,0 c 0.304,1.064 1.268,1.573 2.486,1.573 2.198,0 2.807,-1.295 2.807,-3.254 l 0,-0.802 c -0.457,1.002 -1.285,1.542 -2.824,1.542 -1.978,0 -3.5,-1.465 -3.5,-3.855 0,-2.591 1.623,-4.04 3.619,-4.04 1.725,0 2.469,0.74 2.706,1.357 0.017,-0.447 0.034,-0.987 0.051,-1.172 l 0.795,0 c 0,0.278 -0.034,1.496 -0.034,2.236 l 0,4.951 z m -6.24,-3.362 c 0,1.835 1.065,3.161 2.689,3.161 2.114,0 2.756,-1.28 2.756,-3.284 0,-2.035 -0.676,-3.161 -2.706,-3.161 -1.944,0 -2.739,1.526 -2.739,3.284 z"
           id="path287"
           inkscape:connector-curvature="0"
           style="fill:#4d4d4d" /><path
           class="st3"
           d="m 710.211,357.531 0,-11.364 0.845,0 0,11.364 -0.845,0 z"
           id="path289"
           inkscape:connector-curvature="0"
           style="fill:#4d4d4d" /><path
           class="st3"
           d="m 713.83,346.167 0.845,0 0,1.496 -0.845,0 0,-1.496 z m 0,3.654 0.845,0 0,7.71 -0.845,0 0,-7.71 z"
           id="path291"
           inkscape:connector-curvature="0"
           style="fill:#4d4d4d" /></g><g
         id="g293"><ellipse
           class="st3"
           cx="684.14697"
           cy="347.76801"
           rx="0.44299999"
           ry="0.40400001"
           id="ellipse295"
           style="fill:#4d4d4d" /></g><g
         id="g297"><ellipse
           class="st3"
           cx="686.914"
           cy="347.76801"
           rx="0.44299999"
           ry="0.40400001"
           id="ellipse299"
           style="fill:#4d4d4d" /></g></g><g
       id="g301"><g
         id="g303"><path
           class="st3"
           d="m 668.802,437.526 c 0,-2.113 0.017,-4.133 0.068,-5.212 l -0.051,0 c -0.474,1.449 -2.875,6.769 -4.38,10.177 l -0.896,0 c -1.133,-2.637 -3.619,-8.558 -4.16,-10.192 l -0.034,0 c 0.085,1.234 0.118,3.747 0.118,5.597 l 0,4.595 -0.913,0 0,-10.794 1.37,0 c 1.623,3.701 3.669,8.542 4.109,9.761 l 0.034,0 c 0.271,-0.786 2.638,-6.168 4.295,-9.761 l 1.353,0 0,10.794 -0.913,0 0,-4.965 z"
           id="path305"
           inkscape:connector-curvature="0"
           style="fill:#4d4d4d" /><path
           class="st3"
           d="m 679.539,438.621 c 0,2.143 -1.302,4.055 -3.822,4.055 -2.283,0 -3.703,-1.712 -3.703,-4.04 0,-2.205 1.336,-4.04 3.788,-4.04 2.249,10e-4 3.737,1.604 3.737,4.025 z m -6.629,0.016 c 0,1.835 1.082,3.315 2.875,3.315 1.826,0 2.858,-1.372 2.858,-3.315 0,-1.82 -1.015,-3.315 -2.891,-3.315 -1.929,-10e-4 -2.842,1.464 -2.842,3.315 z"
           id="path307"
           inkscape:connector-curvature="0"
           style="fill:#4d4d4d" /><path
           class="st3"
           d="m 681.517,434.782 c 1.37,3.531 2.317,5.937 2.638,6.923 l 0.017,0 c 0.186,-0.571 1.133,-2.868 2.773,-6.923 l 0.896,0 -3.196,7.71 -1.015,0 -3.01,-7.71 0.897,0 z"
           id="path309"
           inkscape:connector-curvature="0"
           style="fill:#4d4d4d" /><path
           class="st3"
           d="m 689.684,438.729 c 0.017,1.989 1.116,3.223 2.739,3.223 1.589,0 2.131,-0.817 2.435,-1.449 l 0.862,0 c -0.355,1.018 -1.251,2.174 -3.331,2.174 -2.57,0 -3.568,-2.02 -3.568,-3.978 0,-2.205 1.201,-4.102 3.669,-4.102 2.604,0 3.433,2.051 3.433,3.5 0,0.216 0,0.432 -0.017,0.632 l -6.222,0 z m 5.36,-0.678 c -0.017,-1.527 -0.93,-2.729 -2.587,-2.729 -1.742,0 -2.536,1.11 -2.722,2.729 l 5.309,0 z"
           id="path311"
           inkscape:connector-curvature="0"
           style="fill:#4d4d4d" /><path
           class="st3"
           d="m 697.986,436.725 c 0,-0.679 0,-1.326 -0.017,-1.943 l 0.829,0 c 0.034,0.247 0.051,1.249 0.034,1.465 0.372,-0.786 1.065,-1.65 2.807,-1.65 1.505,0 2.841,0.771 2.841,2.899 l 0,4.996 -0.845,0 0,-4.873 c 0,-1.372 -0.626,-2.267 -2.097,-2.267 -2.012,0 -2.705,1.527 -2.705,3.207 l 0,3.932 -0.846,0 0,-5.766 z"
           id="path313"
           inkscape:connector-curvature="0"
           style="fill:#4d4d4d" /><path
           class="st3"
           d="m 708.098,441.35 0,4.225 -0.845,0 0,-8.897 c 0,-0.632 0,-1.311 -0.017,-1.897 l 0.829,0 c 0.034,0.293 0.034,0.755 0.034,1.388 0.524,-0.925 1.454,-1.573 2.976,-1.573 1.995,0 3.382,1.527 3.382,3.84 0,2.776 -1.623,4.24 -3.669,4.24 -1.49,0.001 -2.267,-0.601 -2.69,-1.326 z m 5.462,-2.883 c 0,-1.789 -0.947,-3.13 -2.621,-3.13 -2.046,0 -2.892,1.172 -2.892,3.269 0,2.066 0.66,3.346 2.773,3.346 1.759,0 2.74,-1.357 2.74,-3.485 z"
           id="path315"
           inkscape:connector-curvature="0"
           style="fill:#4d4d4d" /><path
           class="st3"
           d="m 716.637,431.127 0.846,0 0,1.496 -0.846,0 0,-1.496 z m 0,3.655 0.846,0 0,7.71 -0.846,0 0,-7.71 z"
           id="path317"
           inkscape:connector-curvature="0"
           style="fill:#4d4d4d" /><path
           class="st3"
           d="m 726.478,440.225 c -0.406,1.357 -1.387,2.452 -3.281,2.452 -2.114,0 -3.619,-1.434 -3.619,-4.009 0,-2.113 1.234,-4.071 3.72,-4.071 2.147,0 3.027,1.388 3.179,2.467 l -0.862,0 c -0.254,-0.894 -0.896,-1.742 -2.333,-1.742 -1.792,0 -2.807,1.388 -2.807,3.315 0,1.835 0.947,3.315 2.722,3.315 1.234,0 1.978,-0.571 2.418,-1.727 l 0.863,0 z"
           id="path319"
           inkscape:connector-curvature="0"
           style="fill:#4d4d4d" /><path
           class="st3"
           d="m 729.285,438.76 c 0.778,-0.756 3.145,-2.945 4.278,-3.978 l 1.082,0 -3.348,3.068 3.771,4.641 -1.048,0 -3.331,-4.148 -1.404,1.234 0,2.914 -0.845,0 0,-11.364 0.845,0 0,7.633 z"
           id="path321"
           inkscape:connector-curvature="0"
           style="fill:#4d4d4d" /><path
           class="st3"
           d="m 741.036,431.698 0.913,0 0,4.703 7.102,0 0,-4.703 0.913,0 0,10.794 -0.913,0 0,-5.32 -7.102,0 0,5.32 -0.913,0 0,-10.794 z"
           id="path323"
           inkscape:connector-curvature="0"
           style="fill:#4d4d4d" /><path
           class="st3"
           d="m 759.856,438.621 c 0,2.143 -1.302,4.055 -3.822,4.055 -2.283,0 -3.703,-1.712 -3.703,-4.04 0,-2.205 1.336,-4.04 3.788,-4.04 2.249,10e-4 3.737,1.604 3.737,4.025 z m -6.628,0.016 c 0,1.835 1.082,3.315 2.875,3.315 1.826,0 2.858,-1.372 2.858,-3.315 0,-1.82 -1.015,-3.315 -2.891,-3.315 -1.929,-10e-4 -2.842,1.464 -2.842,3.315 z"
           id="path325"
           inkscape:connector-curvature="0"
           style="fill:#4d4d4d" /><path
           class="st3"
           d="m 760.684,434.782 1.573,0 0,-2.406 0.845,0 0,2.406 2.012,0 0,0.725 -2.012,0 0,5.011 c 0,0.863 0.203,1.357 1.015,1.357 0.254,0 0.609,-0.015 0.879,-0.093 l 0,0.679 c -0.288,0.108 -0.693,0.139 -1.048,0.139 -1.082,0 -1.691,-0.493 -1.691,-1.727 l 0,-5.366 -1.573,0 0,-0.725 z"
           id="path327"
           inkscape:connector-curvature="0"
           style="fill:#4d4d4d" /><path
           class="st3"
           d="m 766.924,438.729 c 0.017,1.989 1.116,3.223 2.739,3.223 1.59,0 2.131,-0.817 2.435,-1.449 l 0.862,0 c -0.355,1.018 -1.251,2.174 -3.331,2.174 -2.57,0 -3.568,-2.02 -3.568,-3.978 0,-2.205 1.201,-4.102 3.669,-4.102 2.604,0 3.433,2.051 3.433,3.5 0,0.216 0,0.432 -0.017,0.632 l -6.222,0 z m 5.36,-0.678 c -0.017,-1.527 -0.93,-2.729 -2.587,-2.729 -1.742,0 -2.536,1.11 -2.722,2.729 l 5.309,0 z"
           id="path329"
           inkscape:connector-curvature="0"
           style="fill:#4d4d4d" /><path
           class="st3"
           d="m 775.294,442.492 0,-11.364 0.846,0 0,11.364 -0.846,0 z"
           id="path331"
           inkscape:connector-curvature="0"
           style="fill:#4d4d4d" /></g><g
         id="g333"><ellipse
           class="st3"
           cx="674.29901"
           cy="432.92999"
           rx="0.44299999"
           ry="0.40400001"
           id="ellipse335"
           style="fill:#4d4d4d" /></g><g
         id="g337"><ellipse
           class="st3"
           cx="677.06598"
           cy="432.92999"
           rx="0.44299999"
           ry="0.40400001"
           id="ellipse339"
           style="fill:#4d4d4d" /></g></g><g
       id="g341"><g
         id="g343"><path
           class="st3"
           d="m 659.484,479.627 0,5.042 -0.93,0 0,-10.794 4.244,0 c 2.333,0 3.568,1.141 3.568,2.837 0,1.372 -0.896,2.267 -2.215,2.529 1.217,0.262 2.029,0.987 2.029,2.822 l 0,0.416 c 0,0.756 -0.068,1.773 0.152,2.19 l -0.93,0 c -0.22,-0.463 -0.169,-1.326 -0.169,-2.251 l 0,-0.277 c 0,-1.773 -0.575,-2.514 -2.841,-2.514 l -2.908,0 z m 0,-0.771 2.858,0 c 2.08,0 3.044,-0.709 3.044,-2.128 0,-1.326 -0.947,-2.082 -2.79,-2.082 l -3.111,0 0,4.21 z"
           id="path345"
           inkscape:connector-curvature="0"
           style="fill:#4d4d4d" /><path
           class="st3"
           d="m 669.207,480.907 c 0.017,1.989 1.116,3.223 2.739,3.223 1.59,0 2.131,-0.817 2.435,-1.449 l 0.862,0 c -0.355,1.018 -1.251,2.174 -3.331,2.174 -2.57,0 -3.568,-2.02 -3.568,-3.978 0,-2.205 1.201,-4.102 3.669,-4.102 2.604,0 3.433,2.051 3.433,3.5 0,0.216 0,0.432 -0.017,0.632 l -6.222,0 z m 5.36,-0.679 c -0.017,-1.527 -0.93,-2.729 -2.587,-2.729 -1.742,0 -2.536,1.11 -2.722,2.729 l 5.309,0 z"
           id="path347"
           inkscape:connector-curvature="0"
           style="fill:#4d4d4d" /><path
           class="st3"
           d="m 677.712,482.541 c 0.287,1.002 1.065,1.604 2.401,1.604 1.505,0 2.114,-0.632 2.114,-1.496 0,-0.879 -0.406,-1.311 -2.3,-1.727 -2.181,-0.478 -2.722,-1.079 -2.722,-2.097 0,-1.064 0.879,-2.051 2.79,-2.051 1.911,0 2.824,1.064 2.959,2.159 l -0.846,0 c -0.152,-0.648 -0.71,-1.449 -2.148,-1.449 -1.471,0 -1.894,0.663 -1.894,1.28 0,0.709 0.406,1.064 2.08,1.434 2.384,0.524 2.976,1.234 2.976,2.39 0,1.403 -1.251,2.267 -3.027,2.267 -1.928,0 -3.01,-0.925 -3.247,-2.313 l 0.864,0 z"
           id="path349"
           inkscape:connector-curvature="0"
           style="fill:#4d4d4d" /><path
           class="st3"
           d="m 683.901,476.959 1.573,0 0,-2.406 0.845,0 0,2.406 2.012,0 0,0.725 -2.012,0 0,5.011 c 0,0.863 0.203,1.357 1.015,1.357 0.254,0 0.609,-0.015 0.879,-0.093 l 0,0.679 c -0.287,0.108 -0.693,0.139 -1.048,0.139 -1.082,0 -1.691,-0.493 -1.691,-1.727 l 0,-5.366 -1.573,0 0,-0.725 z"
           id="path351"
           inkscape:connector-curvature="0"
           style="fill:#4d4d4d" /><path
           class="st3"
           d="m 695.855,483.204 c 0,0.678 0.068,1.218 0.118,1.465 l -0.812,0 c -0.068,-0.185 -0.118,-0.524 -0.152,-1.187 -0.287,0.571 -1.031,1.372 -2.773,1.372 -1.961,0 -2.807,-1.157 -2.807,-2.313 0,-1.696 1.437,-2.467 3.974,-2.467 0.71,0 1.268,0 1.606,0 l 0,-0.786 c 0,-0.771 -0.254,-1.804 -2.181,-1.804 -1.708,0 -1.961,0.817 -2.148,1.449 l -0.845,0 c 0.101,-0.848 0.676,-2.159 3.01,-2.159 1.928,0 3.01,0.74 3.01,2.436 l 0,3.994 z m -0.828,-2.467 c -0.321,0 -1.099,0 -1.657,0 -1.877,0 -3.044,0.447 -3.044,1.773 0,0.971 0.761,1.634 1.945,1.634 2.418,0 2.756,-1.465 2.756,-3.13 l 0,-0.277 z"
           id="path353"
           inkscape:connector-curvature="0"
           style="fill:#4d4d4d" /><path
           class="st3"
           d="m 704.868,482.418 c 0,0.756 0.017,1.958 0.017,2.251 l -0.812,0 c -0.034,-0.201 -0.051,-0.709 -0.051,-1.342 -0.355,0.91 -1.218,1.527 -2.722,1.527 -1.217,0 -2.773,-0.432 -2.773,-2.791 l 0,-5.104 0.829,0 0,4.919 c 0,1.126 0.389,2.22 2.063,2.22 1.894,0 2.604,-0.971 2.604,-3.176 l 0,-3.963 0.846,0 0,5.459 z"
           id="path355"
           inkscape:connector-curvature="0"
           style="fill:#4d4d4d" /><path
           class="st3"
           d="m 707.641,479.056 c 0,-1.295 -0.017,-1.85 -0.017,-2.097 l 0.829,0 c 0.017,0.247 0.034,0.74 0.034,1.727 0.49,-1.157 1.573,-1.85 2.942,-1.912 l 0,0.833 c -1.759,0.108 -2.942,1.218 -2.942,3.053 l 0,4.009 -0.845,0 0,-5.613 z"
           id="path357"
           inkscape:connector-curvature="0"
           style="fill:#4d4d4d" /><path
           class="st3"
           d="m 718.632,483.204 c 0,0.678 0.068,1.218 0.118,1.465 l -0.812,0 c -0.068,-0.185 -0.118,-0.524 -0.152,-1.187 -0.287,0.571 -1.032,1.372 -2.773,1.372 -1.961,0 -2.807,-1.157 -2.807,-2.313 0,-1.696 1.437,-2.467 3.974,-2.467 0.71,0 1.268,0 1.606,0 l 0,-0.786 c 0,-0.771 -0.254,-1.804 -2.181,-1.804 -1.708,0 -1.961,0.817 -2.147,1.449 l -0.845,0 c 0.101,-0.848 0.676,-2.159 3.01,-2.159 1.928,0 3.01,0.74 3.01,2.436 l 0,3.994 z m -0.829,-2.467 c -0.321,0 -1.099,0 -1.657,0 -1.877,0 -3.044,0.447 -3.044,1.773 0,0.971 0.761,1.634 1.945,1.634 2.418,0 2.756,-1.465 2.756,-3.13 l 0,-0.277 z"
           id="path359"
           inkscape:connector-curvature="0"
           style="fill:#4d4d4d" /><path
           class="st3"
           d="m 721.422,478.902 c 0,-0.679 0,-1.326 -0.017,-1.943 l 0.829,0 c 0.034,0.247 0.051,1.249 0.034,1.465 0.372,-0.786 1.065,-1.65 2.807,-1.65 1.505,0 2.841,0.771 2.841,2.899 l 0,4.996 -0.845,0 0,-4.873 c 0,-1.372 -0.626,-2.267 -2.097,-2.267 -2.012,0 -2.706,1.527 -2.706,3.207 l 0,3.932 -0.846,0 0,-5.766 z"
           id="path361"
           inkscape:connector-curvature="0"
           style="fill:#4d4d4d" /><path
           class="st3"
           d="m 729.369,476.959 1.573,0 0,-2.406 0.845,0 0,2.406 2.012,0 0,0.725 -2.012,0 0,5.011 c 0,0.863 0.203,1.357 1.014,1.357 0.254,0 0.609,-0.015 0.879,-0.093 l 0,0.679 c -0.287,0.108 -0.693,0.139 -1.048,0.139 -1.082,0 -1.691,-0.493 -1.691,-1.727 l 0,-5.366 -1.573,0 0,-0.725 z"
           id="path363"
           inkscape:connector-curvature="0"
           style="fill:#4d4d4d" /><path
           class="st3"
           d="m 740.19,473.875 0.913,0 0,10.023 6.358,0 -0.169,0.771 -7.102,0 0,-10.794 z"
           id="path365"
           inkscape:connector-curvature="0"
           style="fill:#4d4d4d" /><path
           class="st3"
           d="m 756.051,480.799 c 0,2.143 -1.302,4.055 -3.822,4.055 -2.283,0 -3.703,-1.712 -3.703,-4.04 0,-2.205 1.336,-4.04 3.788,-4.04 2.249,0 3.737,1.604 3.737,4.025 z m -6.628,0.015 c 0,1.835 1.082,3.315 2.875,3.315 1.826,0 2.858,-1.372 2.858,-3.315 0,-1.82 -1.015,-3.315 -2.891,-3.315 -1.929,0 -2.842,1.465 -2.842,3.315 z"
           id="path367"
           inkscape:connector-curvature="0"
           style="fill:#4d4d4d" /><path
           class="st3"
           d="m 756.879,476.959 1.573,0 0,-2.406 0.845,0 0,2.406 2.012,0 0,0.725 -2.012,0 0,5.011 c 0,0.863 0.203,1.357 1.015,1.357 0.254,0 0.609,-0.015 0.879,-0.093 l 0,0.679 c -0.288,0.108 -0.693,0.139 -1.048,0.139 -1.082,0 -1.691,-0.493 -1.691,-1.727 l 0,-5.366 -1.573,0 0,-0.725 z"
           id="path369"
           inkscape:connector-curvature="0"
           style="fill:#4d4d4d" /><path
           class="st3"
           d="m 763.321,482.541 c 0.288,1.002 1.065,1.604 2.401,1.604 1.505,0 2.114,-0.632 2.114,-1.496 0,-0.879 -0.406,-1.311 -2.3,-1.727 -2.181,-0.478 -2.722,-1.079 -2.722,-2.097 0,-1.064 0.879,-2.051 2.79,-2.051 1.911,0 2.824,1.064 2.959,2.159 l -0.846,0 c -0.152,-0.648 -0.71,-1.449 -2.147,-1.449 -1.471,0 -1.894,0.663 -1.894,1.28 0,0.709 0.406,1.064 2.08,1.434 2.384,0.524 2.976,1.234 2.976,2.39 0,1.403 -1.251,2.267 -3.027,2.267 -1.928,0 -3.01,-0.925 -3.247,-2.313 l 0.863,0 z"
           id="path371"
           inkscape:connector-curvature="0"
           style="fill:#4d4d4d" /><path
           class="st3"
           d="m 777.052,482.402 c -0.406,1.357 -1.387,2.452 -3.28,2.452 -2.114,0 -3.619,-1.434 -3.619,-4.009 0,-2.113 1.234,-4.071 3.72,-4.071 2.147,0 3.027,1.388 3.179,2.467 l -0.862,0 c -0.254,-0.894 -0.896,-1.742 -2.334,-1.742 -1.792,0 -2.807,1.388 -2.807,3.315 0,1.835 0.947,3.315 2.722,3.315 1.234,0 1.978,-0.571 2.418,-1.727 l 0.863,0 z"
           id="path373"
           inkscape:connector-curvature="0"
           style="fill:#4d4d4d" /><path
           class="st3"
           d="m 779.858,473.305 0,4.95 c 0.473,-0.802 1.302,-1.48 2.79,-1.48 1.201,0 2.858,0.555 2.858,2.991 l 0,4.903 -0.845,0 0,-4.749 c 0,-1.527 -0.761,-2.39 -2.164,-2.39 -1.674,0 -2.638,0.941 -2.638,2.837 l 0,4.302 -0.846,0 0,-11.364 0.845,0 z"
           id="path375"
           inkscape:connector-curvature="0"
           style="fill:#4d4d4d" /><path
           class="st3"
           d="m 788.279,473.305 0.846,0 0,4.95 c 0.406,-0.771 1.234,-1.48 2.892,-1.48 1.995,0 3.466,1.496 3.466,3.87 0,2.436 -1.319,4.21 -3.686,4.21 -1.42,0 -2.232,-0.524 -2.672,-1.403 0,0.493 -0.017,1.002 -0.034,1.218 l -0.829,0 c 0.017,-0.879 0.017,-1.758 0.017,-2.637 l 0,-8.728 z m 6.307,7.355 c 0,-1.927 -1.048,-3.161 -2.655,-3.161 -2.114,0 -2.858,1.311 -2.858,3.331 0,1.82 0.659,3.3 2.756,3.3 1.709,-10e-4 2.757,-1.296 2.757,-3.47 z"
           id="path377"
           inkscape:connector-curvature="0"
           style="fill:#4d4d4d" /><path
           class="st3"
           d="m 797.866,480.907 c 0.017,1.989 1.116,3.223 2.739,3.223 1.589,0 2.131,-0.817 2.435,-1.449 l 0.862,0 c -0.355,1.018 -1.251,2.174 -3.331,2.174 -2.57,0 -3.568,-2.02 -3.568,-3.978 0,-2.205 1.201,-4.102 3.669,-4.102 2.604,0 3.433,2.051 3.433,3.5 0,0.216 0,0.432 -0.017,0.632 l -6.222,0 z m 5.36,-0.679 c -0.017,-1.527 -0.93,-2.729 -2.587,-2.729 -1.742,0 -2.536,1.11 -2.722,2.729 l 5.309,0 z"
           id="path379"
           inkscape:connector-curvature="0"
           style="fill:#4d4d4d" /><path
           class="st3"
           d="m 806.168,479.056 c 0,-1.295 -0.017,-1.85 -0.017,-2.097 l 0.829,0 c 0.017,0.247 0.034,0.74 0.034,1.727 0.49,-1.157 1.573,-1.85 2.942,-1.912 l 0,0.833 c -1.759,0.108 -2.942,1.218 -2.942,3.053 l 0,4.009 -0.845,0 0,-5.613 z"
           id="path381"
           inkscape:connector-curvature="0"
           style="fill:#4d4d4d" /><path
           class="st3"
           d="m 817.887,484.145 c 0,2.467 -1.201,3.762 -3.653,3.762 -2.198,0 -3.111,-1.126 -3.314,-2.298 l 0.862,0 c 0.304,1.064 1.268,1.573 2.486,1.573 2.198,0 2.807,-1.295 2.807,-3.254 l 0,-0.802 c -0.457,1.002 -1.285,1.542 -2.824,1.542 -1.978,0 -3.5,-1.465 -3.5,-3.855 0,-2.591 1.623,-4.04 3.619,-4.04 1.725,0 2.469,0.74 2.706,1.357 0.017,-0.447 0.034,-0.987 0.051,-1.172 l 0.795,0 c 0,0.278 -0.034,1.496 -0.034,2.236 l 0,4.951 z m -6.24,-3.362 c 0,1.835 1.065,3.161 2.689,3.161 2.114,0 2.756,-1.28 2.756,-3.284 0,-2.035 -0.676,-3.161 -2.706,-3.161 -1.944,0 -2.739,1.527 -2.739,3.284 z"
           id="path383"
           inkscape:connector-curvature="0"
           style="fill:#4d4d4d" /></g><g
         id="g385"><ellipse
           class="st3"
           cx="750.87097"
           cy="475.00699"
           rx="0.44299999"
           ry="0.40400001"
           id="ellipse387"
           style="fill:#4d4d4d" /></g><g
         id="g389"><ellipse
           class="st3"
           cx="753.63702"
           cy="475.00699"
           rx="0.44299999"
           ry="0.40400001"
           id="ellipse391"
           style="fill:#4d4d4d" /></g></g><g
       id="g393"><g
         id="g395"><g
           id="g397"><path
             class="st0"
             d="m 598.718,315.117 -2.07,0 c -0.73,0 -1.328,-0.545 -1.328,-1.211 l 0,-3.719 c 0,-0.666 0.597,-1.211 1.328,-1.211 l 2.07,0 c 0.73,0 1.328,0.545 1.328,1.211 l 0,3.719 c 0,0.666 -0.597,1.211 -1.328,1.211 z"
             id="path399"
             inkscape:connector-curvature="0"
             style="fill:#668aa3" /></g></g><g
         id="g401"><g
           id="g403"><path
             class="st0"
             d="m 601.279,315.144 -0.818,-0.373 -1.41,0.071 0.267,-5.539 1.178,-0.537 2.059,-2.943 0,-1.889 0.069,-0.095 c 0.043,-0.059 0.442,-0.58 1.103,-0.66 0.278,-0.034 0.707,0.003 1.167,0.37 l 0.075,0.06 0.904,2.061 -0.306,2.095 3.487,0 0.058,0.016 c 0.097,0.027 0.957,0.28 1.174,0.975 0.128,0.409 -0.002,0.851 -0.386,1.317 0.19,0.412 0.262,1.041 -0.279,1.594 0.155,0.379 0.179,0.949 -0.341,1.525 0.076,0.277 0.148,0.749 -0.064,1.18 -0.159,0.322 -0.452,0.562 -0.847,0.695 l -0.067,0.023 -7.023,0.054 z m -0.644,-1.136 0.836,0.381 6.674,-0.052 c 0.155,-0.063 0.257,-0.151 0.318,-0.274 0.142,-0.288 0.023,-0.705 -0.03,-0.828 l -0.099,-0.23 0.191,-0.174 c 0.622,-0.567 0.275,-0.994 0.26,-1.012 l -0.245,-0.291 0.313,-0.232 c 0.631,-0.467 0.26,-0.997 0.215,-1.056 l -0.183,-0.243 0.214,-0.221 c 0.223,-0.23 0.472,-0.558 0.394,-0.813 -0.07,-0.229 -0.401,-0.387 -0.567,-0.445 l -4.301,0 0.402,-2.753 -0.747,-1.703 c -0.156,-0.108 -0.3,-0.152 -0.438,-0.137 -0.189,0.022 -0.359,0.154 -0.458,0.254 l 0,1.864 -2.312,3.305 -0.948,0.432 -0.206,4.264 0.717,-0.036 z"
             id="path405"
             inkscape:connector-curvature="0"
             style="fill:#668aa3" /></g></g></g><g
       id="g407"><g
         id="g409"><g
           id="g411"><path
             class="st0"
             d="m 598.718,336.306 -2.07,0 c -0.73,0 -1.328,-0.545 -1.328,-1.211 l 0,-3.719 c 0,-0.666 0.597,-1.211 1.328,-1.211 l 2.07,0 c 0.73,0 1.328,0.545 1.328,1.211 l 0,3.719 c 0,0.667 -0.597,1.211 -1.328,1.211 z"
             id="path413"
             inkscape:connector-curvature="0"
             style="fill:#668aa3" /></g></g><g
         id="g415"><g
           id="g417"><path
             class="st0"
             d="m 601.279,336.334 -0.818,-0.373 -1.41,0.071 0.267,-5.539 1.178,-0.537 2.059,-2.943 0,-1.889 0.069,-0.095 c 0.043,-0.059 0.442,-0.58 1.103,-0.66 0.278,-0.034 0.707,0.003 1.167,0.37 l 0.075,0.06 0.904,2.061 -0.306,2.095 3.487,0 0.058,0.016 c 0.097,0.027 0.957,0.28 1.174,0.975 0.128,0.409 -0.002,0.851 -0.386,1.317 0.19,0.412 0.262,1.041 -0.279,1.594 0.155,0.379 0.179,0.949 -0.341,1.525 0.076,0.277 0.148,0.749 -0.064,1.18 -0.159,0.322 -0.452,0.562 -0.847,0.695 l -0.067,0.023 -7.023,0.054 z m -0.644,-1.137 0.836,0.381 6.674,-0.052 c 0.155,-0.063 0.257,-0.151 0.318,-0.274 0.142,-0.288 0.023,-0.705 -0.03,-0.828 l -0.099,-0.23 0.191,-0.174 c 0.622,-0.567 0.275,-0.994 0.26,-1.012 l -0.245,-0.291 0.313,-0.232 c 0.631,-0.467 0.26,-0.997 0.215,-1.056 l -0.183,-0.243 0.214,-0.221 c 0.223,-0.23 0.472,-0.558 0.394,-0.813 -0.07,-0.229 -0.401,-0.387 -0.567,-0.445 l -4.301,0 0.402,-2.753 -0.747,-1.703 c -0.156,-0.108 -0.3,-0.152 -0.438,-0.137 -0.189,0.022 -0.359,0.154 -0.458,0.254 l 0,1.864 -2.312,3.305 -0.948,0.432 -0.206,4.264 0.717,-0.036 z"
             id="path419"
             inkscape:connector-curvature="0"
             style="fill:#668aa3" /></g></g></g><g
       id="g421"><g
         id="g423"><g
           id="g425"><path
             class="st0"
             d="m 598.718,357.496 -2.07,0 c -0.73,0 -1.328,-0.545 -1.328,-1.211 l 0,-3.719 c 0,-0.666 0.597,-1.211 1.328,-1.211 l 2.07,0 c 0.73,0 1.328,0.545 1.328,1.211 l 0,3.719 c 0,0.666 -0.597,1.211 -1.328,1.211 z"
             id="path427"
             inkscape:connector-curvature="0"
             style="fill:#668aa3" /></g></g><g
         id="g429"><g
           id="g431"><path
             class="st0"
             d="m 601.279,357.524 -0.818,-0.373 -1.41,0.071 0.267,-5.539 1.178,-0.537 2.059,-2.943 0,-1.889 0.069,-0.095 c 0.043,-0.059 0.442,-0.58 1.103,-0.66 0.278,-0.034 0.707,0.003 1.167,0.37 l 0.075,0.06 0.904,2.061 -0.306,2.095 3.487,0 0.058,0.016 c 0.097,0.027 0.957,0.28 1.174,0.975 0.128,0.409 -0.002,0.851 -0.386,1.317 0.19,0.412 0.262,1.041 -0.279,1.594 0.155,0.379 0.179,0.949 -0.341,1.525 0.076,0.277 0.148,0.749 -0.064,1.18 -0.159,0.322 -0.452,0.562 -0.847,0.695 l -0.067,0.023 -7.023,0.054 z m -0.644,-1.137 0.836,0.381 6.674,-0.052 c 0.155,-0.063 0.257,-0.151 0.318,-0.274 0.142,-0.288 0.023,-0.705 -0.03,-0.828 l -0.099,-0.23 0.191,-0.174 c 0.622,-0.567 0.275,-0.994 0.26,-1.012 l -0.245,-0.291 0.313,-0.232 c 0.631,-0.467 0.26,-0.997 0.215,-1.056 l -0.183,-0.243 0.214,-0.221 c 0.223,-0.23 0.472,-0.558 0.394,-0.813 -0.07,-0.228 -0.401,-0.387 -0.567,-0.445 l -4.301,0 0.402,-2.753 -0.747,-1.703 c -0.156,-0.108 -0.3,-0.152 -0.438,-0.137 -0.189,0.022 -0.359,0.154 -0.458,0.254 l 0,1.864 -2.312,3.305 -0.948,0.432 -0.206,4.264 0.717,-0.036 z"
             id="path433"
             inkscape:connector-curvature="0"
             style="fill:#668aa3" /></g></g></g><g
       id="g435"><g
         id="g437"><g
           id="g439"><path
             class="st0"
             d="m 598.718,378.686 -2.07,0 c -0.73,0 -1.328,-0.545 -1.328,-1.211 l 0,-3.719 c 0,-0.666 0.597,-1.211 1.328,-1.211 l 2.07,0 c 0.73,0 1.328,0.545 1.328,1.211 l 0,3.719 c 0,0.666 -0.597,1.211 -1.328,1.211 z"
             id="path441"
             inkscape:connector-curvature="0"
             style="fill:#668aa3" /></g></g><g
         id="g443"><g
           id="g445"><path
             class="st0"
             d="m 601.279,378.714 -0.818,-0.373 -1.41,0.071 0.267,-5.539 1.178,-0.537 2.059,-2.943 0,-1.889 0.069,-0.095 c 0.043,-0.059 0.442,-0.58 1.103,-0.66 0.278,-0.034 0.707,0.003 1.167,0.37 l 0.075,0.06 0.904,2.061 -0.306,2.095 3.487,0 0.058,0.016 c 0.097,0.027 0.957,0.28 1.174,0.975 0.128,0.409 -0.002,0.851 -0.386,1.317 0.19,0.412 0.262,1.041 -0.279,1.594 0.155,0.379 0.179,0.949 -0.341,1.525 0.076,0.277 0.148,0.749 -0.064,1.18 -0.159,0.322 -0.452,0.562 -0.847,0.695 l -0.067,0.023 -7.023,0.054 z m -0.644,-1.137 0.836,0.381 6.674,-0.052 c 0.155,-0.063 0.257,-0.151 0.318,-0.274 0.142,-0.288 0.023,-0.705 -0.03,-0.828 l -0.099,-0.23 0.191,-0.174 c 0.622,-0.567 0.275,-0.994 0.26,-1.012 l -0.245,-0.291 0.313,-0.231 c 0.631,-0.467 0.26,-0.997 0.215,-1.056 l -0.183,-0.243 0.214,-0.221 c 0.223,-0.23 0.472,-0.558 0.394,-0.813 -0.07,-0.228 -0.401,-0.387 -0.567,-0.445 l -4.301,0 0.402,-2.753 -0.747,-1.704 c -0.156,-0.108 -0.3,-0.152 -0.438,-0.137 -0.189,0.022 -0.359,0.154 -0.458,0.254 l 0,1.864 -2.312,3.305 -0.948,0.432 -0.206,4.264 0.717,-0.036 z"
             id="path447"
             inkscape:connector-curvature="0"
             style="fill:#668aa3" /></g></g></g><g
       id="g449"><g
         id="g451"><g
           id="g453"><path
             class="st0"
             d="m 598.718,399.875 -2.07,0 c -0.73,0 -1.328,-0.545 -1.328,-1.211 l 0,-3.719 c 0,-0.666 0.597,-1.211 1.328,-1.211 l 2.07,0 c 0.73,0 1.328,0.545 1.328,1.211 l 0,3.719 c 0,0.667 -0.597,1.211 -1.328,1.211 z"
             id="path455"
             inkscape:connector-curvature="0"
             style="fill:#668aa3" /></g></g><g
         id="g457"><g
           id="g459"><path
             class="st0"
             d="m 601.279,399.903 -0.818,-0.373 -1.41,0.071 0.267,-5.539 1.178,-0.537 2.059,-2.943 0,-1.889 0.069,-0.095 c 0.043,-0.059 0.442,-0.58 1.103,-0.66 0.278,-0.034 0.707,0.003 1.167,0.37 l 0.075,0.06 0.904,2.061 -0.306,2.095 3.487,0 0.058,0.016 c 0.097,0.027 0.957,0.28 1.174,0.975 0.128,0.409 -0.002,0.851 -0.386,1.317 0.19,0.412 0.262,1.041 -0.279,1.594 0.155,0.379 0.179,0.949 -0.341,1.525 0.076,0.277 0.148,0.749 -0.064,1.18 -0.159,0.322 -0.452,0.562 -0.847,0.695 l -0.067,0.023 -7.023,0.054 z m -0.644,-1.137 0.836,0.381 6.674,-0.052 c 0.155,-0.063 0.257,-0.151 0.318,-0.274 0.142,-0.288 0.023,-0.705 -0.03,-0.828 l -0.099,-0.23 0.191,-0.174 c 0.622,-0.567 0.275,-0.994 0.26,-1.012 l -0.245,-0.291 0.313,-0.231 c 0.631,-0.467 0.26,-0.997 0.215,-1.056 l -0.183,-0.243 0.214,-0.221 c 0.223,-0.23 0.472,-0.558 0.394,-0.813 -0.07,-0.228 -0.401,-0.387 -0.567,-0.445 l -4.301,0 0.402,-2.753 -0.747,-1.704 c -0.156,-0.108 -0.3,-0.152 -0.438,-0.137 -0.189,0.022 -0.359,0.154 -0.458,0.254 l 0,1.864 -2.312,3.305 -0.948,0.432 -0.206,4.264 0.717,-0.036 z"
             id="path461"
             inkscape:connector-curvature="0"
             style="fill:#668aa3" /></g></g></g><g
       id="g463"><g
         id="g465"><g
           id="g467"><path
             class="st0"
             d="m 598.718,421.065 -2.07,0 c -0.73,0 -1.328,-0.545 -1.328,-1.211 l 0,-3.719 c 0,-0.666 0.597,-1.211 1.328,-1.211 l 2.07,0 c 0.73,0 1.328,0.545 1.328,1.211 l 0,3.719 c 0,0.666 -0.597,1.211 -1.328,1.211 z"
             id="path469"
             inkscape:connector-curvature="0"
             style="fill:#668aa3" /></g></g><g
         id="g471"><g
           id="g473"><path
             class="st0"
             d="m 601.279,421.093 -0.818,-0.373 -1.41,0.071 0.267,-5.539 1.178,-0.537 2.059,-2.943 0,-1.889 0.069,-0.095 c 0.043,-0.059 0.442,-0.58 1.103,-0.66 0.278,-0.034 0.707,0.003 1.167,0.37 l 0.075,0.06 0.904,2.061 -0.306,2.095 3.487,0 0.058,0.016 c 0.097,0.027 0.957,0.28 1.174,0.975 0.128,0.409 -0.002,0.851 -0.386,1.317 0.19,0.412 0.262,1.041 -0.279,1.594 0.155,0.379 0.179,0.949 -0.341,1.525 0.076,0.277 0.148,0.749 -0.064,1.18 -0.159,0.322 -0.452,0.562 -0.847,0.695 l -0.067,0.023 -7.023,0.054 z m -0.644,-1.137 0.836,0.381 6.674,-0.052 c 0.155,-0.063 0.257,-0.151 0.318,-0.274 0.142,-0.288 0.023,-0.705 -0.03,-0.828 l -0.099,-0.23 0.191,-0.174 c 0.622,-0.567 0.275,-0.994 0.26,-1.012 l -0.245,-0.291 0.313,-0.231 c 0.631,-0.467 0.26,-0.997 0.215,-1.056 l -0.183,-0.243 0.214,-0.221 c 0.223,-0.23 0.472,-0.558 0.394,-0.813 -0.07,-0.228 -0.401,-0.387 -0.567,-0.445 l -4.301,0 0.402,-2.753 -0.747,-1.704 c -0.156,-0.108 -0.3,-0.152 -0.438,-0.137 -0.189,0.022 -0.359,0.154 -0.458,0.254 l 0,1.864 -2.312,3.305 -0.948,0.432 -0.206,4.264 0.717,-0.036 z"
             id="path475"
             inkscape:connector-curvature="0"
             style="fill:#668aa3" /></g></g></g><g
       id="g477"><g
         id="g479"><g
           id="g481"><path
             class="st0"
             d="m 598.718,442.255 -2.07,0 c -0.73,0 -1.328,-0.545 -1.328,-1.211 l 0,-3.719 c 0,-0.666 0.597,-1.211 1.328,-1.211 l 2.07,0 c 0.73,0 1.328,0.545 1.328,1.211 l 0,3.719 c 0,0.666 -0.597,1.211 -1.328,1.211 z"
             id="path483"
             inkscape:connector-curvature="0"
             style="fill:#668aa3" /></g></g><g
         id="g485"><g
           id="g487"><path
             class="st0"
             d="m 601.279,442.283 -0.818,-0.373 -1.41,0.071 0.267,-5.539 1.178,-0.537 2.059,-2.943 0,-1.889 0.069,-0.095 c 0.043,-0.059 0.442,-0.58 1.103,-0.66 0.278,-0.034 0.707,0.003 1.167,0.37 l 0.075,0.06 0.904,2.061 -0.306,2.095 3.487,0 0.058,0.016 c 0.097,0.027 0.957,0.28 1.174,0.975 0.128,0.409 -0.002,0.851 -0.386,1.317 0.19,0.412 0.262,1.041 -0.279,1.594 0.155,0.379 0.179,0.949 -0.341,1.525 0.076,0.277 0.148,0.749 -0.064,1.18 -0.159,0.322 -0.452,0.562 -0.847,0.695 l -0.067,0.023 -7.023,0.054 z m -0.644,-1.137 0.836,0.381 6.674,-0.052 c 0.155,-0.063 0.257,-0.151 0.318,-0.274 0.142,-0.288 0.023,-0.705 -0.03,-0.828 l -0.099,-0.23 0.191,-0.174 c 0.622,-0.567 0.275,-0.994 0.26,-1.012 l -0.245,-0.291 0.313,-0.232 c 0.631,-0.467 0.26,-0.997 0.215,-1.056 l -0.183,-0.243 0.214,-0.221 c 0.223,-0.23 0.472,-0.558 0.394,-0.813 -0.07,-0.229 -0.401,-0.387 -0.567,-0.445 l -4.301,0 0.402,-2.753 -0.747,-1.703 c -0.156,-0.108 -0.3,-0.152 -0.438,-0.137 -0.189,0.022 -0.359,0.154 -0.458,0.254 l 0,1.864 -2.312,3.305 -0.948,0.432 -0.206,4.264 0.717,-0.036 z"
             id="path489"
             inkscape:connector-curvature="0"
             style="fill:#668aa3" /></g></g></g><g
       id="g491"><g
         id="g493"><g
           id="g495"><path
             class="st0"
             d="m 598.718,463.445 -2.07,0 c -0.73,0 -1.328,-0.545 -1.328,-1.211 l 0,-3.719 c 0,-0.666 0.597,-1.211 1.328,-1.211 l 2.07,0 c 0.73,0 1.328,0.545 1.328,1.211 l 0,3.719 c 0,0.666 -0.597,1.211 -1.328,1.211 z"
             id="path497"
             inkscape:connector-curvature="0"
             style="fill:#668aa3" /></g></g><g
         id="g499"><g
           id="g501"><path
             class="st0"
             d="m 601.279,463.472 -0.818,-0.373 -1.41,0.071 0.267,-5.539 1.178,-0.537 2.059,-2.943 0,-1.889 0.069,-0.095 c 0.043,-0.059 0.442,-0.58 1.103,-0.66 0.278,-0.034 0.707,0.003 1.167,0.37 l 0.075,0.06 0.904,2.061 -0.306,2.095 3.487,0 0.058,0.016 c 0.097,0.027 0.957,0.28 1.174,0.975 0.128,0.409 -0.002,0.851 -0.386,1.317 0.19,0.412 0.262,1.041 -0.279,1.594 0.155,0.379 0.179,0.949 -0.341,1.525 0.076,0.277 0.148,0.749 -0.064,1.18 -0.159,0.322 -0.452,0.562 -0.847,0.695 l -0.067,0.023 -7.023,0.054 z m -0.644,-1.137 0.836,0.381 6.674,-0.052 c 0.155,-0.063 0.257,-0.151 0.318,-0.274 0.142,-0.288 0.023,-0.705 -0.03,-0.828 l -0.099,-0.23 0.191,-0.174 c 0.622,-0.567 0.275,-0.994 0.26,-1.012 l -0.245,-0.291 0.313,-0.232 c 0.631,-0.467 0.26,-0.997 0.215,-1.056 l -0.183,-0.243 0.214,-0.221 c 0.223,-0.23 0.472,-0.558 0.394,-0.813 -0.07,-0.228 -0.401,-0.387 -0.567,-0.445 l -4.301,0 0.402,-2.753 -0.747,-1.703 c -0.156,-0.108 -0.3,-0.152 -0.438,-0.137 -0.189,0.022 -0.359,0.154 -0.458,0.254 l 0,1.864 -2.312,3.305 -0.948,0.432 -0.206,4.264 0.717,-0.036 z"
             id="path503"
             inkscape:connector-curvature="0"
             style="fill:#668aa3" /></g></g></g><g
       id="g505"><g
         id="g507"><g
           id="g509"><path
             class="st0"
             d="m 598.718,484.634 -2.07,0 c -0.73,0 -1.328,-0.545 -1.328,-1.211 l 0,-3.719 c 0,-0.666 0.597,-1.211 1.328,-1.211 l 2.07,0 c 0.73,0 1.328,0.545 1.328,1.211 l 0,3.719 c 0,0.666 -0.597,1.211 -1.328,1.211 z"
             id="path511"
             inkscape:connector-curvature="0"
             style="fill:#668aa3" /></g></g><g
         id="g513"><g
           id="g515"><path
             class="st0"
             d="m 601.279,484.662 -0.818,-0.373 -1.41,0.071 0.267,-5.539 1.178,-0.537 2.059,-2.943 0,-1.889 0.069,-0.095 c 0.043,-0.059 0.442,-0.58 1.103,-0.66 0.278,-0.034 0.707,0.003 1.167,0.37 l 0.075,0.06 0.904,2.061 -0.306,2.095 3.487,0 0.058,0.016 c 0.097,0.027 0.957,0.28 1.174,0.975 0.128,0.409 -0.002,0.851 -0.386,1.317 0.19,0.412 0.262,1.041 -0.279,1.594 0.155,0.379 0.179,0.949 -0.341,1.525 0.076,0.277 0.148,0.749 -0.064,1.18 -0.159,0.322 -0.452,0.562 -0.847,0.695 l -0.067,0.023 -7.023,0.054 z m -0.644,-1.137 0.836,0.381 6.674,-0.052 c 0.155,-0.063 0.257,-0.151 0.318,-0.274 0.142,-0.288 0.023,-0.705 -0.03,-0.828 l -0.099,-0.23 0.191,-0.174 c 0.622,-0.567 0.275,-0.994 0.26,-1.012 l -0.245,-0.291 0.313,-0.232 c 0.631,-0.467 0.26,-0.997 0.215,-1.056 l -0.183,-0.243 0.214,-0.221 c 0.223,-0.23 0.472,-0.558 0.394,-0.813 -0.07,-0.228 -0.401,-0.387 -0.567,-0.445 l -4.301,0 0.402,-2.753 -0.747,-1.703 c -0.156,-0.108 -0.3,-0.152 -0.438,-0.137 -0.189,0.022 -0.359,0.154 -0.458,0.254 l 0,1.864 -2.312,3.305 -0.948,0.432 -0.206,4.264 0.717,-0.036 z"
             id="path517"
             inkscape:connector-curvature="0"
             style="fill:#668aa3" /></g></g></g><g
       id="g519"><g
         id="g521"><g
           id="g523"><path
             class="st0"
             d="m 598.718,505.824 -2.07,0 c -0.73,0 -1.328,-0.545 -1.328,-1.211 l 0,-3.719 c 0,-0.666 0.597,-1.211 1.328,-1.211 l 2.07,0 c 0.73,0 1.328,0.545 1.328,1.211 l 0,3.719 c 0,0.666 -0.597,1.211 -1.328,1.211 z"
             id="path525"
             inkscape:connector-curvature="0"
             style="fill:#668aa3" /></g></g><g
         id="g527"><g
           id="g529"><path
             class="st0"
             d="m 601.279,505.852 -0.818,-0.373 -1.41,0.071 0.267,-5.539 1.178,-0.537 2.059,-2.943 0,-1.889 0.069,-0.095 c 0.043,-0.059 0.442,-0.58 1.103,-0.66 0.278,-0.034 0.707,0.003 1.167,0.37 l 0.075,0.06 0.904,2.061 -0.306,2.095 3.487,0 0.058,0.016 c 0.097,0.027 0.957,0.28 1.174,0.975 0.128,0.409 -0.002,0.851 -0.386,1.317 0.19,0.412 0.262,1.041 -0.279,1.594 0.155,0.379 0.179,0.949 -0.341,1.525 0.076,0.277 0.148,0.749 -0.064,1.18 -0.159,0.322 -0.452,0.562 -0.847,0.695 l -0.067,0.023 -7.023,0.054 z m -0.644,-1.137 0.836,0.381 6.674,-0.052 c 0.155,-0.063 0.257,-0.151 0.318,-0.274 0.142,-0.288 0.023,-0.705 -0.03,-0.828 l -0.099,-0.23 0.191,-0.174 c 0.622,-0.567 0.275,-0.994 0.26,-1.012 l -0.245,-0.291 0.313,-0.231 c 0.631,-0.467 0.26,-0.997 0.215,-1.056 l -0.183,-0.243 0.214,-0.221 c 0.223,-0.23 0.472,-0.558 0.394,-0.813 -0.07,-0.228 -0.401,-0.387 -0.567,-0.445 l -4.301,0 0.402,-2.753 -0.747,-1.704 c -0.156,-0.108 -0.3,-0.152 -0.438,-0.137 -0.189,0.022 -0.359,0.154 -0.458,0.254 l 0,1.864 -2.312,3.305 -0.948,0.432 -0.206,4.264 0.717,-0.036 z"
             id="path531"
             inkscape:connector-curvature="0"
             style="fill:#668aa3" /></g></g></g><g
       id="g533"><rect
         x="546.30499"
         y="281.77499"
         class="st1"
         width="241.694"
         height="0.40700001"
         id="rect535"
         style="fill:#666666" /></g></g><g
     id="g537"
     transform="translate(-546.30499,-257.867)" /><g
     id="g539"
     transform="translate(-546.30499,-257.867)" /><g
     id="g541"
     transform="translate(-546.30499,-257.867)" /><g
     id="g543"
     transform="translate(-546.30499,-257.867)" /><g
     id="g545"
     transform="translate(-546.30499,-257.867)" /><g
     id="g547"
     transform="translate(-546.30499,-257.867)" /><g
     id="g549"
     transform="translate(-546.30499,-257.867)" /><g
     id="g551"
     transform="translate(-546.30499,-257.867)" /><g
     id="g553"
     transform="translate(-546.30499,-257.867)" /><g
     id="g555"
     transform="translate(-546.30499,-257.867)" /><g
     id="g557"
     transform="translate(-546.30499,-257.867)" /><g
     id="g559"
     transform="translate(-546.30499,-257.867)" /><g
     id="g561"
     transform="translate(-546.30499,-257.867)" /><g
     id="g563"
     transform="translate(-546.30499,-257.867)" /><g
     id="g565"
     transform="translate(-546.30499,-257.867)" /></svg>