<?xml version="1.0" encoding="UTF-8" standalone="no"?>
<!-- Generator: Adobe Illustrator 22.1.0, SVG Export Plug-In . SVG Version: 6.00 Build 0)  -->

<svg
   xmlns:dc="http://purl.org/dc/elements/1.1/"
   xmlns:cc="http://creativecommons.org/ns#"
   xmlns:rdf="http://www.w3.org/1999/02/22-rdf-syntax-ns#"
   xmlns:svg="http://www.w3.org/2000/svg"
   xmlns="http://www.w3.org/2000/svg"
   xmlns:sodipodi="http://sodipodi.sourceforge.net/DTD/sodipodi-0.dtd"
   xmlns:inkscape="http://www.inkscape.org/namespaces/inkscape"
   version="1.1"
   id="Layer_1"
   x="0px"
   y="0px"
   viewBox="0 0 256.56201 225.51668"
   xml:space="preserve"
   inkscape:version="0.91 r13725"
   sodipodi:docname="rest_start.svg"
   width="256.56201"
   height="225.51668"><metadata
     id="metadata259"><rdf:RDF><cc:Work
         rdf:about=""><dc:format>image/svg+xml</dc:format><dc:type
           rdf:resource="http://purl.org/dc/dcmitype/StillImage" /><dc:title></dc:title></cc:Work></rdf:RDF></metadata><defs
     id="defs257" /><sodipodi:namedview
     pagecolor="#ffffff"
     bordercolor="#666666"
     borderopacity="1"
     objecttolerance="10"
     gridtolerance="10"
     guidetolerance="10"
     inkscape:pageopacity="0"
     inkscape:pageshadow="2"
     inkscape:window-width="1920"
     inkscape:window-height="1017"
     id="namedview255"
     showgrid="false"
     fit-margin-top="0"
     fit-margin-left="0"
     fit-margin-right="0"
     fit-margin-bottom="0"
     inkscape:zoom="1.229931"
     inkscape:cx="173.5918"
     inkscape:cy="85.531149"
     inkscape:window-x="0"
     inkscape:window-y="30"
     inkscape:window-maximized="1"
     inkscape:current-layer="Layer_1" /><style
     type="text/css"
     id="style3">
	.st0{fill:#7A7A7A;}
	.st1{fill:#668AA3;}
	.st2{opacity:0.7;}
	.st3{opacity:0.4;}
	.st4{fill:#FFFFFF;}
	.st5{opacity:0.7;fill:#FF0000;}
</style><g
     id="g5"
     transform="translate(-554.694,-270.84001)"><path
       class="st0"
       d="m 560.145,381.689 0,16.262 -5.451,0 0,-37.128 10.255,0 c 6.243,0 9.696,3.524 9.696,9.953 0,5.43 -2.682,7.765 -4.623,8.532 2.914,1.305 4.112,3.95 4.112,9.338 l 0,1.48 c 0,3.958 0.162,5.836 0.484,7.825 l -5.336,0 c -0.505,-1.699 -0.578,-4.762 -0.578,-7.897 l 0,-1.321 c 0,-5.074 -1.062,-7.045 -5.314,-7.045 l -3.245,0 z m 0,-4.728 3.49,0 c 3.977,0 5.512,-2.01 5.512,-5.954 0,-3.38 -1.515,-5.456 -4.975,-5.456 l -4.027,0 0,11.41 z"
       id="path7"
       inkscape:connector-curvature="0"
       style="fill:#7a7a7a" /><path
       class="st0"
       d="m 583.201,385.244 c 0,4.227 0.577,8.489 4.277,8.489 3.455,0 3.897,-3.236 4.017,-4.157 l 5.195,0 c -0.089,0.834 -0.739,8.907 -9.285,8.907 -8.41,0 -9.582,-7.651 -9.582,-14.737 0,-8.927 3.114,-14.44 9.733,-14.44 7.52,0 9.342,6.111 9.342,13.356 0,0.834 -0.036,2.029 -0.089,2.582 l -13.608,0 z m 8.356,-4.196 c 0,-3.448 -0.53,-7.032 -4.017,-7.032 -3.996,0 -4.22,5.031 -4.251,7.032 l 8.268,0 z"
       id="path9"
       inkscape:connector-curvature="0"
       style="fill:#7a7a7a" /><path
       class="st0"
       d="m 604.622,389.565 c 0.078,2.289 1.186,4.475 3.897,4.475 2.341,0 3.46,-1.38 3.46,-3.472 0,-2.3 -1.04,-3.472 -4.32,-4.776 -6.046,-2.373 -7.624,-4.621 -7.624,-8.655 0,-3.809 2.265,-7.871 8.338,-7.871 6.672,0 8.374,4.808 8.39,8.518 l -5.195,0 c -0.031,-1.112 -0.192,-4.114 -3.335,-4.114 -1.94,0 -2.913,1.281 -2.913,3.067 0,1.945 0.958,2.859 4.331,4.196 5.489,2.165 7.686,4.341 7.686,8.988 0,5.405 -3.213,8.523 -9.046,8.523 -6.104,0 -8.91,-3.837 -8.973,-8.879 l 5.304,0 z"
       id="path11"
       inkscape:connector-curvature="0"
       style="fill:#7a7a7a" /><path
       class="st0"
       d="m 618.318,369.782 3.597,0 0,-7.195 5.383,0 0,7.195 4.31,0 0,4.711 -4.31,0 0,16.446 c 0,1.737 0.323,2.761 2.28,2.761 0.625,0 1.139,-0.016 1.645,-0.126 l 0,4.223 c -1.057,0.466 -2.625,0.537 -3.568,0.537 -3.897,0 -5.74,-1.557 -5.74,-6.408 l 0,-17.433 -3.597,0 0,-4.711 z"
       id="path13"
       inkscape:connector-curvature="0"
       style="fill:#7a7a7a" /><path
       class="st0"
       d="m 651.525,392.205 c 0,1.512 0.12,4.605 0.208,5.746 l -4.914,0 c -0.12,-0.581 -0.26,-1.918 -0.26,-2.816 -1.01,1.961 -2.853,3.309 -6.133,3.309 -5.144,0 -7.081,-4.286 -7.081,-8.281 0,-5.564 3.609,-9.18 10.476,-9.18 1.02,0 1.728,0 2.394,0.071 l 0,-3.303 c 0,-1.829 -0.265,-4.042 -3.262,-4.042 -3.022,0 -3.304,2.173 -3.46,4.037 l -5.143,0 c 0.104,-4.105 1.947,-8.441 8.801,-8.441 5.562,0 8.374,2.713 8.374,8.029 l 0,14.871 z m -5.185,-6.939 c -0.64,-0.11 -1.254,-0.126 -2.217,-0.126 -3.934,0 -5.437,1.95 -5.437,4.529 0,2.01 0.957,4.102 3.439,4.102 3.409,0 4.214,-2.624 4.214,-7.394 l 0,-1.111 z"
       id="path15"
       inkscape:connector-curvature="0"
       style="fill:#7a7a7a" /><path
       class="st0"
       d="m 674.576,389.866 c 0,3.914 0,6.671 0.052,8.085 l -5.148,0 c -0.141,-0.844 -0.193,-2.061 -0.229,-3.303 -1.109,2.658 -3.139,3.797 -6.091,3.797 -3.573,0 -6.69,-1.76 -6.69,-8.434 l 0,-20.228 5.414,0 0,18.934 c 0,3.056 0.687,4.825 3.205,4.825 2.55,0 4.074,-1.517 4.074,-6.534 l 0,-17.225 5.414,0 0,20.083 z"
       id="path17"
       inkscape:connector-curvature="0"
       style="fill:#7a7a7a" /><path
       class="st0"
       d="m 679.266,379.345 c 0,-4.582 0,-7.552 -0.052,-9.563 l 5.164,0 c 0.052,0.57 0.141,1.786 0.141,4.767 1.051,-3.26 3.488,-5.211 7.034,-5.228 l 0,6.346 c -4.451,-0.017 -6.888,1.903 -6.888,7.181 l 0,15.102 -5.399,0 0,-18.605 z"
       id="path19"
       inkscape:connector-curvature="0"
       style="fill:#7a7a7a" /><path
       class="st0"
       d="m 710.705,392.205 c 0,1.512 0.12,4.605 0.208,5.746 l -4.914,0 c -0.12,-0.581 -0.26,-1.918 -0.26,-2.816 -1.01,1.961 -2.853,3.309 -6.133,3.309 -5.144,0 -7.081,-4.286 -7.081,-8.281 0,-5.564 3.609,-9.18 10.476,-9.18 1.02,0 1.728,0 2.394,0.071 l 0,-3.303 c 0,-1.829 -0.265,-4.042 -3.262,-4.042 -3.022,0 -3.304,2.173 -3.46,4.037 l -5.143,0 c 0.104,-4.105 1.947,-8.441 8.801,-8.441 5.562,0 8.374,2.713 8.374,8.029 l 0,14.871 z m -5.185,-6.939 c -0.64,-0.11 -1.254,-0.126 -2.217,-0.126 -3.934,0 -5.437,1.95 -5.437,4.529 0,2.01 0.957,4.102 3.439,4.102 3.409,0 4.214,-2.624 4.214,-7.394 l 0,-1.111 z"
       id="path21"
       inkscape:connector-curvature="0"
       style="fill:#7a7a7a" /><path
       class="st0"
       d="m 715.982,378.529 c 0,-5.782 -0.016,-7.327 -0.052,-8.747 l 5.201,0 c 0.089,0.696 0.177,1.853 0.177,3.188 0.828,-1.769 2.535,-3.703 6.054,-3.703 4.203,0 6.862,2.709 6.862,8.599 l 0,20.085 -5.414,0 0,-18.835 c 0,-3.013 -0.712,-4.93 -3.387,-4.93 -2.767,0 -4.027,1.757 -4.027,6.544 l 0,17.221 -5.414,0 0,-19.422 z"
       id="path23"
       inkscape:connector-curvature="0"
       style="fill:#7a7a7a" /><path
       class="st0"
       d="m 736.399,369.782 3.597,0 0,-7.195 5.383,0 0,7.195 4.31,0 0,4.711 -4.31,0 0,16.446 c 0,1.737 0.323,2.761 2.28,2.761 0.625,0 1.139,-0.016 1.645,-0.126 l 0,4.223 c -1.057,0.466 -2.625,0.537 -3.568,0.537 -3.897,0 -5.74,-1.557 -5.74,-6.408 l 0,-17.433 -3.597,0 0,-4.711 z"
       id="path25"
       inkscape:connector-curvature="0"
       style="fill:#7a7a7a" /><path
       class="st0"
       d="m 756.705,389.565 c 0.078,2.289 1.186,4.475 3.897,4.475 2.341,0 3.46,-1.38 3.46,-3.472 0,-2.3 -1.04,-3.472 -4.32,-4.776 -6.046,-2.373 -7.624,-4.621 -7.624,-8.655 0,-3.809 2.265,-7.871 8.338,-7.871 6.672,0 8.374,4.808 8.39,8.518 l -5.195,0 c -0.031,-1.112 -0.192,-4.114 -3.335,-4.114 -1.94,0 -2.913,1.281 -2.913,3.067 0,1.945 0.958,2.859 4.331,4.196 5.489,2.165 7.686,4.341 7.686,8.988 0,5.405 -3.213,8.523 -9.046,8.523 -6.104,0 -8.91,-3.837 -8.973,-8.879 l 5.304,0 z"
       id="path27"
       inkscape:connector-curvature="0"
       style="fill:#7a7a7a" /><path
       class="st0"
       d="m 782.354,369.782 5.399,0 0,28.169 -5.399,0 0,-28.169 z m 0.037,-10.789 5.399,0 0,6.221 -5.399,0 0,-6.221 z"
       id="path29"
       inkscape:connector-curvature="0"
       style="fill:#7a7a7a" /><path
       class="st0"
       d="m 793.014,378.529 c 0,-5.782 -0.016,-7.327 -0.052,-8.747 l 5.201,0 c 0.089,0.696 0.177,1.853 0.177,3.188 0.828,-1.769 2.535,-3.703 6.054,-3.703 4.203,0 6.862,2.709 6.862,8.599 l 0,20.085 -5.414,0 0,-18.835 c 0,-3.013 -0.712,-4.93 -3.387,-4.93 -2.767,0 -4.027,1.757 -4.027,6.544 l 0,17.221 -5.414,0 0,-19.422 z"
       id="path31"
       inkscape:connector-curvature="0"
       style="fill:#7a7a7a" /><path
       class="st0"
       d="m 583.672,435.702 c 0.297,3.33 1.665,6.157 5.11,6.157 3.31,0 4.704,-2.077 4.704,-5.356 0,-3.341 -1.452,-5.22 -6.028,-7.527 -5.863,-2.938 -8.253,-5.574 -8.253,-11.043 0,-5.663 3.453,-9.734 9.618,-9.734 7.551,0 9.468,5.476 9.572,10.146 l -5.378,0 c -0.193,-2.012 -0.713,-5.533 -4.314,-5.533 -2.804,0 -4.032,1.96 -4.032,4.634 0,2.974 1.259,4.371 5.491,6.458 6.274,3.085 8.915,6.11 8.915,12.09 0,5.842 -3.333,10.479 -10.457,10.479 -7.754,0 -10.175,-5.262 -10.415,-10.77 l 5.467,0 z"
       id="path33"
       inkscape:connector-curvature="0"
       style="fill:#7a7a7a" /><path
       class="st0"
       d="m 631.567,417.71 5.399,0 0,28.169 -5.399,0 0,-28.169 z m 0.037,-10.789 5.398,0 0,6.221 -5.398,0 0,-6.221 z"
       id="path35"
       inkscape:connector-curvature="0"
       style="fill:#7a7a7a" /><path
       class="st0"
       d="m 639.697,417.71 3.597,0 0,-7.195 5.383,0 0,7.195 4.31,0 0,4.711 -4.31,0 0,16.446 c 0,1.737 0.323,2.761 2.28,2.761 0.625,0 1.139,-0.016 1.645,-0.126 l 0,4.223 c -1.057,0.466 -2.625,0.537 -3.568,0.537 -3.897,0 -5.74,-1.557 -5.74,-6.408 l 0,-17.433 -3.597,0 0,-4.711 z"
       id="path37"
       inkscape:connector-curvature="0"
       style="fill:#7a7a7a" /><path
       class="st0"
       d="m 654.902,441.782 c 2.765,-4.696 7.391,-12.934 10.921,-19.245 l -10.161,0 0,-4.827 16.252,0 0,4.3 c -2.431,4.355 -7.548,13.548 -10.723,19.081 l 10.916,0 -0.599,4.788 -16.606,0 0,-4.097 z"
       id="path39"
       inkscape:connector-curvature="0"
       style="fill:#7a7a7a" /><path
       class="st0"
       d="m 679.13,433.172 c 0,4.227 0.577,8.489 4.277,8.489 3.455,0 3.897,-3.236 4.017,-4.157 l 5.195,0 c -0.089,0.834 -0.739,8.907 -9.285,8.907 -8.41,0 -9.582,-7.651 -9.582,-14.737 0,-8.927 3.114,-14.441 9.733,-14.441 7.52,0 9.342,6.111 9.342,13.356 0,0.834 -0.036,2.029 -0.089,2.582 l -13.608,0 z m 8.356,-4.195 c 0,-3.449 -0.53,-7.032 -4.017,-7.032 -3.996,0 -4.22,5.031 -4.251,7.032 l 8.268,0 z"
       id="path41"
       inkscape:connector-curvature="0"
       style="fill:#7a7a7a" /><path
       class="st0"
       d="m 696.724,427.273 c 0,-4.582 0,-7.552 -0.052,-9.563 l 5.164,0 c 0.052,0.57 0.141,1.786 0.141,4.767 1.051,-3.26 3.488,-5.211 7.034,-5.228 l 0,6.346 c -4.451,-0.017 -6.888,1.903 -6.888,7.181 l 0,15.102 -5.398,0 0,-18.605 z"
       id="path43"
       inkscape:connector-curvature="0"
       style="fill:#7a7a7a" /><path
       class="st0"
       d="m 711.904,445.879 0,-38.958 5.399,0 0,38.958 -5.399,0 z"
       id="path45"
       inkscape:connector-curvature="0"
       style="fill:#7a7a7a" /><path
       class="st0"
       d="m 739.152,440.134 c 0,1.512 0.12,4.605 0.208,5.746 l -4.914,0 c -0.12,-0.581 -0.26,-1.918 -0.26,-2.816 -1.01,1.961 -2.853,3.309 -6.133,3.309 -5.144,0 -7.081,-4.286 -7.081,-8.281 0,-5.564 3.609,-9.18 10.476,-9.18 1.02,0 1.728,0 2.394,0.071 l 0,-3.303 c 0,-1.829 -0.265,-4.042 -3.262,-4.042 -3.022,0 -3.304,2.173 -3.46,4.037 l -5.143,0 c 0.104,-4.105 1.947,-8.441 8.801,-8.441 5.562,0 8.374,2.713 8.374,8.029 l 0,14.871 z m -5.185,-6.94 c -0.64,-0.11 -1.254,-0.126 -2.217,-0.126 -3.934,0 -5.437,1.95 -5.437,4.529 0,2.01 0.957,4.102 3.439,4.102 3.409,0 4.214,-2.624 4.214,-7.394 l 0,-1.111 z"
       id="path47"
       inkscape:connector-curvature="0"
       style="fill:#7a7a7a" /><path
       class="st0"
       d="m 744.429,426.457 c 0,-5.782 -0.016,-7.327 -0.052,-8.747 l 5.201,0 c 0.089,0.696 0.177,1.853 0.177,3.188 0.828,-1.769 2.535,-3.703 6.054,-3.703 4.203,0 6.862,2.709 6.862,8.599 l 0,20.085 -5.414,0 0,-18.835 c 0,-3.013 -0.712,-4.93 -3.387,-4.93 -2.767,0 -4.027,1.757 -4.027,6.544 l 0,17.221 -5.414,0 0,-19.422 z"
       id="path49"
       inkscape:connector-curvature="0"
       style="fill:#7a7a7a" /><path
       class="st0"
       d="m 785.904,406.921 0,31.328 c 0,3.131 0,5.986 0.052,7.63 l -5.201,0 c -0.089,-0.712 -0.177,-2.295 -0.177,-3.259 -0.797,2.147 -2.442,3.752 -6.06,3.752 -5.618,0 -7.904,-5.218 -7.904,-14.83 0,-8.757 2.837,-14.309 8.872,-14.309 3.092,0 4.466,1.271 5.018,2.459 l 0,-12.772 5.4,0 z m -13.786,24.699 c 0,7.066 1.332,9.894 4.173,9.894 3.518,0 4.36,-3.001 4.36,-10.08 0,-7.077 -0.691,-9.318 -4.085,-9.318 -2.736,-10e-4 -4.448,2.315 -4.448,9.504 z"
       id="path51"
       inkscape:connector-curvature="0"
       style="fill:#7a7a7a" /></g><g
     id="g53"
     transform="translate(-554.694,-270.84001)"><path
       class="st1"
       d="m 615.561,417.217 c 0.519,0.061 1.037,0.122 1.669,0.197 0,0.213 0,0.453 0,0.693 0,5.675 -10e-4,11.35 10e-4,17.025 0,1.201 0.705,2.029 1.79,2.124 1.281,0.112 2.146,-0.672 2.152,-1.987 0.011,-2.723 0.006,-5.446 0.006,-8.169 0,-3.021 -10e-4,-6.041 -0.002,-9.062 0,-0.157 0,-0.313 0,-0.611 1.594,0.185 3.12,0.362 4.693,0.544 0.079,1.861 0.167,3.617 0.227,5.374 0.191,5.579 0.397,11.158 0.547,16.738 0.098,3.643 -1.303,6.583 -4.339,8.68 -1.035,0.715 -2.079,1.415 -3.114,2.128 -1.01,0.696 -1.484,1.624 -1.323,2.879 0.416,3.241 0.836,6.482 1.194,9.729 0.534,4.839 1.172,9.674 1.477,14.528 0.282,4.498 0.069,9.014 -1.035,13.426 -0.219,0.878 -0.581,1.735 -0.985,2.548 -0.885,1.78 -2.373,2.483 -4.342,2.337 -1.781,-0.132 -2.811,-1.197 -3.504,-2.686 -1.009,-2.168 -1.326,-4.505 -1.558,-6.852 -0.476,-4.8 -0.388,-9.602 0.14,-14.387 0.509,-4.612 1.143,-9.209 1.697,-13.816 0.21,-1.747 0.347,-3.502 0.523,-5.253 0.079,-0.791 -0.17,-1.476 -0.781,-1.954 -1.024,-0.801 -2.083,-1.56 -3.154,-2.298 -1.987,-1.368 -3.696,-2.992 -4.327,-5.392 -0.344,-1.309 -0.545,-2.707 -0.509,-4.057 0.187,-6.952 0.482,-13.901 0.708,-20.852 0.021,-0.651 0.26,-0.852 0.861,-0.909 1.266,-0.119 2.526,-0.298 3.877,-0.464 0,0.575 0,1.027 0,1.479 -0.002,5.355 10e-4,10.71 -0.009,16.064 -10e-4,0.849 0.267,1.529 1.059,1.915 1.371,0.667 2.878,-0.271 2.891,-1.825 0.023,-2.654 0.009,-5.309 0.009,-7.963 0,-3.043 -0.002,-6.087 -10e-4,-9.13 0,-0.178 0.021,-0.356 0.034,-0.55 0.615,-0.066 1.197,-0.129 1.78,-0.192 0.549,10e-4 1.098,10e-4 1.648,10e-4 z"
       id="path55"
       inkscape:connector-curvature="0"
       style="fill:#668aa3" /></g><g
     class="st2"
     id="g57"
     style="opacity:0.7"
     transform="translate(-554.694,-270.84001)"><g
       id="g59"><path
         class="st1"
         d="m 711.16,352.002 c 0,0 1.805,-45.077 3.911,-45.997 l -72.508,-1.227 -2.106,2.453 c 0,0 7.522,38.024 5.416,45.384"
         id="path61"
         inkscape:connector-curvature="0"
         style="fill:#668aa3" /></g><g
       class="st3"
       id="g63"
       style="opacity:0.4"><path
         class="st4"
         d="m 711.16,352.002 c 0,0 1.805,-45.077 3.911,-45.997 l -72.508,-1.227 -2.106,2.453 c 0,0 7.522,38.024 5.416,45.384"
         id="path65"
         inkscape:connector-curvature="0"
         style="fill:#ffffff" /></g><g
       id="g67"><polygon
         class="st1"
         points="709.054,284.342 713.868,302.394 641.962,302.394 646.776,284.342 "
         id="polygon69"
         style="fill:#668aa3" /></g><g
       id="g71"><rect
         x="673.25201"
         y="301.79199"
         class="st1"
         width="9.9280005"
         height="7.822"
         id="rect73"
         style="fill:#668aa3" /></g><g
       id="g75"><polygon
         class="st1"
         points="691.877,301.792 694.308,309.615 684.38,309.615 681.948,301.792 "
         id="polygon77"
         style="fill:#668aa3" /></g><g
       id="g79"><polygon
         class="st1"
         points="700.573,301.792 705.436,309.615 695.507,309.615 690.645,301.792 "
         id="polygon81"
         style="fill:#668aa3" /></g><g
       id="g83"><polygon
         class="st1"
         points="709.27,301.792 716.564,309.615 706.635,309.615 699.341,301.792 "
         id="polygon85"
         style="fill:#668aa3" /></g><g
       id="g87"><polygon
         class="st1"
         points="716.576,301.792 725,309.615 716.576,309.615 707.737,301.792 "
         id="polygon89"
         style="fill:#668aa3" /></g><g
       id="g91"><polygon
         class="st1"
         points="674.694,301.923 672.494,309.779 662.609,309.778 664.809,301.922 "
         id="polygon93"
         style="fill:#668aa3" /></g><g
       id="g95"><polygon
         class="st1"
         points="666.208,302.053 661.808,309.943 652.191,309.615 656.366,302.052 "
         id="polygon97"
         style="fill:#668aa3" /></g><g
       id="g99"><polygon
         class="st1"
         points="657.722,302.184 651.122,310.108 641.323,310.106 647.922,302.182 "
         id="polygon101"
         style="fill:#668aa3" /></g><g
       id="g103"><polygon
         class="st1"
         points="649.537,302.314 641.661,309.916 633.538,309.916 639.78,302.312 "
         id="polygon105"
         style="fill:#668aa3" /></g><g
       id="g107"><path
         class="st1"
         d="m 633.538,309.615 8.424,0.301 c 0,0 1.203,5.115 -2.708,5.115 -3.911,0 -5.716,-5.416 -5.716,-5.416 z"
         id="path109"
         inkscape:connector-curvature="0"
         style="fill:#668aa3" /></g><g
       id="g111"><path
         class="st1"
         d="m 641.36,309.916 10.39,-0.409 c 0,0 -0.16,6.126 -4.072,6.126 -3.912,0 -6.318,-5.717 -6.318,-5.717 z"
         id="path113"
         inkscape:connector-curvature="0"
         style="fill:#668aa3" /></g><g
       id="g115"><path
         class="st1"
         d="m 652.191,309.615 10.089,-0.109 c 0,0 -0.16,6.126 -4.071,6.126 -3.912,0 -6.018,-6.017 -6.018,-6.017 z"
         id="path117"
         inkscape:connector-curvature="0"
         style="fill:#668aa3" /></g><g
       id="g119"><path
         class="st1"
         d="m 662.722,309.615 10.089,-0.109 c 0,0 -0.16,6.126 -4.072,6.126 -3.912,0 -6.017,-6.017 -6.017,-6.017 z"
         id="path121"
         inkscape:connector-curvature="0"
         style="fill:#668aa3" /></g><g
       id="g123"><path
         class="st1"
         d="m 673.252,309.615 9.788,-0.109 c 0,0 -0.16,6.126 -4.072,6.126 -3.911,0 -5.716,-6.017 -5.716,-6.017 z"
         id="path125"
         inkscape:connector-curvature="0"
         style="fill:#668aa3" /></g><g
       id="g127"><path
         class="st1"
         d="m 684.384,309.615 9.928,0 c 0,0 0,6.017 -3.911,6.017 -3.911,0 -6.017,-6.017 -6.017,-6.017 z"
         id="path129"
         inkscape:connector-curvature="0"
         style="fill:#668aa3" /></g><g
       id="g131"><path
         class="st1"
         d="m 695.516,309.615 9.788,-0.109 c 0,0 -0.16,6.126 -4.071,6.126 -3.912,0 -5.717,-6.017 -5.717,-6.017 z"
         id="path133"
         inkscape:connector-curvature="0"
         style="fill:#668aa3" /></g><g
       id="g135"><path
         class="st1"
         d="m 706.648,309.615 9.788,-0.109 c 0,0 -0.16,6.126 -4.071,6.126 -3.911,0 -5.717,-6.017 -5.717,-6.017 z"
         id="path137"
         inkscape:connector-curvature="0"
         style="fill:#668aa3" /></g><g
       id="g139"><path
         class="st1"
         d="m 716.275,309.615 8.584,-0.109 c 0,0 -0.16,6.126 -4.071,6.126 -3.911,0 -4.513,-6.017 -4.513,-6.017 z"
         id="path141"
         inkscape:connector-curvature="0"
         style="fill:#668aa3" /></g><g
       id="g143"><rect
         x="645.27197"
         y="351.134"
         class="st1"
         width="67.092003"
         height="5.7160001"
         id="rect145"
         style="fill:#668aa3" /></g><g
       class="st3"
       id="g147"
       style="opacity:0.4"><rect
         x="665.72998"
         y="351.134"
         class="st4"
         width="24.370001"
         height="3.0090001"
         id="rect149"
         style="fill:#ffffff" /><path
         class="st1"
         d="m 690.401,354.443 -24.972,0 0,-3.61 24.972,0 0,3.61 z m -24.37,-0.602 23.768,0 0,-2.407 -23.768,0 0,2.407 z"
         id="path151"
         inkscape:connector-curvature="0"
         style="fill:#668aa3" /></g><g
       class="st3"
       id="g153"
       style="opacity:0.4"><rect
         x="663.62402"
         y="354.142"
         class="st4"
         width="28.582001"
         height="3.0090001"
         id="rect155"
         style="fill:#ffffff" /><path
         class="st1"
         d="m 692.507,357.452 -29.184,0 0,-3.61 29.184,0 0,3.61 z m -28.582,-0.602 27.98,0 0,-2.407 -27.98,0 0,2.407 z"
         id="path157"
         inkscape:connector-curvature="0"
         style="fill:#668aa3" /></g><g
       id="g159"><path
         class="st1"
         d="m 664.214,343.311 -15.013,0 -0.939,-23.157 16.578,-0.319 -0.626,23.476 z m -14.147,-0.902 13.268,0 0.577,-21.653 -14.712,0.283 0.867,21.37 z"
         id="path161"
         inkscape:connector-curvature="0"
         style="fill:#668aa3" /></g><g
       id="g163"><rect
         x="649.03198"
         y="330.67499"
         class="st1"
         width="15.043"
         height="0.903"
         id="rect165"
         style="fill:#668aa3" /></g><g
       id="g167"><polygon
         class="st1"
         points="665.279,342.86 664.076,344.063 649.333,344.063 648.13,342.86 "
         id="polygon169"
         style="fill:#668aa3" /></g><g
       id="g171"><rect
         x="649.18298"
         y="344.21399"
         class="st1"
         width="15.344"
         height="2.1059999"
         id="rect173"
         style="fill:#668aa3" /></g><g
       id="g175"><path
         class="st1"
         d="m 707.839,343.311 -15.013,0 -0.939,-23.157 16.578,-0.319 -0.626,23.476 z m -14.146,-0.902 13.268,0 0.577,-21.653 -14.712,0.283 0.867,21.37 z"
         id="path177"
         inkscape:connector-curvature="0"
         style="fill:#668aa3" /></g><g
       id="g179"><rect
         x="692.65698"
         y="330.67499"
         class="st1"
         width="15.043"
         height="0.903"
         id="rect181"
         style="fill:#668aa3" /></g><g
       id="g183"><polygon
         class="st1"
         points="708.904,342.86 707.701,344.063 692.958,344.063 691.755,342.86 "
         id="polygon185"
         style="fill:#668aa3" /></g><g
       id="g187"><rect
         x="692.80798"
         y="344.21399"
         class="st1"
         width="15.344"
         height="2.1059999"
         id="rect189"
         style="fill:#668aa3" /></g><g
       class="st3"
       id="g191"
       style="opacity:0.4"><polygon
         class="st1"
         points="672.575,351.134 672.048,326.162 684.083,326.162 683.669,351.134 "
         id="polygon193"
         style="fill:#668aa3" /></g><g
       id="g195"><polygon
         class="st1"
         points="673.854,340.604 673.252,327.666 682.578,327.666 682.278,340.604 "
         id="polygon197"
         style="fill:#668aa3" /></g><g
       id="g199"><circle
         class="st1"
         cx="673.854"
         cy="342.409"
         r="0.602"
         id="circle201"
         style="fill:#668aa3" /></g><g
       id="g203"><polygon
         class="st1"
         points="675.358,349.329 674.756,343.913 681.676,343.913 681.375,349.329 "
         id="polygon205"
         style="fill:#668aa3" /></g><g
       class="st3"
       id="g207"
       style="opacity:0.4"><path
         class="st4"
         d="m 685.815,289.667 c 0.118,-0.109 0.127,-0.288 0.021,-0.402 -0.106,-0.114 -0.285,-0.118 -0.403,-0.009 l -2.622,2.435 c -0.027,0.007 -0.056,0.016 -0.09,0.027 -0.484,0.163 -0.417,-0.143 -0.362,-0.287 l 2.735,-2.54 c 0.118,-0.109 0.127,-0.288 0.021,-0.402 -0.106,-0.114 -0.285,-0.118 -0.403,-0.009 l -2.669,2.478 c -0.008,0.003 -0.014,0.004 -0.022,0.007 -0.544,0.183 -0.392,-0.226 -0.344,-0.333 l 2.703,-2.51 c 0.118,-0.109 0.127,-0.288 0.021,-0.402 -0.106,-0.114 -0.285,-0.118 -0.403,-0.009 l -2.684,2.493 c -0.623,0.21 -0.332,-0.358 -0.332,-0.358 l 2.684,-2.493 c 0.118,-0.109 0.127,-0.288 0.021,-0.402 -0.106,-0.114 -0.285,-0.118 -0.403,-0.009 l -2.959,2.748 -0.149,0.138 -0.683,0.634 c 0,0 -0.035,0.655 0.489,1.219 l -8.263,7.489 0.969,1.044 8.056,-7.665 c 0,0 0.88,1.011 1.194,0.719 0.216,-0.201 0.569,-0.529 0.769,-0.714 0,0 0,0 0,0 l 3.108,-2.887 z"
         id="path209"
         inkscape:connector-curvature="0"
         style="fill:#ffffff" /></g><g
       class="st3"
       id="g211"
       style="opacity:0.4"><path
         class="st4"
         d="m 677.195,292.904 -5.914,-7.396 c 0,0 -1.586,-0.695 -0.912,1.389 0.674,2.084 0.927,2.48 1.248,2.882 0.322,0.402 3.523,4.406 3.523,4.406 0,0 0.092,0.367 1.108,-0.29 l 4.369,6.152 c 0.416,0.52 1.067,0.682 1.448,0.378 0.388,-0.31 0.357,-0.985 -0.059,-1.506 l -4.811,-6.015 c 0,0 0,0 0,0 z"
         id="path213"
         inkscape:connector-curvature="0"
         style="fill:#ffffff" /></g><rect
       x="694.78699"
       y="271.38901"
       class="st1"
       width="0.68699998"
       height="13.321"
       id="rect215"
       style="fill:#668aa3" /><rect
       x="695.19897"
       y="272.07599"
       class="st5"
       width="15.381"
       height="9.3380003"
       id="rect217"
       style="opacity:0.7;fill:#ff0000" /><rect
       x="702.06598"
       y="273.58701"
       class="st4"
       width="1.648"
       height="6.3169999"
       id="rect219"
       style="fill:#ffffff" /><rect
       x="702.06598"
       y="273.58701"
       transform="matrix(0,1,-1,0,979.6351,-426.1447)"
       class="st4"
       width="1.648"
       height="6.3169999"
       id="rect221"
       style="fill:#ffffff" /><circle
       class="st1"
       cx="695.06201"
       cy="271.38901"
       r="0.54900002"
       id="circle223"
       style="fill:#668aa3" /></g><g
     id="g225"
     transform="translate(-554.694,-270.84001)" /><g
     id="g227"
     transform="translate(-554.694,-270.84001)" /><g
     id="g229"
     transform="translate(-554.694,-270.84001)" /><g
     id="g231"
     transform="translate(-554.694,-270.84001)" /><g
     id="g233"
     transform="translate(-554.694,-270.84001)" /><g
     id="g235"
     transform="translate(-554.694,-270.84001)" /><g
     id="g237"
     transform="translate(-554.694,-270.84001)" /><g
     id="g239"
     transform="translate(-554.694,-270.84001)" /><g
     id="g241"
     transform="translate(-554.694,-270.84001)" /><g
     id="g243"
     transform="translate(-554.694,-270.84001)" /><g
     id="g245"
     transform="translate(-554.694,-270.84001)" /><g
     id="g247"
     transform="translate(-554.694,-270.84001)" /><g
     id="g249"
     transform="translate(-554.694,-270.84001)" /><g
     id="g251"
     transform="translate(-554.694,-270.84001)" /><g
     id="g253"
     transform="translate(-554.694,-270.84001)" /></svg>