<?xml version="1.0" encoding="UTF-8" standalone="no"?>
<!-- Generator: Adobe Illustrator 22.1.0, SVG Export Plug-In . SVG Version: 6.00 Build 0)  -->

<svg
   xmlns:dc="http://purl.org/dc/elements/1.1/"
   xmlns:cc="http://creativecommons.org/ns#"
   xmlns:rdf="http://www.w3.org/1999/02/22-rdf-syntax-ns#"
   xmlns:svg="http://www.w3.org/2000/svg"
   xmlns="http://www.w3.org/2000/svg"
   xmlns:sodipodi="http://sodipodi.sourceforge.net/DTD/sodipodi-0.dtd"
   xmlns:inkscape="http://www.inkscape.org/namespaces/inkscape"
   version="1.1"
   id="Layer_1"
   x="0px"
   y="0px"
   viewBox="0 0 264.31299 235.129"
   xml:space="preserve"
   inkscape:version="0.91 r13725"
   sodipodi:docname="rest_price.svg"
   width="264.31299"
   height="235.129"><metadata
     id="metadata549"><rdf:RDF><cc:Work
         rdf:about=""><dc:format>image/svg+xml</dc:format><dc:type
           rdf:resource="http://purl.org/dc/dcmitype/StillImage" /><dc:title></dc:title></cc:Work></rdf:RDF></metadata><defs
     id="defs547" /><sodipodi:namedview
     pagecolor="#ffffff"
     bordercolor="#666666"
     borderopacity="1"
     objecttolerance="10"
     gridtolerance="10"
     guidetolerance="10"
     inkscape:pageopacity="0"
     inkscape:pageshadow="2"
     inkscape:window-width="698"
     inkscape:window-height="480"
     id="namedview545"
     showgrid="false"
     fit-margin-top="0"
     fit-margin-left="0"
     fit-margin-right="0"
     fit-margin-bottom="0"
     inkscape:zoom="0.21742313"
     inkscape:cx="132.518"
     inkscape:cy="116.944"
     inkscape:window-x="0"
     inkscape:window-y="30"
     inkscape:window-maximized="0"
     inkscape:current-layer="Layer_1" /><style
     type="text/css"
     id="style3">
	.st0{fill:#666666;}
	.st1{fill:#668AA3;}
	.st2{fill:#7E6B71;}
	.st3{fill:#4BA28F;}
	.st4{fill:#1A1A1A;}
	.st5{fill:#333333;}
	.st6{fill:#FFFFFF;}
</style><g
     id="g5"
     transform="translate(-550.482,-265.815)"><g
       id="g7"><path
         class="st0"
         d="m 716,290.771 -63.851,0 c -6.6,0 -12,-5.4 -12,-12 l 0,-0.956 c 0,-6.6 5.4,-12 12,-12 l 63.851,0 c 6.6,0 12,5.4 12,12 l 0,0.956 c 0,6.6 -5.4,12 -12,12 z"
         id="path9"
         inkscape:connector-curvature="0"
         style="fill:#666666" /></g><g
       id="g11"><g
         id="g13"><g
           id="g15"><path
             class="st1"
             d="m 616.138,321.744 0,11.194 10.176,0 0,-11.194 -10.176,0 z"
             id="path17"
             inkscape:connector-curvature="0"
             style="fill:#668aa3" /></g></g><g
         id="g19"><g
           id="g21"><path
             class="st1"
             d="m 616.138,338.535 0,11.194 10.176,0 0,-11.194 -10.176,0 z"
             id="path23"
             inkscape:connector-curvature="0"
             style="fill:#668aa3" /></g></g><g
         id="g25"><g
           id="g27"><path
             class="st1"
             d="m 616.138,355.325 0,11.194 2.035,0 0,-11.194 -2.035,0 z"
             id="path29"
             inkscape:connector-curvature="0"
             style="fill:#668aa3" /></g></g><g
         id="g31"><g
           id="g33"><path
             class="st1"
             d="m 616.138,371.606 0,11.194 15.264,0 0,-11.194 -15.264,0 z"
             id="path35"
             inkscape:connector-curvature="0"
             style="fill:#668aa3" /></g></g><g
         id="g37"><g
           id="g39"><path
             class="st1"
             d="m 616.138,388.397 0,11.194 9.158,0 0,-11.194 -9.158,0 z"
             id="path41"
             inkscape:connector-curvature="0"
             style="fill:#668aa3" /></g></g><g
         id="g43"><g
           id="g45"><path
             class="st1"
             d="m 616.138,405.187 0,11.194 1.526,0 0,-11.194 -1.526,0 z"
             id="path47"
             inkscape:connector-curvature="0"
             style="fill:#668aa3" /></g></g><g
         id="g49"><g
           id="g51"><path
             class="st1"
             d="m 616.138,421.468 0,11.194 2.544,0 0,-11.194 -2.544,0 z"
             id="path53"
             inkscape:connector-curvature="0"
             style="fill:#668aa3" /></g></g><g
         id="g55"><g
           id="g57"><path
             class="st1"
             d="m 616.138,438.259 0,11.194 3.562,0 0,-11.194 -3.562,0 z"
             id="path59"
             inkscape:connector-curvature="0"
             style="fill:#668aa3" /></g></g><g
         id="g61"><g
           id="g63"><path
             class="st1"
             d="m 616.138,454.54 0,11.194 2.544,0 0,-11.194 -2.544,0 z"
             id="path65"
             inkscape:connector-curvature="0"
             style="fill:#668aa3" /></g></g><g
         id="g67"><g
           id="g69"><path
             class="st1"
             d="m 616.138,471.331 0,11.194 18.317,0 0,-11.194 -18.317,0 z"
             id="path71"
             inkscape:connector-curvature="0"
             style="fill:#668aa3" /></g></g><g
         id="g73"><g
           id="g75"><path
             class="st2"
             d="m 641.279,321.955 0,11.194 47.318,0 0,-11.194 -47.318,0 z"
             id="path77"
             inkscape:connector-curvature="0"
             style="fill:#7e6b71" /></g></g><g
         id="g79"><g
           id="g81"><path
             class="st2"
             d="m 641.279,338.745 0,11.194 41.721,0 0,-11.194 -41.721,0 z"
             id="path83"
             inkscape:connector-curvature="0"
             style="fill:#7e6b71" /></g></g><g
         id="g85"><g
           id="g87"><path
             class="st2"
             d="m 641.279,355.536 0,11.194 11.702,0 0,-11.194 -11.702,0 z"
             id="path89"
             inkscape:connector-curvature="0"
             style="fill:#7e6b71" /></g></g><g
         id="g91"><g
           id="g93"><path
             class="st2"
             d="m 641.279,371.817 0,11.194 35.616,0 0,-11.194 -35.616,0 z"
             id="path95"
             inkscape:connector-curvature="0"
             style="fill:#7e6b71" /></g></g><g
         id="g97"><g
           id="g99"><path
             class="st2"
             d="m 641.279,388.607 0,11.194 24.422,0 0,-11.194 -24.422,0 z"
             id="path101"
             inkscape:connector-curvature="0"
             style="fill:#7e6b71" /></g></g><g
         id="g103"><g
           id="g105"><path
             class="st2"
             d="m 641.279,405.398 0,11.194 3.562,0 0,-11.194 -3.562,0 z"
             id="path107"
             inkscape:connector-curvature="0"
             style="fill:#7e6b71" /></g></g><g
         id="g109"><g
           id="g111"><path
             class="st2"
             d="m 641.279,421.679 0,11.194 19.843,0 0,-11.194 -19.843,0 z"
             id="path113"
             inkscape:connector-curvature="0"
             style="fill:#7e6b71" /></g></g><g
         id="g115"><g
           id="g117"><path
             class="st2"
             d="m 641.279,438.469 0,11.194 23.405,0 0,-11.194 -23.405,0 z"
             id="path119"
             inkscape:connector-curvature="0"
             style="fill:#7e6b71" /></g></g><g
         id="g121"><g
           id="g123"><path
             class="st2"
             d="m 641.279,454.751 0,11.194 14.755,0 0,-11.194 -14.755,0 z"
             id="path125"
             inkscape:connector-curvature="0"
             style="fill:#7e6b71" /></g></g><g
         id="g127"><g
           id="g129"><path
             class="st2"
             d="m 641.279,471.541 0,11.194 92.092,0 0,-11.194 -92.092,0 z"
             id="path131"
             inkscape:connector-curvature="0"
             style="fill:#7e6b71" /></g></g><g
         id="g133"><g
           id="g135"><path
             class="st3"
             d="m 739.986,321.955 0,11.194 23.913,0 0,-11.194 -23.913,0 z"
             id="path137"
             inkscape:connector-curvature="0"
             style="fill:#4ba28f" /></g></g><g
         id="g139"><g
           id="g141"><path
             class="st3"
             d="m 739.986,338.745 0,11.194 21.369,0 0,-11.194 -21.369,0 z"
             id="path143"
             inkscape:connector-curvature="0"
             style="fill:#4ba28f" /></g></g><g
         id="g145"><g
           id="g147"><path
             class="st3"
             d="m 739.986,355.536 0,11.194 5.088,0 0,-11.194 -5.088,0 z"
             id="path149"
             inkscape:connector-curvature="0"
             style="fill:#4ba28f" /></g></g><g
         id="g151"><g
           id="g153"><path
             class="st3"
             d="m 740.495,371.817 0,11.194 12.72,0 0,-11.194 -12.72,0 z"
             id="path155"
             inkscape:connector-curvature="0"
             style="fill:#4ba28f" /></g></g><g
         id="g157"><g
           id="g159"><path
             class="st3"
             d="m 739.986,388.607 0,11.194 4.07,0 0,-11.194 -4.07,0 z"
             id="path161"
             inkscape:connector-curvature="0"
             style="fill:#4ba28f" /></g></g><g
         id="g163"><g
           id="g165"><path
             class="st3"
             d="m 739.986,405.398 0,11.194 0.509,0 0,-11.194 -0.509,0 z"
             id="path167"
             inkscape:connector-curvature="0"
             style="fill:#4ba28f" /></g></g><g
         id="g169"><g
           id="g171"><path
             class="st3"
             d="m 739.986,421.679 0,11.194 10.176,0 0,-11.194 -10.176,0 z"
             id="path173"
             inkscape:connector-curvature="0"
             style="fill:#4ba28f" /></g></g><g
         id="g175"><g
           id="g177"><path
             class="st3"
             d="m 739.986,438.469 0,11.194 10.176,0 0,-11.194 -10.176,0 z"
             id="path179"
             inkscape:connector-curvature="0"
             style="fill:#4ba28f" /></g></g><g
         id="g181"><g
           id="g183"><path
             class="st3"
             d="m 739.986,454.751 0,11.194 8.141,0 0,-11.194 -8.141,0 z"
             id="path185"
             inkscape:connector-curvature="0"
             style="fill:#4ba28f" /></g></g><g
         id="g187"><g
           id="g189"><path
             class="st3"
             d="m 739.986,471.541 0,11.194 44.774,0 0,-11.194 -44.774,0 z"
             id="path191"
             inkscape:connector-curvature="0"
             style="fill:#4ba28f" /></g></g><g
         id="g193"><g
           id="g195"><path
             class="st4"
             d="m 790.866,321.955 0,11.194 1.018,0 0,-11.194 -1.018,0 z"
             id="path197"
             inkscape:connector-curvature="0"
             style="fill:#1a1a1a" /></g></g><g
         id="g199"><g
           id="g201"><path
             class="st1"
             d="m 616.138,338.433 0,11.356 0,0 0,-11.356 z"
             id="path203"
             inkscape:connector-curvature="0"
             style="fill:#668aa3" /></g></g><g
         id="g205"><g
           id="g207"><path
             class="st1"
             d="m 616.138,355.04 0,11.356 0,0 0,-11.356 z"
             id="path209"
             inkscape:connector-curvature="0"
             style="fill:#668aa3" /></g></g><g
         id="g211"><g
           id="g213"><path
             class="st4"
             d="m 790.866,371.817 0,11.194 1.018,0 0,-11.194 -1.018,0 z"
             id="path215"
             inkscape:connector-curvature="0"
             style="fill:#1a1a1a" /></g></g><g
         id="g217"><g
           id="g219"><path
             class="st1"
             d="m 616.138,388.254 0,11.356 0,0 0,-11.356 z"
             id="path221"
             inkscape:connector-curvature="0"
             style="fill:#668aa3" /></g></g><g
         id="g223"><g
           id="g225"><path
             class="st1"
             d="m 616.138,404.861 0,11.356 0,0 0,-11.356 z"
             id="path227"
             inkscape:connector-curvature="0"
             style="fill:#668aa3" /></g></g><g
         id="g229"><g
           id="g231"><path
             class="st4"
             d="m 790.866,421.679 0,11.194 0.509,0 0,-11.194 -0.509,0 z"
             id="path233"
             inkscape:connector-curvature="0"
             style="fill:#1a1a1a" /></g></g><g
         id="g235"><g
           id="g237"><path
             class="st1"
             d="m 616.138,438.076 0,11.356 0,0 0,-11.356 z"
             id="path239"
             inkscape:connector-curvature="0"
             style="fill:#668aa3" /></g></g><g
         id="g241"><g
           id="g243"><path
             class="st1"
             d="m 616.138,454.683 0,11.356 0,0 0,-11.356 z"
             id="path245"
             inkscape:connector-curvature="0"
             style="fill:#668aa3" /></g></g><g
         id="g247"><g
           id="g249"><path
             class="st4"
             d="m 790.866,471.541 0,11.194 2.544,0 0,-11.194 -2.544,0 z"
             id="path251"
             inkscape:connector-curvature="0"
             style="fill:#1a1a1a" /></g></g><g
         id="g253"><path
           class="st1"
           d="M 616.138,488.121"
           id="path255"
           inkscape:connector-curvature="0"
           style="fill:#668aa3" /></g><g
         id="g257"><path
           class="st5"
           d="m 582.19,321.626 3.112,0 c 1.709,0 2.628,0.906 2.628,2.194 0,1.059 -0.638,1.748 -1.378,1.952 0.638,0.179 1.696,0.804 1.696,2.207 0,1.786 -1.339,2.577 -2.896,2.577 l -3.163,0 0,-8.93 z m 2.883,3.84 c 1.543,0 2.13,-0.574 2.13,-1.607 0,-0.88 -0.612,-1.594 -1.862,-1.594 l -2.475,0 0,3.202 2.207,0 z m -2.207,4.451 2.513,0 c 1.174,0 2.156,-0.587 2.156,-1.901 0,-1.135 -0.727,-1.913 -2.526,-1.913 l -2.143,0 0,3.814 z"
           id="path259"
           inkscape:connector-curvature="0"
           style="fill:#333333" /><path
           class="st5"
           d="m 594.359,329.343 c 0,0.561 0.051,1.008 0.089,1.212 l -0.612,0 c -0.051,-0.153 -0.089,-0.434 -0.115,-0.982 -0.217,0.472 -0.778,1.135 -2.092,1.135 -1.48,0 -2.117,-0.957 -2.117,-1.913 0,-1.403 1.084,-2.041 2.998,-2.041 0.536,0 0.957,0 1.212,0 l 0,-0.65 c 0,-0.638 -0.191,-1.492 -1.646,-1.492 -1.288,0 -1.48,0.676 -1.62,1.199 l -0.638,0 c 0.077,-0.702 0.51,-1.786 2.271,-1.786 1.454,0 2.271,0.612 2.271,2.015 l 0,3.303 z m -0.625,-2.04 c -0.242,0 -0.829,0 -1.25,0 -1.416,0 -2.296,0.37 -2.296,1.467 0,0.804 0.574,1.352 1.467,1.352 1.824,0 2.079,-1.212 2.079,-2.589 l 0,-0.23 z"
           id="path261"
           inkscape:connector-curvature="0"
           style="fill:#333333" /><path
           class="st5"
           d="m 596.4,328.795 c 0.217,0.829 0.804,1.327 1.811,1.327 1.135,0 1.594,-0.523 1.594,-1.237 0,-0.727 -0.306,-1.084 -1.735,-1.429 -1.646,-0.395 -2.054,-0.893 -2.054,-1.735 0,-0.88 0.663,-1.697 2.105,-1.697 1.441,0 2.13,0.88 2.232,1.786 l -0.638,0 c -0.115,-0.536 -0.536,-1.199 -1.62,-1.199 -1.11,0 -1.429,0.548 -1.429,1.059 0,0.587 0.306,0.88 1.569,1.186 1.799,0.434 2.245,1.02 2.245,1.977 0,1.161 -0.944,1.875 -2.283,1.875 -1.454,0 -2.271,-0.765 -2.449,-1.913 l 0.652,0 z"
           id="path263"
           inkscape:connector-curvature="0"
           style="fill:#333333" /><path
           class="st5"
           d="m 602.203,327.443 c 0.013,1.645 0.842,2.666 2.066,2.666 1.199,0 1.607,-0.676 1.837,-1.199 l 0.651,0 c -0.268,0.842 -0.944,1.799 -2.513,1.799 -1.939,0 -2.691,-1.671 -2.691,-3.291 0,-1.824 0.906,-3.393 2.768,-3.393 1.964,0 2.589,1.697 2.589,2.896 0,0.179 0,0.357 -0.013,0.523 l -4.694,0 z m 4.044,-0.561 c -0.013,-1.263 -0.702,-2.258 -1.952,-2.258 -1.314,0 -1.913,0.918 -2.054,2.258 l 4.006,0 z"
           id="path265"
           inkscape:connector-curvature="0"
           style="fill:#333333" /><path
           class="st5"
           d="m 608.517,330.555 0,-9.401 0.638,0 0,9.401 -0.638,0 z"
           id="path267"
           inkscape:connector-curvature="0"
           style="fill:#333333" /></g><g
         id="g269"><path
           class="st1"
           d="m 618.548,309.031 c 0.165,1.252 0.875,1.795 1.982,1.795 1.215,0 1.815,-0.547 1.815,-1.533 0,-0.982 -0.386,-1.466 -2.125,-2.037 -1.84,-0.609 -2.738,-1.26 -2.738,-2.742 0,-1.586 1.217,-2.578 2.93,-2.578 2.139,0 3.021,1.212 3.065,2.635 l -1.268,0 c -0.081,-0.846 -0.479,-1.62 -1.799,-1.628 -1.099,-0.008 -1.618,0.575 -1.618,1.408 0,0.838 0.427,1.217 2.045,1.763 2.048,0.69 2.874,1.481 2.874,2.987 0,1.706 -1.147,2.739 -3.224,2.739 -1.972,0 -3.165,-1.019 -3.289,-2.808 l 1.35,0 z m 1.601,4.102 0,-12.248 0.797,0 0,12.248 -0.797,0 z"
           id="path271"
           inkscape:connector-curvature="0"
           style="fill:#668aa3" /></g><g
         id="g273"><path
           class="st2"
           d="m 658.708,309.031 c 0.165,1.252 0.875,1.795 1.982,1.795 1.215,0 1.815,-0.547 1.815,-1.533 0,-0.982 -0.386,-1.466 -2.125,-2.037 -1.84,-0.609 -2.738,-1.26 -2.738,-2.742 0,-1.586 1.217,-2.578 2.93,-2.578 2.139,0 3.021,1.212 3.065,2.635 l -1.268,0 c -0.081,-0.846 -0.479,-1.62 -1.799,-1.628 -1.099,-0.008 -1.618,0.575 -1.618,1.408 0,0.838 0.427,1.217 2.045,1.763 2.047,0.69 2.874,1.481 2.874,2.987 0,1.706 -1.147,2.739 -3.224,2.739 -1.972,0 -3.165,-1.019 -3.289,-2.808 l 1.35,0 z m 1.6,4.102 0,-12.248 0.797,0 0,12.248 -0.797,0 z"
           id="path275"
           inkscape:connector-curvature="0"
           style="fill:#7e6b71" /><path
           class="st2"
           d="m 666.051,309.031 c 0.165,1.252 0.875,1.795 1.982,1.795 1.215,0 1.815,-0.547 1.815,-1.533 0,-0.982 -0.386,-1.466 -2.125,-2.037 -1.84,-0.609 -2.738,-1.26 -2.738,-2.742 0,-1.586 1.217,-2.578 2.93,-2.578 2.139,0 3.021,1.212 3.065,2.635 l -1.268,0 c -0.081,-0.846 -0.479,-1.62 -1.799,-1.628 -1.099,-0.008 -1.618,0.575 -1.618,1.408 0,0.838 0.427,1.217 2.045,1.763 2.048,0.69 2.874,1.481 2.874,2.987 0,1.706 -1.147,2.739 -3.224,2.739 -1.972,0 -3.165,-1.019 -3.289,-2.808 l 1.35,0 z m 1.6,4.102 0,-12.248 0.797,0 0,12.248 -0.797,0 z"
           id="path277"
           inkscape:connector-curvature="0"
           style="fill:#7e6b71" /></g><g
         id="g279"><path
           class="st3"
           d="m 742.122,309.031 c 0.165,1.252 0.875,1.795 1.982,1.795 1.215,0 1.815,-0.547 1.815,-1.533 0,-0.982 -0.386,-1.466 -2.125,-2.037 -1.84,-0.609 -2.738,-1.26 -2.738,-2.742 0,-1.586 1.217,-2.578 2.93,-2.578 2.139,0 3.021,1.212 3.065,2.635 l -1.268,0 c -0.081,-0.846 -0.479,-1.62 -1.799,-1.628 -1.099,-0.008 -1.618,0.575 -1.618,1.408 0,0.838 0.427,1.217 2.045,1.763 2.048,0.69 2.874,1.481 2.874,2.987 0,1.706 -1.147,2.739 -3.224,2.739 -1.972,0 -3.165,-1.019 -3.289,-2.808 l 1.35,0 z m 1.601,4.102 0,-12.248 0.797,0 0,12.248 -0.797,0 z"
           id="path281"
           inkscape:connector-curvature="0"
           style="fill:#4ba28f" /><path
           class="st3"
           d="m 749.465,309.031 c 0.165,1.252 0.875,1.795 1.982,1.795 1.215,0 1.815,-0.547 1.815,-1.533 0,-0.982 -0.386,-1.466 -2.125,-2.037 -1.84,-0.609 -2.738,-1.26 -2.738,-2.742 0,-1.586 1.217,-2.578 2.93,-2.578 2.139,0 3.021,1.212 3.065,2.635 l -1.268,0 c -0.081,-0.846 -0.479,-1.62 -1.799,-1.628 -1.099,-0.008 -1.618,0.575 -1.618,1.408 0,0.838 0.427,1.217 2.045,1.763 2.048,0.69 2.874,1.481 2.874,2.987 0,1.706 -1.147,2.739 -3.224,2.739 -1.972,0 -3.165,-1.019 -3.289,-2.808 l 1.35,0 z m 1.601,4.102 0,-12.248 0.797,0 0,12.248 -0.797,0 z"
           id="path283"
           inkscape:connector-curvature="0"
           style="fill:#4ba28f" /><path
           class="st3"
           d="m 756.808,309.031 c 0.165,1.252 0.875,1.795 1.982,1.795 1.215,0 1.815,-0.547 1.815,-1.533 0,-0.982 -0.386,-1.466 -2.125,-2.037 -1.84,-0.609 -2.738,-1.26 -2.738,-2.742 0,-1.586 1.217,-2.578 2.93,-2.578 2.139,0 3.021,1.212 3.065,2.635 l -1.268,0 c -0.081,-0.846 -0.479,-1.62 -1.799,-1.628 -1.099,-0.008 -1.618,0.575 -1.618,1.408 0,0.838 0.427,1.217 2.045,1.763 2.048,0.69 2.874,1.481 2.874,2.987 0,1.706 -1.147,2.739 -3.224,2.739 -1.972,0 -3.165,-1.019 -3.289,-2.808 l 1.35,0 z m 1.601,4.102 0,-12.248 0.797,0 0,12.248 -0.797,0 z"
           id="path285"
           inkscape:connector-curvature="0"
           style="fill:#4ba28f" /></g><g
         id="g287"><path
           class="st4"
           d="m 777.448,309.031 c 0.165,1.252 0.875,1.795 1.982,1.795 1.215,0 1.815,-0.547 1.815,-1.533 0,-0.982 -0.386,-1.466 -2.125,-2.037 -1.84,-0.609 -2.738,-1.26 -2.738,-2.742 0,-1.586 1.217,-2.578 2.93,-2.578 2.139,0 3.021,1.212 3.065,2.635 l -1.268,0 c -0.081,-0.846 -0.479,-1.62 -1.799,-1.628 -1.099,-0.008 -1.618,0.575 -1.618,1.408 0,0.838 0.427,1.217 2.045,1.763 2.048,0.69 2.874,1.481 2.874,2.987 0,1.706 -1.147,2.739 -3.224,2.739 -1.972,0 -3.165,-1.019 -3.289,-2.808 l 1.35,0 z m 1.601,4.102 0,-12.248 0.797,0 0,12.248 -0.797,0 z"
           id="path289"
           inkscape:connector-curvature="0"
           style="fill:#1a1a1a" /><path
           class="st4"
           d="m 784.791,309.031 c 0.165,1.252 0.875,1.795 1.982,1.795 1.215,0 1.815,-0.547 1.815,-1.533 0,-0.982 -0.386,-1.466 -2.125,-2.037 -1.84,-0.609 -2.738,-1.26 -2.738,-2.742 0,-1.586 1.217,-2.578 2.93,-2.578 2.139,0 3.021,1.212 3.065,2.635 l -1.268,0 c -0.081,-0.846 -0.479,-1.62 -1.799,-1.628 -1.099,-0.008 -1.618,0.575 -1.618,1.408 0,0.838 0.427,1.217 2.045,1.763 2.048,0.69 2.874,1.481 2.874,2.987 0,1.706 -1.147,2.739 -3.224,2.739 -1.972,0 -3.165,-1.019 -3.289,-2.808 l 1.35,0 z m 1.601,4.102 0,-12.248 0.797,0 0,12.248 -0.797,0 z"
           id="path291"
           inkscape:connector-curvature="0"
           style="fill:#1a1a1a" /><path
           class="st4"
           d="m 792.134,309.031 c 0.165,1.252 0.875,1.795 1.982,1.795 1.215,0 1.815,-0.547 1.815,-1.533 0,-0.982 -0.386,-1.466 -2.125,-2.037 -1.84,-0.609 -2.738,-1.26 -2.738,-2.742 0,-1.586 1.217,-2.578 2.93,-2.578 2.139,0 3.021,1.212 3.065,2.635 l -1.268,0 c -0.081,-0.846 -0.479,-1.62 -1.799,-1.628 -1.099,-0.008 -1.618,0.575 -1.618,1.408 0,0.838 0.427,1.217 2.045,1.763 2.048,0.69 2.874,1.481 2.874,2.987 0,1.706 -1.147,2.739 -3.224,2.739 -1.972,0 -3.165,-1.019 -3.289,-2.808 l 1.35,0 z m 1.6,4.102 0,-12.248 0.797,0 0,12.248 -0.797,0 z"
           id="path293"
           inkscape:connector-curvature="0"
           style="fill:#1a1a1a" /><path
           class="st4"
           d="m 799.477,309.031 c 0.165,1.252 0.875,1.795 1.982,1.795 1.215,0 1.815,-0.547 1.815,-1.533 0,-0.982 -0.386,-1.466 -2.125,-2.037 -1.84,-0.609 -2.738,-1.26 -2.738,-2.742 0,-1.586 1.217,-2.578 2.93,-2.578 2.139,0 3.021,1.212 3.065,2.635 l -1.268,0 c -0.081,-0.846 -0.479,-1.62 -1.799,-1.628 -1.099,-0.008 -1.618,0.575 -1.618,1.408 0,0.838 0.427,1.217 2.045,1.763 2.048,0.69 2.874,1.481 2.874,2.987 0,1.706 -1.147,2.739 -3.224,2.739 -1.972,0 -3.165,-1.019 -3.289,-2.808 l 1.35,0 z m 1.6,4.102 0,-12.248 0.797,0 0,12.248 -0.797,0 z"
           id="path295"
           inkscape:connector-curvature="0"
           style="fill:#1a1a1a" /></g><g
         id="g297"><path
           class="st1"
           d="m 619.167,491.283 0,9.413 -2.457,0 0,-7.399 -1.813,0 0,-2.014 4.27,0 z"
           id="path299"
           inkscape:connector-curvature="0"
           style="fill:#668aa3" /><path
           class="st1"
           d="m 627.451,491.269 -2.618,5.519 1.759,0 -0.013,-1.987 2.256,0 0,1.987 1.208,0 0,1.866 -1.208,0 0,2.041 -2.256,0 0,-2.041 -4.257,0 0,-1.651 2.793,-5.734 2.336,0 z"
           id="path301"
           inkscape:connector-curvature="0"
           style="fill:#668aa3" /><path
           class="st1"
           d="m 635.91,494.089 c 0,1.759 -1.021,2.86 -2.632,2.86 -1.611,0 -2.632,-1.101 -2.632,-2.86 0,-1.745 1.021,-2.847 2.632,-2.847 1.611,0 2.632,1.101 2.632,2.847 z m -3.746,0 c 0,0.967 0.416,1.558 1.114,1.558 0.698,0 1.115,-0.591 1.115,-1.558 0,-0.967 -0.416,-1.544 -1.115,-1.544 -0.698,0 -1.114,0.577 -1.114,1.544 z m 9.412,-2.806 -6.7,9.413 -2.242,0 6.7,-9.413 2.242,0 z m 2.041,6.606 c 0,1.759 -1.021,2.86 -2.632,2.86 -1.611,0 -2.632,-1.101 -2.632,-2.86 0,-1.746 1.02,-2.847 2.632,-2.847 1.612,0 2.632,1.101 2.632,2.847 z m -3.746,0 c 0,0.967 0.416,1.558 1.115,1.558 0.699,0 1.114,-0.591 1.114,-1.558 0,-0.967 -0.416,-1.544 -1.114,-1.544 -0.698,0 -1.115,0.577 -1.115,1.544 z"
           id="path303"
           inkscape:connector-curvature="0"
           style="fill:#668aa3" /></g><g
         id="g305"><path
           class="st2"
           d="m 677.681,493.042 c -1.464,0 -2.175,0.94 -2.148,2.471 0.443,-0.631 1.168,-1.007 2.189,-1.007 1.826,0 3.008,1.209 3.008,3.048 0,1.987 -1.396,3.249 -3.464,3.249 -2.498,0 -4.001,-1.786 -4.001,-4.673 0,-3.008 1.678,-4.955 4.27,-4.955 1.047,0 2.216,0.295 2.994,0.779 l -0.9,1.692 c -0.538,-0.39 -1.223,-0.604 -1.948,-0.604 z m -1.893,4.538 c 0,0.685 0.43,1.289 1.383,1.289 0.833,0 1.343,-0.47 1.343,-1.329 0,-0.792 -0.483,-1.276 -1.316,-1.276 -0.9,0 -1.41,0.551 -1.41,1.316 z"
           id="path307"
           inkscape:connector-curvature="0"
           style="fill:#7e6b71" /><path
           class="st2"
           d="m 688.866,495.982 c 0,3.075 -1.316,4.78 -3.679,4.78 -2.39,0 -3.693,-1.705 -3.693,-4.78 0,-3.075 1.302,-4.767 3.693,-4.767 2.363,0 3.679,1.692 3.679,4.767 z m -5.022,0 c 0,2.148 0.389,3.048 1.343,3.048 0.94,0 1.329,-0.9 1.329,-3.048 0,-2.162 -0.389,-3.048 -1.329,-3.048 -0.954,0 -1.343,0.886 -1.343,3.048 z"
           id="path309"
           inkscape:connector-curvature="0"
           style="fill:#7e6b71" /><path
           class="st2"
           d="m 695.001,494.089 c 0,1.759 -1.021,2.86 -2.632,2.86 -1.611,0 -2.632,-1.101 -2.632,-2.86 0,-1.745 1.021,-2.847 2.632,-2.847 1.612,0 2.632,1.101 2.632,2.847 z m -3.746,0 c 0,0.967 0.416,1.558 1.115,1.558 0.698,0 1.115,-0.591 1.115,-1.558 0,-0.967 -0.416,-1.544 -1.115,-1.544 -0.699,0 -1.115,0.577 -1.115,1.544 z m 9.413,-2.806 -6.701,9.413 -2.242,0 6.7,-9.413 2.243,0 z m 2.041,6.606 c 0,1.759 -1.021,2.86 -2.632,2.86 -1.611,0 -2.632,-1.101 -2.632,-2.86 0,-1.746 1.02,-2.847 2.632,-2.847 1.612,0 2.632,1.101 2.632,2.847 z m -3.746,0 c 0,0.967 0.416,1.558 1.115,1.558 0.698,0 1.115,-0.591 1.115,-1.558 0,-0.967 -0.416,-1.544 -1.115,-1.544 -0.699,0 -1.115,0.577 -1.115,1.544 z"
           id="path311"
           inkscape:connector-curvature="0"
           style="fill:#7e6b71" /></g><g
         id="g313"><path
           class="st3"
           d="m 756.544,494.008 c 0,-0.51 -0.389,-0.806 -1.074,-0.806 -0.765,0 -1.732,0.456 -2.605,1.195 l -0.927,-1.813 c 1.208,-0.886 2.524,-1.423 3.894,-1.423 1.907,0 3.29,0.994 3.29,2.484 0,1.021 -0.779,2.081 -1.826,3.142 l -1.934,1.934 4.028,0 0,1.974 -7.17,0 -0.013,-1.625 3.424,-3.518 c 0.523,-0.537 0.913,-1.141 0.913,-1.544 z"
           id="path315"
           inkscape:connector-curvature="0"
           style="fill:#4ba28f" /><path
           class="st3"
           d="m 764.036,494.68 c 2.216,0 3.652,1.168 3.652,2.847 0,1.987 -1.517,3.276 -3.84,3.276 -1.262,0 -2.712,-0.47 -3.733,-1.182 l 0.98,-1.907 c 0.739,0.779 1.598,1.182 2.457,1.182 0.953,0 1.49,-0.43 1.49,-1.195 0,-0.712 -0.537,-1.115 -1.477,-1.115 -0.497,0 -2.041,0.013 -2.632,0.054 l 0,-5.371 6.324,0 0,1.987 -4.069,0 0,1.437 c 0.203,-0.013 0.66,-0.013 0.848,-0.013 z"
           id="path317"
           inkscape:connector-curvature="0"
           style="fill:#4ba28f" /><path
           class="st3"
           d="m 773.851,494.089 c 0,1.759 -1.021,2.86 -2.632,2.86 -1.611,0 -2.632,-1.101 -2.632,-2.86 0,-1.745 1.021,-2.847 2.632,-2.847 1.611,0 2.632,1.101 2.632,2.847 z m -3.747,0 c 0,0.967 0.416,1.558 1.114,1.558 0.698,0 1.115,-0.591 1.115,-1.558 0,-0.967 -0.416,-1.544 -1.115,-1.544 -0.697,0 -1.114,0.577 -1.114,1.544 z m 9.413,-2.806 -6.701,9.413 -2.242,0 6.7,-9.413 2.243,0 z m 2.041,6.606 c 0,1.759 -1.021,2.86 -2.632,2.86 -1.611,0 -2.632,-1.101 -2.632,-2.86 0,-1.746 1.02,-2.847 2.632,-2.847 1.612,0 2.632,1.101 2.632,2.847 z m -3.746,0 c 0,0.967 0.416,1.558 1.115,1.558 0.698,0 1.115,-0.591 1.115,-1.558 0,-0.967 -0.416,-1.544 -1.115,-1.544 -0.699,0 -1.115,0.577 -1.115,1.544 z"
           id="path319"
           inkscape:connector-curvature="0"
           style="fill:#4ba28f" /></g><g
         id="g321"><path
           class="st4"
           d="m 793.373,491.283 0,9.413 -2.457,0 0,-7.399 -1.813,0 0,-2.014 4.27,0 z"
           id="path323"
           inkscape:connector-curvature="0"
           style="fill:#1a1a1a" /><path
           class="st4"
           d="m 801.832,494.089 c 0,1.759 -1.021,2.86 -2.632,2.86 -1.611,0 -2.632,-1.101 -2.632,-2.86 0,-1.745 1.021,-2.847 2.632,-2.847 1.611,0 2.632,1.101 2.632,2.847 z m -3.746,0 c 0,0.967 0.416,1.558 1.115,1.558 0.699,0 1.115,-0.591 1.115,-1.558 0,-0.967 -0.416,-1.544 -1.115,-1.544 -0.699,0 -1.115,0.577 -1.115,1.544 z m 9.413,-2.806 -6.7,9.413 -2.242,0 6.7,-9.413 2.242,0 z m 2.041,6.606 c 0,1.759 -1.021,2.86 -2.632,2.86 -1.611,0 -2.632,-1.101 -2.632,-2.86 0,-1.746 1.021,-2.847 2.632,-2.847 1.611,0 2.632,1.101 2.632,2.847 z m -3.747,0 c 0,0.967 0.416,1.558 1.115,1.558 0.699,0 1.114,-0.591 1.114,-1.558 0,-0.967 -0.416,-1.544 -1.114,-1.544 -0.698,0 -1.115,0.577 -1.115,1.544 z"
           id="path325"
           inkscape:connector-curvature="0"
           style="fill:#1a1a1a" /></g><g
         id="g327"><path
           class="st5"
           d="m 585.979,338.282 3.112,0 c 1.709,0 2.628,0.906 2.628,2.194 0,1.059 -0.638,1.748 -1.378,1.952 0.638,0.179 1.696,0.804 1.696,2.207 0,1.786 -1.339,2.577 -2.896,2.577 l -3.163,0 0,-8.93 z m 2.882,3.84 c 1.543,0 2.13,-0.574 2.13,-1.607 0,-0.88 -0.612,-1.595 -1.862,-1.595 l -2.475,0 0,3.202 2.207,0 z m -2.206,4.451 2.513,0 c 1.174,0 2.156,-0.587 2.156,-1.901 0,-1.135 -0.727,-1.913 -2.526,-1.913 l -2.143,0 0,3.814 z"
           id="path329"
           inkscape:connector-curvature="0"
           style="fill:#333333" /><path
           class="st5"
           d="m 594.002,344.099 c 0.013,1.645 0.842,2.666 2.066,2.666 1.199,0 1.607,-0.676 1.837,-1.199 l 0.651,0 c -0.268,0.842 -0.944,1.799 -2.513,1.799 -1.939,0 -2.691,-1.671 -2.691,-3.291 0,-1.824 0.906,-3.393 2.768,-3.393 1.964,0 2.589,1.697 2.589,2.896 0,0.179 0,0.357 -0.013,0.523 l -4.694,0 z m 4.043,-0.561 c -0.013,-1.263 -0.702,-2.258 -1.952,-2.258 -1.314,0 -1.913,0.918 -2.054,2.258 l 4.006,0 z"
           id="path331"
           inkscape:connector-curvature="0"
           style="fill:#333333" /><path
           class="st5"
           d="m 600.265,342.568 c 0,-1.071 -0.013,-1.531 -0.013,-1.735 l 0.625,0 c 0.013,0.204 0.026,0.612 0.026,1.429 0.37,-0.957 1.186,-1.531 2.219,-1.582 l 0,0.689 c -1.327,0.089 -2.219,1.008 -2.219,2.526 l 0,3.316 -0.638,0 0,-4.643 z"
           id="path333"
           inkscape:connector-curvature="0"
           style="fill:#333333" /><path
           class="st5"
           d="m 604.257,342.441 c 0,-0.561 0,-1.097 -0.013,-1.607 l 0.625,0 c 0.026,0.204 0.038,1.033 0.026,1.212 0.281,-0.65 0.804,-1.365 2.117,-1.365 1.135,0 2.143,0.638 2.143,2.398 l 0,4.133 -0.638,0 0,-4.031 c 0,-1.135 -0.472,-1.875 -1.582,-1.875 -1.518,0 -2.041,1.263 -2.041,2.653 l 0,3.253 -0.638,0 0,-4.771 z"
           id="path335"
           inkscape:connector-curvature="0"
           style="fill:#333333" /></g><g
         id="g337"><path
           class="st5"
           d="m 550.483,354.804 3.112,0 c 1.709,0 2.628,0.906 2.628,2.194 0,1.059 -0.638,1.748 -1.378,1.952 0.638,0.179 1.696,0.804 1.696,2.207 0,1.786 -1.339,2.577 -2.896,2.577 l -3.163,0 0,-8.93 z m 2.882,3.839 c 1.543,0 2.13,-0.574 2.13,-1.607 0,-0.88 -0.612,-1.595 -1.862,-1.595 l -2.475,0 0,3.202 2.207,0 z m -2.206,4.452 2.513,0 c 1.174,0 2.156,-0.587 2.156,-1.901 0,-1.135 -0.727,-1.913 -2.526,-1.913 l -2.143,0 0,3.814 z"
           id="path339"
           inkscape:connector-curvature="0"
           style="fill:#333333" /><path
           class="st5"
           d="m 558.276,354.332 0.638,0 0,1.237 -0.638,0 0,-1.237 z m 0,3.023 0.638,0 0,6.378 -0.638,0 0,-6.378 z"
           id="path341"
           inkscape:connector-curvature="0"
           style="fill:#333333" /><path
           class="st5"
           d="m 561.146,360.621 c 0.013,1.645 0.842,2.666 2.066,2.666 1.199,0 1.607,-0.676 1.837,-1.199 l 0.651,0 c -0.268,0.842 -0.944,1.799 -2.513,1.799 -1.939,0 -2.691,-1.671 -2.691,-3.291 0,-1.824 0.906,-3.393 2.768,-3.393 1.964,0 2.589,1.697 2.589,2.896 0,0.179 0,0.357 -0.013,0.523 l -4.694,0 z m 4.044,-0.562 c -0.013,-1.263 -0.702,-2.258 -1.952,-2.258 -1.314,0 -1.913,0.918 -2.054,2.258 l 4.006,0 z"
           id="path343"
           inkscape:connector-curvature="0"
           style="fill:#333333" /><path
           class="st5"
           d="m 567.46,363.733 0,-9.401 0.638,0 0,9.401 -0.638,0 z"
           id="path345"
           inkscape:connector-curvature="0"
           style="fill:#333333" /><path
           class="st5"
           d="m 569.144,363.889 2.647,-9.442 0.897,0 -2.641,9.442 -0.903,0 z"
           id="path347"
           inkscape:connector-curvature="0"
           style="fill:#333333" /><path
           class="st5"
           d="m 573.938,354.804 3.112,0 c 1.709,0 2.628,0.906 2.628,2.194 0,1.059 -0.638,1.748 -1.378,1.952 0.638,0.179 1.696,0.804 1.696,2.207 0,1.786 -1.339,2.577 -2.896,2.577 l -3.163,0 0,-8.93 z m 2.882,3.839 c 1.543,0 2.13,-0.574 2.13,-1.607 0,-0.88 -0.612,-1.595 -1.862,-1.595 l -2.475,0 0,3.202 2.207,0 z m -2.206,4.452 2.513,0 c 1.174,0 2.156,-0.587 2.156,-1.901 0,-1.135 -0.727,-1.913 -2.526,-1.913 l -2.143,0 0,3.814 z"
           id="path349"
           inkscape:connector-curvature="0"
           style="fill:#333333" /><path
           class="st5"
           d="m 581.731,354.332 0.638,0 0,1.237 -0.638,0 0,-1.237 z m 0,3.023 0.638,0 0,6.378 -0.638,0 0,-6.378 z"
           id="path351"
           inkscape:connector-curvature="0"
           style="fill:#333333" /><path
           class="st5"
           d="m 584.601,360.621 c 0.013,1.645 0.842,2.666 2.066,2.666 1.199,0 1.607,-0.676 1.837,-1.199 l 0.651,0 c -0.268,0.842 -0.944,1.799 -2.513,1.799 -1.939,0 -2.691,-1.671 -2.691,-3.291 0,-1.824 0.906,-3.393 2.768,-3.393 1.964,0 2.589,1.697 2.589,2.896 0,0.179 0,0.357 -0.013,0.523 l -4.694,0 z m 4.044,-0.562 c -0.013,-1.263 -0.702,-2.258 -1.952,-2.258 -1.314,0 -1.913,0.918 -2.054,2.258 l 4.006,0 z"
           id="path353"
           inkscape:connector-curvature="0"
           style="fill:#333333" /><path
           class="st5"
           d="m 590.864,358.962 c 0,-0.561 0,-1.097 -0.013,-1.607 l 0.625,0 c 0.026,0.204 0.038,1.033 0.026,1.212 0.281,-0.65 0.804,-1.365 2.117,-1.365 1.135,0 2.143,0.638 2.143,2.398 l 0,4.133 -0.638,0 0,-4.031 c 0,-1.135 -0.472,-1.875 -1.582,-1.875 -1.518,0 -2.041,1.263 -2.041,2.653 l 0,3.253 -0.638,0 0,-4.771 z"
           id="path355"
           inkscape:connector-curvature="0"
           style="fill:#333333" /><path
           class="st5"
           d="m 597.854,358.962 c 0,-0.561 0,-1.097 -0.013,-1.607 l 0.625,0 c 0.025,0.204 0.038,1.033 0.025,1.212 0.281,-0.65 0.804,-1.365 2.117,-1.365 1.135,0 2.143,0.638 2.143,2.398 l 0,4.133 -0.638,0 0,-4.031 c 0,-1.135 -0.472,-1.875 -1.582,-1.875 -1.518,0 -2.041,1.263 -2.041,2.653 l 0,3.253 -0.638,0 0,-4.771 z"
           id="path357"
           inkscape:connector-curvature="0"
           style="fill:#333333" /><path
           class="st5"
           d="m 604.984,360.621 c 0.013,1.645 0.842,2.666 2.066,2.666 1.199,0 1.607,-0.676 1.837,-1.199 l 0.651,0 c -0.268,0.842 -0.944,1.799 -2.513,1.799 -1.939,0 -2.691,-1.671 -2.691,-3.291 0,-1.824 0.906,-3.393 2.768,-3.393 1.964,0 2.589,1.697 2.589,2.896 0,0.179 0,0.357 -0.013,0.523 l -4.694,0 z m 4.044,-0.562 c -0.013,-1.263 -0.702,-2.258 -1.952,-2.258 -1.314,0 -1.913,0.918 -2.054,2.258 l 4.006,0 z"
           id="path359"
           inkscape:connector-curvature="0"
           style="fill:#333333" /></g><g
         id="g361"><path
           class="st5"
           d="m 576.884,380.523 -0.574,0 c -0.051,-0.102 -0.077,-0.561 -0.089,-1.429 -0.319,0.612 -1.021,1.531 -2.883,1.531 -2.564,0 -3.878,-1.952 -3.878,-4.49 0,-2.666 1.403,-4.669 4.018,-4.669 1.926,0 3.202,1.008 3.482,2.653 l -0.689,0 c -0.383,-1.263 -1.263,-2.015 -2.819,-2.015 -2.232,0 -3.253,1.735 -3.253,3.993 0,2.041 0.982,3.89 3.163,3.89 2.232,0 2.857,-1.454 2.857,-3.431 l 0,-0.102 -2.883,0 0,-0.638 3.546,0 0,4.707 z"
           id="path363"
           inkscape:connector-curvature="0"
           style="fill:#333333" /><path
           class="st5"
           d="m 579.141,377.411 c 0.013,1.645 0.842,2.666 2.066,2.666 1.199,0 1.607,-0.676 1.837,-1.199 l 0.651,0 c -0.268,0.842 -0.944,1.799 -2.513,1.799 -1.939,0 -2.691,-1.671 -2.691,-3.291 0,-1.824 0.906,-3.393 2.768,-3.393 1.964,0 2.589,1.697 2.589,2.896 0,0.179 0,0.357 -0.013,0.523 l -4.694,0 z m 4.044,-0.561 c -0.013,-1.263 -0.702,-2.258 -1.952,-2.258 -1.314,0 -1.913,0.918 -2.054,2.258 l 4.006,0 z"
           id="path365"
           inkscape:connector-curvature="0"
           style="fill:#333333" /><path
           class="st5"
           d="m 585.404,375.753 c 0,-0.561 0,-1.097 -0.013,-1.607 l 0.625,0 c 0.026,0.204 0.038,1.033 0.026,1.212 0.281,-0.65 0.804,-1.365 2.117,-1.365 1.135,0 2.143,0.638 2.143,2.398 l 0,4.133 -0.638,0 0,-4.031 c 0,-1.135 -0.472,-1.875 -1.582,-1.875 -1.518,0 -2.041,1.263 -2.041,2.653 l 0,3.253 -0.638,0 0,-4.771 z"
           id="path367"
           inkscape:connector-curvature="0"
           style="fill:#333333" /><path
           class="st5"
           d="m 592.535,377.411 c 0.013,1.645 0.842,2.666 2.066,2.666 1.199,0 1.607,-0.676 1.837,-1.199 l 0.651,0 c -0.268,0.842 -0.944,1.799 -2.513,1.799 -1.939,0 -2.691,-1.671 -2.691,-3.291 0,-1.824 0.906,-3.393 2.768,-3.393 1.964,0 2.589,1.697 2.589,2.896 0,0.179 0,0.357 -0.013,0.523 l -4.694,0 z m 4.043,-0.561 c -0.013,-1.263 -0.702,-2.258 -1.952,-2.258 -1.314,0 -1.913,0.918 -2.054,2.258 l 4.006,0 z"
           id="path369"
           inkscape:connector-curvature="0"
           style="fill:#333333" /><path
           class="st5"
           d="m 598.823,374.145 c 1.033,2.921 1.748,4.911 1.99,5.727 l 0.013,0 c 0.14,-0.472 0.855,-2.373 2.092,-5.727 l 0.676,0 -2.411,6.378 -0.765,0 -2.271,-6.378 0.676,0 z"
           id="path371"
           inkscape:connector-curvature="0"
           style="fill:#333333" /><path
           class="st5"
           d="m 604.984,377.411 c 0.013,1.645 0.842,2.666 2.066,2.666 1.199,0 1.607,-0.676 1.837,-1.199 l 0.651,0 c -0.268,0.842 -0.944,1.799 -2.513,1.799 -1.939,0 -2.691,-1.671 -2.691,-3.291 0,-1.824 0.906,-3.393 2.768,-3.393 1.964,0 2.589,1.697 2.589,2.896 0,0.179 0,0.357 -0.013,0.523 l -4.694,0 z m 4.044,-0.561 c -0.013,-1.263 -0.702,-2.258 -1.952,-2.258 -1.314,0 -1.913,0.918 -2.054,2.258 l 4.006,0 z"
           id="path373"
           inkscape:connector-curvature="0"
           style="fill:#333333" /></g><g
         id="g375"><path
           class="st5"
           d="m 558.657,388.385 0.689,0 0,8.291 4.796,0 -0.128,0.638 -5.357,0 0,-8.929 z"
           id="path377"
           inkscape:connector-curvature="0"
           style="fill:#333333" /><path
           class="st5"
           d="m 569.856,396.102 c 0,0.561 0.051,1.008 0.089,1.212 l -0.612,0 c -0.051,-0.153 -0.089,-0.434 -0.115,-0.982 -0.217,0.472 -0.778,1.135 -2.092,1.135 -1.48,0 -2.117,-0.957 -2.117,-1.913 0,-1.403 1.084,-2.041 2.998,-2.041 0.536,0 0.957,0 1.212,0 l 0,-0.65 c 0,-0.638 -0.191,-1.492 -1.646,-1.492 -1.288,0 -1.48,0.676 -1.62,1.199 l -0.638,0 c 0.077,-0.702 0.51,-1.786 2.271,-1.786 1.454,0 2.271,0.612 2.271,2.015 l 0,3.303 z m -0.625,-2.041 c -0.242,0 -0.829,0 -1.25,0 -1.416,0 -2.296,0.37 -2.296,1.467 0,0.804 0.574,1.352 1.467,1.352 1.824,0 2.079,-1.212 2.079,-2.589 l 0,-0.23 z"
           id="path379"
           inkscape:connector-curvature="0"
           style="fill:#333333" /><path
           class="st5"
           d="m 576.655,395.451 c 0,0.625 0.013,1.62 0.013,1.862 l -0.612,0 c -0.025,-0.166 -0.038,-0.587 -0.038,-1.11 -0.268,0.753 -0.918,1.263 -2.054,1.263 -0.918,0 -2.092,-0.357 -2.092,-2.309 l 0,-4.222 0.625,0 0,4.069 c 0,0.931 0.293,1.837 1.556,1.837 1.429,0 1.964,-0.804 1.964,-2.628 l 0,-3.278 0.638,0 0,4.516 z"
           id="path381"
           inkscape:connector-curvature="0"
           style="fill:#333333" /><path
           class="st5"
           d="m 578.67,395.553 c 0.217,0.829 0.804,1.327 1.811,1.327 1.135,0 1.594,-0.523 1.594,-1.237 0,-0.727 -0.306,-1.084 -1.735,-1.429 -1.646,-0.395 -2.054,-0.893 -2.054,-1.735 0,-0.88 0.663,-1.696 2.105,-1.696 1.441,0 2.13,0.88 2.232,1.786 l -0.638,0 c -0.115,-0.536 -0.536,-1.199 -1.62,-1.199 -1.11,0 -1.429,0.548 -1.429,1.059 0,0.587 0.306,0.88 1.569,1.186 1.799,0.434 2.245,1.021 2.245,1.977 0,1.161 -0.944,1.875 -2.283,1.875 -1.454,0 -2.271,-0.765 -2.449,-1.913 l 0.652,0 z"
           id="path383"
           inkscape:connector-curvature="0"
           style="fill:#333333" /><path
           class="st5"
           d="m 588.759,396.102 c 0,0.561 0.051,1.008 0.089,1.212 l -0.612,0 c -0.051,-0.153 -0.089,-0.434 -0.115,-0.982 -0.217,0.472 -0.778,1.135 -2.092,1.135 -1.48,0 -2.117,-0.957 -2.117,-1.913 0,-1.403 1.084,-2.041 2.998,-2.041 0.536,0 0.957,0 1.212,0 l 0,-0.65 c 0,-0.638 -0.191,-1.492 -1.646,-1.492 -1.288,0 -1.48,0.676 -1.62,1.199 l -0.638,0 c 0.077,-0.702 0.51,-1.786 2.271,-1.786 1.454,0 2.271,0.612 2.271,2.015 l 0,3.303 z m -0.625,-2.041 c -0.242,0 -0.829,0 -1.25,0 -1.416,0 -2.296,0.37 -2.296,1.467 0,0.804 0.574,1.352 1.467,1.352 1.824,0 2.079,-1.212 2.079,-2.589 l 0,-0.23 z"
           id="path385"
           inkscape:connector-curvature="0"
           style="fill:#333333" /><path
           class="st5"
           d="m 590.864,392.543 c 0,-0.561 0,-1.097 -0.013,-1.607 l 0.625,0 c 0.026,0.204 0.038,1.033 0.026,1.212 0.281,-0.651 0.804,-1.365 2.117,-1.365 1.135,0 2.143,0.638 2.143,2.398 l 0,4.133 -0.638,0 0,-4.031 c 0,-1.135 -0.472,-1.875 -1.582,-1.875 -1.518,0 -2.041,1.263 -2.041,2.653 l 0,3.253 -0.638,0 0,-4.771 z"
           id="path387"
           inkscape:connector-curvature="0"
           style="fill:#333333" /><path
           class="st5"
           d="m 597.854,392.543 c 0,-0.561 0,-1.097 -0.013,-1.607 l 0.625,0 c 0.025,0.204 0.038,1.033 0.025,1.212 0.281,-0.651 0.804,-1.365 2.117,-1.365 1.135,0 2.143,0.638 2.143,2.398 l 0,4.133 -0.638,0 0,-4.031 c 0,-1.135 -0.472,-1.875 -1.582,-1.875 -1.518,0 -2.041,1.263 -2.041,2.653 l 0,3.253 -0.638,0 0,-4.771 z"
           id="path389"
           inkscape:connector-curvature="0"
           style="fill:#333333" /><path
           class="st5"
           d="m 604.984,394.201 c 0.013,1.646 0.842,2.666 2.066,2.666 1.199,0 1.607,-0.676 1.837,-1.199 l 0.651,0 c -0.268,0.842 -0.944,1.798 -2.513,1.798 -1.939,0 -2.691,-1.671 -2.691,-3.291 0,-1.824 0.906,-3.393 2.768,-3.393 1.964,0 2.589,1.696 2.589,2.896 0,0.179 0,0.357 -0.013,0.523 l -4.694,0 z m 4.044,-0.561 c -0.013,-1.263 -0.702,-2.258 -1.952,-2.258 -1.314,0 -1.913,0.918 -2.054,2.258 l 4.006,0 z"
           id="path391"
           inkscape:connector-curvature="0"
           style="fill:#333333" /></g><g
         id="g393"><path
           class="st5"
           d="m 570.736,405.175 0.689,0 0,8.291 4.796,0 -0.128,0.638 -5.357,0 0,-8.929 z"
           id="path395"
           inkscape:connector-curvature="0"
           style="fill:#333333" /><path
           class="st5"
           d="m 582.088,412.242 c 0,0.625 0.013,1.62 0.013,1.862 l -0.612,0 c -0.026,-0.166 -0.038,-0.587 -0.038,-1.11 -0.268,0.753 -0.918,1.263 -2.054,1.263 -0.918,0 -2.092,-0.357 -2.092,-2.309 l 0,-4.222 0.625,0 0,4.069 c 0,0.931 0.293,1.837 1.556,1.837 1.429,0 1.964,-0.804 1.964,-2.628 l 0,-3.278 0.638,0 0,4.516 z"
           id="path397"
           inkscape:connector-curvature="0"
           style="fill:#333333" /><path
           class="st5"
           d="m 589.053,413.67 c 0,2.041 -0.906,3.112 -2.755,3.112 -1.658,0 -2.347,-0.931 -2.5,-1.901 l 0.651,0 c 0.23,0.88 0.957,1.301 1.875,1.301 1.658,0 2.117,-1.072 2.117,-2.692 l 0,-0.663 c -0.344,0.829 -0.969,1.276 -2.13,1.276 -1.492,0 -2.64,-1.212 -2.64,-3.189 0,-2.143 1.225,-3.342 2.73,-3.342 1.301,0 1.862,0.612 2.041,1.123 0.013,-0.37 0.026,-0.816 0.038,-0.97 l 0.599,0 c 0,0.23 -0.026,1.237 -0.026,1.85 l 0,4.095 z m -4.707,-2.781 c 0,1.518 0.804,2.615 2.028,2.615 1.594,0 2.079,-1.059 2.079,-2.717 0,-1.684 -0.51,-2.615 -2.041,-2.615 -1.467,0 -2.066,1.263 -2.066,2.717 z"
           id="path399"
           inkscape:connector-curvature="0"
           style="fill:#333333" /><path
           class="st5"
           d="m 595.405,412.892 c 0,0.561 0.051,1.008 0.089,1.212 l -0.612,0 c -0.051,-0.153 -0.089,-0.434 -0.115,-0.982 -0.217,0.472 -0.778,1.135 -2.092,1.135 -1.48,0 -2.117,-0.957 -2.117,-1.913 0,-1.403 1.084,-2.041 2.998,-2.041 0.536,0 0.957,0 1.212,0 l 0,-0.65 c 0,-0.638 -0.191,-1.492 -1.646,-1.492 -1.288,0 -1.48,0.676 -1.62,1.199 l -0.638,0 c 0.077,-0.702 0.51,-1.786 2.271,-1.786 1.454,0 2.271,0.612 2.271,2.015 l 0,3.303 z m -0.625,-2.041 c -0.242,0 -0.829,0 -1.25,0 -1.416,0 -2.296,0.37 -2.296,1.467 0,0.804 0.574,1.352 1.467,1.352 1.824,0 2.079,-1.212 2.079,-2.589 l 0,-0.23 z"
           id="path401"
           inkscape:connector-curvature="0"
           style="fill:#333333" /><path
           class="st5"
           d="m 597.51,409.333 c 0,-0.561 0,-1.097 -0.013,-1.607 l 0.625,0 c 0.026,0.204 0.038,1.033 0.026,1.212 0.281,-0.65 0.804,-1.365 2.117,-1.365 1.135,0 2.143,0.638 2.143,2.398 l 0,4.133 -0.638,0 0,-4.031 c 0,-1.135 -0.472,-1.875 -1.582,-1.875 -1.518,0 -2.041,1.263 -2.041,2.653 l 0,3.253 -0.638,0 0,-4.771 z"
           id="path403"
           inkscape:connector-curvature="0"
           style="fill:#333333" /><path
           class="st5"
           d="m 609.666,410.902 c 0,1.773 -0.982,3.355 -2.883,3.355 -1.722,0 -2.794,-1.416 -2.794,-3.342 0,-1.824 1.008,-3.342 2.857,-3.342 1.697,0 2.82,1.327 2.82,3.329 z m -5.001,0.013 c 0,1.518 0.816,2.742 2.168,2.742 1.378,0 2.156,-1.135 2.156,-2.742 0,-1.505 -0.765,-2.743 -2.181,-2.743 -1.454,0 -2.143,1.212 -2.143,2.743 z"
           id="path405"
           inkscape:connector-curvature="0"
           style="fill:#333333" /></g><g
         id="g407"><path
           class="st5"
           d="m 574.996,421.456 0.689,0 0,8.291 4.796,0 -0.128,0.638 -5.357,0 0,-8.929 z"
           id="path409"
           inkscape:connector-curvature="0"
           style="fill:#333333" /><path
           class="st5"
           d="m 586.349,428.523 c 0,0.625 0.013,1.62 0.013,1.862 l -0.612,0 c -0.025,-0.166 -0.038,-0.587 -0.038,-1.11 -0.268,0.753 -0.918,1.263 -2.054,1.263 -0.918,0 -2.092,-0.357 -2.092,-2.309 l 0,-4.222 0.625,0 0,4.069 c 0,0.931 0.293,1.837 1.556,1.837 1.429,0 1.964,-0.804 1.964,-2.628 l 0,-3.278 0.638,0 0,4.516 z"
           id="path411"
           inkscape:connector-curvature="0"
           style="fill:#333333" /><path
           class="st5"
           d="m 587.675,429.799 4.031,-5.192 -3.827,0 0,-0.6 4.567,0 0,0.612 -3.98,5.166 4.12,0 -0.153,0.599 -4.758,0 0,-0.585 z"
           id="path413"
           inkscape:connector-curvature="0"
           style="fill:#333333" /><path
           class="st5"
           d="m 594.002,427.273 c 0.013,1.646 0.842,2.666 2.066,2.666 1.199,0 1.607,-0.676 1.837,-1.199 l 0.651,0 c -0.268,0.842 -0.944,1.798 -2.513,1.798 -1.939,0 -2.691,-1.671 -2.691,-3.291 0,-1.824 0.906,-3.393 2.768,-3.393 1.964,0 2.589,1.696 2.589,2.896 0,0.179 0,0.357 -0.013,0.523 l -4.694,0 z m 4.043,-0.561 c -0.013,-1.263 -0.702,-2.258 -1.952,-2.258 -1.314,0 -1.913,0.918 -2.054,2.258 l 4.006,0 z"
           id="path415"
           inkscape:connector-curvature="0"
           style="fill:#333333" /><path
           class="st5"
           d="m 600.265,425.742 c 0,-1.072 -0.013,-1.531 -0.013,-1.735 l 0.625,0 c 0.013,0.204 0.026,0.612 0.026,1.429 0.37,-0.957 1.186,-1.531 2.219,-1.582 l 0,0.689 c -1.327,0.089 -2.219,1.008 -2.219,2.526 l 0,3.316 -0.638,0 0,-4.643 z"
           id="path417"
           inkscape:connector-curvature="0"
           style="fill:#333333" /><path
           class="st5"
           d="m 604.257,425.615 c 0,-0.561 0,-1.097 -0.013,-1.607 l 0.625,0 c 0.026,0.204 0.038,1.033 0.026,1.212 0.281,-0.65 0.804,-1.365 2.117,-1.365 1.135,0 2.143,0.638 2.143,2.398 l 0,4.133 -0.638,0 0,-4.031 c 0,-1.135 -0.472,-1.875 -1.582,-1.875 -1.518,0 -2.041,1.263 -2.041,2.653 l 0,3.253 -0.638,0 0,-4.771 z"
           id="path419"
           inkscape:connector-curvature="0"
           style="fill:#333333" /></g><g
         id="g421"><path
           class="st5"
           d="m 560.022,444.777 c 0.268,1.186 1.059,1.888 2.526,1.888 1.633,0 2.258,-0.816 2.258,-1.786 0,-1.008 -0.446,-1.633 -2.411,-2.117 -1.888,-0.472 -2.704,-1.084 -2.704,-2.373 0,-1.173 0.855,-2.271 2.768,-2.271 1.964,0 2.794,1.199 2.908,2.283 l -0.714,0 c -0.204,-0.957 -0.829,-1.646 -2.232,-1.646 -1.288,0 -1.99,0.6 -1.99,1.595 0,0.982 0.587,1.365 2.232,1.773 2.513,0.625 2.883,1.633 2.883,2.704 0,1.314 -0.957,2.449 -3.023,2.449 -2.232,0 -3.049,-1.301 -3.214,-2.5 l 0.713,0 z"
           id="path423"
           inkscape:connector-curvature="0"
           style="fill:#333333" /><path
           class="st5"
           d="m 566.323,440.798 1.186,0 0,-1.99 0.638,0 0,1.99 1.518,0 0,0.6 -1.518,0 0,4.146 c 0,0.714 0.153,1.123 0.765,1.123 0.191,0 0.459,-0.013 0.663,-0.077 l 0,0.561 c -0.217,0.089 -0.523,0.115 -0.791,0.115 -0.816,0 -1.276,-0.408 -1.276,-1.429 l 0,-4.439 -1.186,0 0,-0.6 z"
           id="path425"
           inkscape:connector-curvature="0"
           style="fill:#333333" /><path
           class="st5"
           d="m 570.94,447.176 0,-1.645 0.638,0 0,1.645 -0.638,0 z"
           id="path427"
           inkscape:connector-curvature="0"
           style="fill:#333333" /><path
           class="st5"
           d="m 583.798,447.176 -0.574,0 c -0.051,-0.102 -0.077,-0.561 -0.089,-1.429 -0.319,0.612 -1.02,1.531 -2.883,1.531 -2.564,0 -3.878,-1.952 -3.878,-4.49 0,-2.666 1.403,-4.669 4.018,-4.669 1.926,0 3.202,1.008 3.482,2.653 l -0.689,0 c -0.383,-1.263 -1.263,-2.015 -2.819,-2.015 -2.232,0 -3.253,1.735 -3.253,3.993 0,2.041 0.982,3.891 3.163,3.891 2.232,0 2.857,-1.454 2.857,-3.431 l 0,-0.102 -2.883,0 0,-0.638 3.546,0 0,4.706 z"
           id="path429"
           inkscape:connector-curvature="0"
           style="fill:#333333" /><path
           class="st5"
           d="m 590.29,445.964 c 0,0.561 0.051,1.008 0.089,1.212 l -0.612,0 c -0.051,-0.153 -0.089,-0.434 -0.115,-0.982 -0.217,0.472 -0.778,1.135 -2.092,1.135 -1.48,0 -2.117,-0.957 -2.117,-1.913 0,-1.403 1.084,-2.041 2.998,-2.041 0.536,0 0.957,0 1.212,0 l 0,-0.651 c 0,-0.638 -0.191,-1.492 -1.646,-1.492 -1.288,0 -1.48,0.676 -1.62,1.199 l -0.638,0 c 0.076,-0.702 0.51,-1.786 2.271,-1.786 1.454,0 2.271,0.612 2.271,2.015 l 0,3.304 z m -0.625,-2.041 c -0.242,0 -0.829,0 -1.25,0 -1.416,0 -2.296,0.37 -2.296,1.467 0,0.803 0.574,1.352 1.467,1.352 1.824,0 2.079,-1.212 2.079,-2.589 l 0,-0.23 z"
           id="path431"
           inkscape:connector-curvature="0"
           style="fill:#333333" /><path
           class="st5"
           d="m 592.395,447.176 0,-9.401 0.638,0 0,9.401 -0.638,0 z"
           id="path433"
           inkscape:connector-curvature="0"
           style="fill:#333333" /><path
           class="st5"
           d="m 595.124,447.176 0,-9.401 0.638,0 0,9.401 -0.638,0 z"
           id="path435"
           inkscape:connector-curvature="0"
           style="fill:#333333" /><path
           class="st5"
           d="m 597.994,444.063 c 0.013,1.646 0.842,2.666 2.066,2.666 1.199,0 1.607,-0.676 1.837,-1.199 l 0.651,0 c -0.268,0.842 -0.944,1.798 -2.513,1.798 -1.939,0 -2.691,-1.671 -2.691,-3.291 0,-1.824 0.906,-3.393 2.768,-3.393 1.964,0 2.589,1.696 2.589,2.896 0,0.179 0,0.357 -0.013,0.523 l -4.694,0 z m 4.044,-0.561 c -0.013,-1.263 -0.702,-2.258 -1.952,-2.258 -1.314,0 -1.913,0.918 -2.054,2.258 l 4.006,0 z"
           id="path437"
           inkscape:connector-curvature="0"
           style="fill:#333333" /><path
           class="st5"
           d="m 604.257,442.405 c 0,-0.561 0,-1.097 -0.013,-1.607 l 0.625,0 c 0.026,0.204 0.038,1.033 0.026,1.212 0.281,-0.65 0.804,-1.365 2.117,-1.365 1.135,0 2.143,0.638 2.143,2.398 l 0,4.133 -0.638,0 0,-4.031 c 0,-1.135 -0.472,-1.875 -1.582,-1.875 -1.518,0 -2.041,1.263 -2.041,2.653 l 0,3.253 -0.638,0 0,-4.771 z"
           id="path439"
           inkscape:connector-curvature="0"
           style="fill:#333333" /></g><g
         id="g441"><path
           class="st5"
           d="m 555.57,463.457 -2.475,-8.929 0.714,0 c 0.6,2.143 1.952,7.079 2.156,8.125 l 0.013,0 c 0.166,-0.829 1.633,-5.766 2.258,-8.125 l 0.765,0 c 0.587,2.181 2.015,7.424 2.156,8.113 l 0.013,0 c 0.281,-1.263 1.773,-5.982 2.385,-8.113 l 0.702,0 -2.73,8.929 -0.791,0 c -0.587,-2.105 -1.977,-7.271 -2.13,-8.036 l -0.013,0 c -0.23,1.161 -1.607,5.817 -2.245,8.036 l -0.778,0 z"
           id="path443"
           inkscape:connector-curvature="0"
           style="fill:#333333" /><path
           class="st5"
           d="m 565.481,454.056 0.638,0 0,1.237 -0.638,0 0,-1.237 z m 0,3.023 0.638,0 0,6.378 -0.638,0 0,-6.378 z"
           id="path445"
           inkscape:connector-curvature="0"
           style="fill:#333333" /><path
           class="st5"
           d="m 568.211,458.686 c 0,-0.561 0,-1.097 -0.013,-1.607 l 0.625,0 c 0.026,0.204 0.038,1.033 0.026,1.212 0.281,-0.651 0.804,-1.365 2.117,-1.365 1.135,0 2.143,0.638 2.143,2.398 l 0,4.133 -0.638,0 0,-4.031 c 0,-1.135 -0.472,-1.875 -1.582,-1.875 -1.518,0 -2.041,1.263 -2.041,2.653 l 0,3.253 -0.638,0 0,-4.771 z"
           id="path447"
           inkscape:connector-curvature="0"
           style="fill:#333333" /><path
           class="st5"
           d="m 574.206,457.079 1.186,0 0,-1.99 0.638,0 0,1.99 1.518,0 0,0.6 -1.518,0 0,4.146 c 0,0.714 0.153,1.123 0.765,1.123 0.191,0 0.459,-0.013 0.663,-0.077 l 0,0.561 c -0.217,0.089 -0.523,0.115 -0.791,0.115 -0.816,0 -1.276,-0.408 -1.276,-1.429 l 0,-4.439 -1.186,0 0,-0.6 z"
           id="path449"
           inkscape:connector-curvature="0"
           style="fill:#333333" /><path
           class="st5"
           d="m 578.912,460.345 c 0.013,1.646 0.842,2.666 2.066,2.666 1.199,0 1.607,-0.676 1.837,-1.199 l 0.651,0 c -0.268,0.842 -0.944,1.798 -2.513,1.798 -1.939,0 -2.691,-1.671 -2.691,-3.291 0,-1.824 0.906,-3.393 2.768,-3.393 1.964,0 2.589,1.696 2.589,2.896 0,0.179 0,0.357 -0.013,0.523 l -4.694,0 z m 4.044,-0.562 c -0.013,-1.263 -0.702,-2.258 -1.952,-2.258 -1.314,0 -1.913,0.918 -2.054,2.258 l 4.006,0 z"
           id="path451"
           inkscape:connector-curvature="0"
           style="fill:#333333" /><path
           class="st5"
           d="m 585.175,458.814 c 0,-1.072 -0.013,-1.531 -0.013,-1.735 l 0.625,0 c 0.013,0.204 0.026,0.612 0.026,1.429 0.37,-0.957 1.186,-1.531 2.219,-1.582 l 0,0.689 c -1.327,0.089 -2.219,1.008 -2.219,2.526 l 0,3.316 -0.638,0 0,-4.643 z"
           id="path453"
           inkscape:connector-curvature="0"
           style="fill:#333333" /><path
           class="st5"
           d="m 588.747,457.079 1.186,0 0,-1.99 0.638,0 0,1.99 1.518,0 0,0.6 -1.518,0 0,4.146 c 0,0.714 0.153,1.123 0.765,1.123 0.191,0 0.459,-0.013 0.663,-0.077 l 0,0.561 c -0.217,0.089 -0.523,0.115 -0.791,0.115 -0.816,0 -1.276,-0.408 -1.276,-1.429 l 0,-4.439 -1.186,0 0,-0.6 z"
           id="path455"
           inkscape:connector-curvature="0"
           style="fill:#333333" /><path
           class="st5"
           d="m 593.989,454.056 0,4.095 c 0.357,-0.663 0.982,-1.225 2.105,-1.225 0.906,0 2.156,0.459 2.156,2.475 l 0,4.056 -0.638,0 0,-3.929 c 0,-1.263 -0.574,-1.977 -1.633,-1.977 -1.263,0 -1.99,0.778 -1.99,2.347 l 0,3.559 -0.638,0 0,-9.401 0.638,0 z"
           id="path457"
           inkscape:connector-curvature="0"
           style="fill:#333333" /><path
           class="st5"
           d="m 605.023,461.595 c 0,0.625 0.013,1.62 0.013,1.862 l -0.612,0 c -0.026,-0.166 -0.038,-0.587 -0.038,-1.11 -0.268,0.753 -0.918,1.263 -2.054,1.263 -0.918,0 -2.092,-0.357 -2.092,-2.309 l 0,-4.222 0.625,0 0,4.069 c 0,0.931 0.293,1.837 1.556,1.837 1.429,0 1.964,-0.804 1.964,-2.628 l 0,-3.278 0.638,0 0,4.516 z"
           id="path459"
           inkscape:connector-curvature="0"
           style="fill:#333333" /><path
           class="st5"
           d="m 607.114,458.814 c 0,-1.072 -0.013,-1.531 -0.013,-1.735 l 0.625,0 c 0.013,0.204 0.026,0.612 0.026,1.429 0.37,-0.957 1.186,-1.531 2.219,-1.582 l 0,0.689 c -1.327,0.089 -2.219,1.008 -2.219,2.526 l 0,3.316 -0.638,0 0,-4.643 z"
           id="path461"
           inkscape:connector-curvature="0"
           style="fill:#333333" /></g><g
         id="g463"><path
           class="st5"
           d="m 576.451,479.673 5.791,-7.717 -5.485,0 0,-0.638 6.301,0 0,0.599 -5.753,7.692 5.868,0 -0.115,0.638 -6.608,0 0,-0.574 z"
           id="path465"
           inkscape:connector-curvature="0"
           style="fill:#333333" /><path
           class="st5"
           d="m 589.232,478.385 c 0,0.625 0.013,1.62 0.013,1.862 l -0.612,0 c -0.026,-0.166 -0.038,-0.587 -0.038,-1.11 -0.268,0.753 -0.918,1.263 -2.054,1.263 -0.918,0 -2.092,-0.357 -2.092,-2.309 l 0,-4.222 0.625,0 0,4.069 c 0,0.931 0.293,1.837 1.556,1.837 1.429,0 1.964,-0.804 1.964,-2.628 l 0,-3.278 0.638,0 0,4.516 z"
           id="path467"
           inkscape:connector-curvature="0"
           style="fill:#333333" /><path
           class="st5"
           d="m 591.323,475.604 c 0,-1.072 -0.013,-1.531 -0.013,-1.735 l 0.625,0 c 0.013,0.204 0.026,0.612 0.026,1.429 0.37,-0.957 1.186,-1.531 2.22,-1.582 l 0,0.689 c -1.327,0.089 -2.22,1.008 -2.22,2.526 l 0,3.316 -0.638,0 0,-4.643 z"
           id="path469"
           inkscape:connector-curvature="0"
           style="fill:#333333" /><path
           class="st5"
           d="m 595.354,470.846 0.638,0 0,1.237 -0.638,0 0,-1.237 z m 0,3.024 0.638,0 0,6.378 -0.638,0 0,-6.378 z"
           id="path471"
           inkscape:connector-curvature="0"
           style="fill:#333333" /><path
           class="st5"
           d="m 602.778,478.372 c -0.306,1.122 -1.046,2.028 -2.475,2.028 -1.594,0 -2.73,-1.186 -2.73,-3.316 0,-1.747 0.931,-3.367 2.806,-3.367 1.62,0 2.283,1.148 2.398,2.041 l -0.651,0 c -0.191,-0.74 -0.676,-1.441 -1.76,-1.441 -1.352,0 -2.117,1.148 -2.117,2.743 0,1.518 0.714,2.742 2.054,2.742 0.931,0 1.492,-0.472 1.824,-1.429 l 0.651,0 z"
           id="path473"
           inkscape:connector-curvature="0"
           style="fill:#333333" /><path
           class="st5"
           d="m 604.895,470.846 0,4.095 c 0.357,-0.663 0.982,-1.225 2.105,-1.225 0.906,0 2.156,0.459 2.156,2.475 l 0,4.056 -0.638,0 0,-3.929 c 0,-1.263 -0.574,-1.977 -1.633,-1.977 -1.263,0 -1.99,0.778 -1.99,2.347 l 0,3.559 -0.638,0 0,-9.401 0.638,0 z"
           id="path475"
           inkscape:connector-curvature="0"
           style="fill:#333333" /></g><g
         id="g477"><path
           class="st0"
           d="m 576.214,493.555 -2.672,0 0,-1.559 7.237,0 0,1.559 -2.662,0 0,7.236 -1.903,0 0,-7.236 z"
           id="path479"
           inkscape:connector-curvature="0"
           style="fill:#666666" /><path
           class="st0"
           d="m 586.741,497.477 c 0,1.998 -1.196,3.467 -3.287,3.467 -2.048,0 -3.243,-1.461 -3.243,-3.432 0,-2.038 1.232,-3.477 3.329,-3.477 1.944,0 3.201,1.372 3.201,3.442 z m -4.675,0.012 c 0,1.271 0.547,2.024 1.427,2.024 0.895,0 1.392,-0.753 1.392,-2.013 0,-1.382 -0.507,-2.035 -1.418,-2.035 -0.847,0.001 -1.401,0.628 -1.401,2.024 z"
           id="path481"
           inkscape:connector-curvature="0"
           style="fill:#666666" /><path
           class="st0"
           d="m 587.316,494.188 1.018,0 0,-1.788 1.828,0 0,1.788 1.293,0 0,1.374 -1.293,0 0,3.259 c 0,0.501 0.153,0.696 0.698,0.696 0.102,0 0.28,-10e-4 0.416,-0.02 l 0,1.257 c -0.363,0.123 -0.86,0.126 -1.229,0.126 -1.288,0 -1.714,-0.689 -1.714,-1.844 l 0,-3.473 -1.018,0 0,-1.375 z"
           id="path483"
           inkscape:connector-curvature="0"
           style="fill:#666666" /><path
           class="st0"
           d="m 597.987,499.085 c 0,0.629 0.051,1.547 0.089,1.706 l -1.746,0 c -0.051,-0.131 -0.089,-0.479 -0.092,-0.645 -0.239,0.371 -0.688,0.798 -1.856,0.798 -1.592,0 -2.263,-1.046 -2.263,-2.071 0,-1.504 1.208,-2.198 3.144,-2.198 0.322,0 0.721,0 0.942,0 l 0,-0.403 c 0,-0.469 -0.169,-0.931 -1.017,-0.931 -0.772,0 -0.941,0.328 -1.025,0.806 l -1.738,0 c 0.099,-1.173 0.825,-2.123 2.832,-2.111 1.769,0.011 2.731,0.702 2.731,2.274 l 0,2.775 z m -1.781,-1.3 c -0.153,0 -0.504,0 -0.745,0 -1.101,0 -1.51,0.336 -1.51,0.973 0,0.478 0.293,0.88 0.95,0.88 1.162,0 1.304,-0.808 1.304,-1.68 l 0,-0.173 z"
           id="path485"
           inkscape:connector-curvature="0"
           style="fill:#666666" /><path
           class="st0"
           d="m 599.643,500.791 0,-9.311 1.828,0 0,9.311 -1.828,0 z"
           id="path487"
           inkscape:connector-curvature="0"
           style="fill:#666666" /><path
           class="st0"
           d="m 603.475,496.373 0,-2.128 1.904,0 0,2.128 -1.904,0 z m 0,4.418 0,-2.13 1.904,0 0,2.13 -1.904,0 z"
           id="path489"
           inkscape:connector-curvature="0"
           style="fill:#666666" /></g></g><g
       id="g491"><path
         class="st6"
         d="m 650.346,282.383 0,5.278 -0.963,0 0,-11.114 c 0,-0.79 0,-1.637 -0.019,-2.369 l 0.944,0 c 0.039,0.366 0.039,0.944 0.039,1.734 0.597,-1.156 1.656,-1.965 3.39,-1.965 2.273,0 3.852,1.907 3.852,4.796 0,3.467 -1.849,5.297 -4.18,5.297 -1.695,-0.001 -2.581,-0.752 -3.063,-1.657 z m 6.222,-3.602 c 0,-2.234 -1.079,-3.91 -2.985,-3.91 -2.331,0 -3.294,1.464 -3.294,4.083 0,2.581 0.751,4.18 3.159,4.18 2.003,0 3.12,-1.695 3.12,-4.353 z"
         id="path493"
         inkscape:connector-curvature="0"
         style="fill:#ffffff" /><path
         class="st6"
         d="m 659.996,276.797 c 0,-1.618 -0.019,-2.311 -0.019,-2.62 l 0.944,0 c 0.019,0.308 0.039,0.924 0.039,2.157 0.559,-1.445 1.791,-2.311 3.351,-2.388 l 0,1.04 c -2.003,0.135 -3.351,1.522 -3.351,3.814 l 0,5.008 -0.963,0 0,-7.011 z"
         id="path495"
         inkscape:connector-curvature="0"
         style="fill:#ffffff" /><path
         class="st6"
         d="m 666.082,269.612 0.963,0 0,1.868 -0.963,0 0,-1.868 z m 0,4.565 0.963,0 0,9.631 -0.963,0 0,-9.631 z"
         id="path497"
         inkscape:connector-curvature="0"
         style="fill:#ffffff" /><path
         class="st6"
         d="m 677.292,280.977 c -0.462,1.695 -1.579,3.063 -3.737,3.063 -2.408,0 -4.122,-1.791 -4.122,-5.008 0,-2.639 1.406,-5.085 4.237,-5.085 2.446,0 3.448,1.734 3.621,3.082 l -0.982,0 c -0.289,-1.117 -1.021,-2.177 -2.658,-2.177 -2.042,0 -3.197,1.734 -3.197,4.141 0,2.292 1.079,4.141 3.101,4.141 1.406,0 2.254,-0.713 2.754,-2.157 l 0.983,0 z"
         id="path499"
         inkscape:connector-curvature="0"
         style="fill:#ffffff" /><path
         class="st6"
         d="m 679.834,279.108 c 0.019,2.485 1.271,4.026 3.12,4.026 1.811,0 2.427,-1.021 2.774,-1.811 l 0.982,0 c -0.404,1.271 -1.425,2.716 -3.794,2.716 -2.928,0 -4.064,-2.523 -4.064,-4.969 0,-2.754 1.367,-5.124 4.18,-5.124 2.966,0 3.91,2.562 3.91,4.372 0,0.27 0,0.539 -0.019,0.79 l -7.089,0 z m 6.106,-0.847 c -0.019,-1.907 -1.059,-3.409 -2.947,-3.409 -1.984,0 -2.889,1.387 -3.101,3.409 l 6.048,0 z"
         id="path501"
         inkscape:connector-curvature="0"
         style="fill:#ffffff" /><path
         class="st6"
         d="m 692.854,274.177 1.791,0 0,-3.005 0.963,0 0,3.005 2.292,0 0,0.905 -2.292,0 0,6.26 c 0,1.079 0.231,1.695 1.156,1.695 0.289,0 0.693,-0.019 1.002,-0.116 l 0,0.847 c -0.327,0.135 -0.79,0.173 -1.194,0.173 -1.233,0 -1.926,-0.616 -1.926,-2.157 l 0,-6.703 -1.791,0 0,-0.904 z"
         id="path503"
         inkscape:connector-curvature="0"
         style="fill:#ffffff" /><path
         class="st6"
         d="m 699.865,269.612 0.963,0 0,1.868 -0.963,0 0,-1.868 z m 0,4.565 0.963,0 0,9.631 -0.963,0 0,-9.631 z"
         id="path505"
         inkscape:connector-curvature="0"
         style="fill:#ffffff" /><path
         class="st6"
         d="m 704.198,279.108 c 0.019,2.485 1.271,4.026 3.12,4.026 1.811,0 2.427,-1.021 2.774,-1.811 l 0.982,0 c -0.404,1.271 -1.425,2.716 -3.794,2.716 -2.928,0 -4.064,-2.523 -4.064,-4.969 0,-2.754 1.367,-5.124 4.18,-5.124 2.966,0 3.91,2.562 3.91,4.372 0,0.27 0,0.539 -0.019,0.79 l -7.089,0 z m 6.106,-0.847 c -0.019,-1.907 -1.059,-3.409 -2.947,-3.409 -1.984,0 -2.889,1.387 -3.101,3.409 l 6.048,0 z"
         id="path507"
         inkscape:connector-curvature="0"
         style="fill:#ffffff" /><path
         class="st6"
         d="m 713.655,276.797 c 0,-1.618 -0.019,-2.311 -0.019,-2.62 l 0.944,0 c 0.019,0.308 0.039,0.924 0.039,2.157 0.559,-1.445 1.791,-2.311 3.351,-2.388 l 0,1.04 c -2.003,0.135 -3.351,1.522 -3.351,3.814 l 0,5.008 -0.963,0 0,-7.011 z"
         id="path509"
         inkscape:connector-curvature="0"
         style="fill:#ffffff" /></g><g
       id="g511"><polygon
         class="st0"
         points="552.165,291.122 552.165,328.583 551.091,328.583 551.091,290.048 814.795,290.048 814.795,328.583 813.721,328.583 813.721,291.122 "
         id="polygon513"
         style="fill:#666666" /></g></g><g
     id="g515"
     transform="translate(-550.482,-265.815)" /><g
     id="g517"
     transform="translate(-550.482,-265.815)" /><g
     id="g519"
     transform="translate(-550.482,-265.815)" /><g
     id="g521"
     transform="translate(-550.482,-265.815)" /><g
     id="g523"
     transform="translate(-550.482,-265.815)" /><g
     id="g525"
     transform="translate(-550.482,-265.815)" /><g
     id="g527"
     transform="translate(-550.482,-265.815)" /><g
     id="g529"
     transform="translate(-550.482,-265.815)" /><g
     id="g531"
     transform="translate(-550.482,-265.815)" /><g
     id="g533"
     transform="translate(-550.482,-265.815)" /><g
     id="g535"
     transform="translate(-550.482,-265.815)" /><g
     id="g537"
     transform="translate(-550.482,-265.815)" /><g
     id="g539"
     transform="translate(-550.482,-265.815)" /><g
     id="g541"
     transform="translate(-550.482,-265.815)" /><g
     id="g543"
     transform="translate(-550.482,-265.815)" /></svg>