<?xml version="1.0" encoding="UTF-8" standalone="no"?>
<!-- Generator: Adobe Illustrator 22.1.0, SVG Export Plug-In . SVG Version: 6.00 Build 0)  -->

<svg
   xmlns:dc="http://purl.org/dc/elements/1.1/"
   xmlns:cc="http://creativecommons.org/ns#"
   xmlns:rdf="http://www.w3.org/1999/02/22-rdf-syntax-ns#"
   xmlns:svg="http://www.w3.org/2000/svg"
   xmlns="http://www.w3.org/2000/svg"
   xmlns:sodipodi="http://sodipodi.sourceforge.net/DTD/sodipodi-0.dtd"
   xmlns:inkscape="http://www.inkscape.org/namespaces/inkscape"
   version="1.1"
   id="Layer_1"
   x="0px"
   y="0px"
   viewBox="0 0 169.39 264.34601"
   xml:space="preserve"
   inkscape:version="0.91 r13725"
   sodipodi:docname="rest_common.svg"
   width="169.39"
   height="264.34601"><metadata
     id="metadata409"><rdf:RDF><cc:Work
         rdf:about=""><dc:format>image/svg+xml</dc:format><dc:type
           rdf:resource="http://purl.org/dc/dcmitype/StillImage" /><dc:title></dc:title></cc:Work></rdf:RDF></metadata><defs
     id="defs407" /><sodipodi:namedview
     pagecolor="#ffffff"
     bordercolor="#666666"
     borderopacity="1"
     objecttolerance="10"
     gridtolerance="10"
     guidetolerance="10"
     inkscape:pageopacity="0"
     inkscape:pageshadow="2"
     inkscape:window-width="698"
     inkscape:window-height="480"
     id="namedview405"
     showgrid="false"
     fit-margin-top="0"
     fit-margin-left="0"
     fit-margin-right="0"
     fit-margin-bottom="0"
     inkscape:zoom="0.21742313"
     inkscape:cx="85.39"
     inkscape:cy="132.422"
     inkscape:window-x="0"
     inkscape:window-y="30"
     inkscape:window-maximized="0"
     inkscape:current-layer="Layer_1" /><style
     type="text/css"
     id="style3">
	.st0{fill:#668AA3;}
	.st1{fill:#666666;}
	.st2{fill:#FFFFFF;}
	.st3{fill:#4D4D4D;}
</style><g
     id="g5"
     transform="translate(-597.61,-252.076)"><g
       id="g7"><path
         class="st0"
         d="m 625.078,286.907 0,11.53 -3.01,0 0,-9.063 -2.221,0 0,-2.467 5.231,0 z"
         id="path9"
         inkscape:connector-curvature="0"
         style="fill:#668aa3" /><path
         class="st0"
         d="m 631.904,297.137 c 0,0.839 -0.592,1.431 -1.415,1.431 -0.823,0 -1.398,-0.592 -1.398,-1.431 0,-0.839 0.576,-1.415 1.398,-1.415 0.822,0 1.415,0.576 1.415,1.415 z"
         id="path11"
         inkscape:connector-curvature="0"
         style="fill:#668aa3" /></g><g
       id="g13"><path
         class="st1"
         d="m 726.344,274.886 -118.078,0 c -5.861,0 -10.656,-4.795 -10.656,-10.656 l 0,-1.498 c 0,-5.861 4.795,-10.656 10.656,-10.656 l 118.078,0 c 5.861,0 10.656,4.795 10.656,10.656 l 0,1.498 c 0,5.861 -4.795,10.656 -10.656,10.656 z"
         id="path15"
         inkscape:connector-curvature="0"
         style="fill:#666666" /></g><g
       id="g17"><path
         class="st2"
         d="m 604.73,259.72 1.637,0 0,-2.746 0.88,0 0,2.746 2.095,0 0,0.827 -2.095,0 0,5.721 c 0,0.986 0.211,1.549 1.056,1.549 0.264,0 0.634,-0.018 0.916,-0.106 l 0,0.775 c -0.299,0.123 -0.722,0.159 -1.091,0.159 -1.127,0 -1.76,-0.563 -1.76,-1.972 l 0,-6.126 -1.637,0 0,-0.827 z"
         id="path19"
         inkscape:connector-curvature="0"
         style="fill:#ffffff" /><path
         class="st2"
         d="m 618.162,264.104 c 0,2.447 -1.355,4.63 -3.979,4.63 -2.377,0 -3.855,-1.954 -3.855,-4.612 0,-2.517 1.391,-4.612 3.943,-4.612 2.342,-10e-4 3.891,1.83 3.891,4.594 z m -6.901,0.017 c 0,2.095 1.127,3.785 2.993,3.785 1.901,0 2.975,-1.567 2.975,-3.785 0,-2.077 -1.056,-3.785 -3.01,-3.785 -2.008,10e-4 -2.958,1.673 -2.958,3.785 z"
         id="path21"
         inkscape:connector-curvature="0"
         style="fill:#ffffff" /><path
         class="st2"
         d="m 621.224,267.22 0,4.824 -0.88,0 0,-10.158 c 0,-0.722 0,-1.496 -0.018,-2.165 l 0.863,0 c 0.035,0.334 0.035,0.863 0.035,1.584 0.546,-1.056 1.514,-1.796 3.098,-1.796 2.077,0 3.521,1.743 3.521,4.383 0,3.169 -1.69,4.841 -3.82,4.841 -1.549,10e-4 -2.358,-0.686 -2.799,-1.513 z m 5.687,-3.292 c 0,-2.042 -0.986,-3.574 -2.729,-3.574 -2.13,0 -3.01,1.338 -3.01,3.732 0,2.359 0.687,3.82 2.887,3.82 1.831,0 2.852,-1.549 2.852,-3.978 z"
         id="path23"
         inkscape:connector-curvature="0"
         style="fill:#ffffff" /><path
         class="st2"
         d="m 636.452,268.522 0,-10.474 c -0.599,0.528 -1.919,1.197 -2.605,1.355 l 0,-0.827 c 0.757,-0.264 1.884,-0.951 2.764,-1.725 l 0.757,0 0,11.672 -0.916,0 z"
         id="path25"
         inkscape:connector-curvature="0"
         style="fill:#ffffff" /><path
         class="st2"
         d="m 647.806,262.643 c 0,2.658 -0.687,6.091 -3.785,6.091 -3.01,0 -3.767,-3.151 -3.767,-6.003 0,-2.834 0.81,-6.003 3.82,-6.003 3.028,0 3.732,3.168 3.732,5.915 z m -6.567,0.105 c 0,2.253 0.475,5.141 2.781,5.141 2.359,0 2.817,-2.764 2.817,-5.246 0,-2.218 -0.458,-5.07 -2.746,-5.07 -2.394,0 -2.852,2.605 -2.852,5.175 z"
         id="path27"
         inkscape:connector-curvature="0"
         style="fill:#ffffff" /><path
         class="st2"
         d="m 661.272,265.935 c -0.422,1.549 -1.443,2.799 -3.415,2.799 -2.201,0 -3.767,-1.637 -3.767,-4.577 0,-2.412 1.285,-4.647 3.873,-4.647 2.236,0 3.151,1.584 3.309,2.817 l -0.898,0 c -0.264,-1.021 -0.933,-1.989 -2.429,-1.989 -1.866,0 -2.922,1.584 -2.922,3.785 0,2.095 0.986,3.785 2.834,3.785 1.285,0 2.06,-0.651 2.517,-1.972 l 0.898,0 z"
         id="path29"
         inkscape:connector-curvature="0"
         style="fill:#ffffff" /><path
         class="st2"
         d="m 669.423,266.85 c 0,0.775 0.07,1.391 0.123,1.672 l -0.845,0 c -0.07,-0.211 -0.123,-0.598 -0.159,-1.355 -0.299,0.651 -1.074,1.567 -2.887,1.567 -2.042,0 -2.922,-1.32 -2.922,-2.641 0,-1.936 1.496,-2.817 4.137,-2.817 0.739,0 1.32,0 1.672,0 l 0,-0.898 c 0,-0.88 -0.264,-2.06 -2.271,-2.06 -1.778,0 -2.042,0.933 -2.236,1.655 l -0.88,0 c 0.106,-0.968 0.704,-2.465 3.134,-2.465 2.007,0 3.134,0.845 3.134,2.781 l 0,4.561 z m -0.863,-2.817 c -0.335,0 -1.144,0 -1.725,0 -1.954,0 -3.169,0.511 -3.169,2.024 0,1.109 0.792,1.866 2.024,1.866 2.518,0 2.87,-1.672 2.87,-3.574 l 0,-0.316 z"
         id="path31"
         inkscape:connector-curvature="0"
         style="fill:#ffffff" /><path
         class="st2"
         d="m 670.919,259.72 1.637,0 0,-2.746 0.88,0 0,2.746 2.095,0 0,0.827 -2.095,0 0,5.721 c 0,0.986 0.211,1.549 1.056,1.549 0.264,0 0.634,-0.018 0.915,-0.106 l 0,0.775 c -0.299,0.123 -0.722,0.159 -1.091,0.159 -1.127,0 -1.76,-0.563 -1.76,-1.972 l 0,-6.126 -1.637,0 0,-0.827 z"
         id="path33"
         inkscape:connector-curvature="0"
         style="fill:#ffffff" /><path
         class="st2"
         d="m 677.414,264.227 c 0.018,2.271 1.162,3.679 2.852,3.679 1.655,0 2.218,-0.933 2.535,-1.655 l 0.898,0 c -0.37,1.162 -1.303,2.482 -3.468,2.482 -2.676,0 -3.714,-2.306 -3.714,-4.542 0,-2.517 1.25,-4.683 3.82,-4.683 2.711,0 3.574,2.341 3.574,3.996 0,0.246 0,0.493 -0.018,0.722 l -6.479,0 z m 5.581,-0.774 c -0.018,-1.743 -0.968,-3.116 -2.693,-3.116 -1.813,0 -2.641,1.267 -2.834,3.116 l 5.527,0 z"
         id="path35"
         inkscape:connector-curvature="0"
         style="fill:#ffffff" /><path
         class="st2"
         d="m 692.976,267.924 c 0,2.817 -1.25,4.295 -3.803,4.295 -2.289,0 -3.239,-1.285 -3.45,-2.623 l 0.898,0 c 0.317,1.215 1.32,1.796 2.588,1.796 2.289,0 2.922,-1.479 2.922,-3.714 l 0,-0.915 c -0.475,1.144 -1.338,1.76 -2.94,1.76 -2.06,0 -3.644,-1.672 -3.644,-4.401 0,-2.957 1.69,-4.612 3.767,-4.612 1.796,0 2.57,0.845 2.817,1.549 0.018,-0.511 0.035,-1.127 0.053,-1.338 l 0.827,0 c 0,0.317 -0.035,1.708 -0.035,2.553 l 0,5.65 z m -6.496,-3.838 c 0,2.095 1.109,3.609 2.799,3.609 2.201,0 2.869,-1.461 2.869,-3.75 0,-2.324 -0.704,-3.609 -2.817,-3.609 -2.023,10e-4 -2.851,1.743 -2.851,3.75 z"
         id="path37"
         inkscape:connector-curvature="0"
         style="fill:#ffffff" /><path
         class="st2"
         d="m 702.992,264.104 c 0,2.447 -1.355,4.63 -3.979,4.63 -2.377,0 -3.855,-1.954 -3.855,-4.612 0,-2.517 1.391,-4.612 3.943,-4.612 2.342,-10e-4 3.891,1.83 3.891,4.594 z m -6.9,0.017 c 0,2.095 1.127,3.785 2.993,3.785 1.901,0 2.975,-1.567 2.975,-3.785 0,-2.077 -1.056,-3.785 -3.01,-3.785 -2.008,10e-4 -2.958,1.673 -2.958,3.785 z"
         id="path39"
         inkscape:connector-curvature="0"
         style="fill:#ffffff" /><path
         class="st2"
         d="m 705.175,262.115 c 0,-1.479 -0.018,-2.112 -0.018,-2.394 l 0.863,0 c 0.018,0.282 0.035,0.845 0.035,1.972 0.511,-1.32 1.637,-2.112 3.063,-2.183 l 0,0.951 c -1.831,0.123 -3.063,1.391 -3.063,3.486 l 0,4.577 -0.88,0 0,-6.409 z"
         id="path41"
         inkscape:connector-curvature="0"
         style="fill:#ffffff" /><path
         class="st2"
         d="m 710.738,255.548 0.88,0 0,1.708 -0.88,0 0,-1.708 z m 0,4.172 0.88,0 0,8.802 -0.88,0 0,-8.802 z"
         id="path43"
         inkscape:connector-curvature="0"
         style="fill:#ffffff" /><path
         class="st2"
         d="m 714.698,264.227 c 0.018,2.271 1.162,3.679 2.852,3.679 1.655,0 2.218,-0.933 2.535,-1.655 l 0.898,0 c -0.37,1.162 -1.303,2.482 -3.468,2.482 -2.676,0 -3.714,-2.306 -3.714,-4.542 0,-2.517 1.25,-4.683 3.82,-4.683 2.711,0 3.574,2.341 3.574,3.996 0,0.246 0,0.493 -0.018,0.722 l -6.479,0 z m 5.581,-0.774 c -0.018,-1.743 -0.968,-3.116 -2.693,-3.116 -1.813,0 -2.641,1.267 -2.834,3.116 l 5.527,0 z"
         id="path45"
         inkscape:connector-curvature="0"
         style="fill:#ffffff" /><path
         class="st2"
         d="m 723.553,266.093 c 0.299,1.144 1.109,1.831 2.5,1.831 1.567,0 2.201,-0.722 2.201,-1.708 0,-1.003 -0.423,-1.496 -2.394,-1.972 -2.271,-0.546 -2.834,-1.232 -2.834,-2.394 0,-1.215 0.915,-2.341 2.905,-2.341 1.989,0 2.94,1.215 3.081,2.465 l -0.88,0 c -0.158,-0.739 -0.739,-1.655 -2.236,-1.655 -1.532,0 -1.972,0.757 -1.972,1.461 0,0.81 0.422,1.215 2.165,1.637 2.482,0.598 3.098,1.408 3.098,2.729 0,1.602 -1.303,2.588 -3.151,2.588 -2.007,0 -3.134,-1.056 -3.38,-2.641 l 0.897,0 z"
         id="path47"
         inkscape:connector-curvature="0"
         style="fill:#ffffff" /></g><g
       id="g49"><path
         class="st3"
         d="m 640.995,292.45 c 0,-1.382 -0.016,-1.974 -0.016,-2.237 l 0.806,0 c 0.016,0.263 0.033,0.789 0.033,1.842 0.477,-1.234 1.53,-1.974 2.862,-2.04 l 0,0.888 c -1.711,0.115 -2.862,1.299 -2.862,3.257 l 0,4.277 -0.822,0 0,-5.987 z"
         id="path51"
         inkscape:connector-curvature="0"
         style="fill:#4d4d4d" /><path
         class="st3"
         d="m 646.373,294.423 c 0.017,2.122 1.086,3.438 2.665,3.438 1.546,0 2.072,-0.872 2.369,-1.546 l 0.839,0 c -0.345,1.086 -1.217,2.319 -3.24,2.319 -2.5,0 -3.471,-2.155 -3.471,-4.244 0,-2.352 1.168,-4.375 3.569,-4.375 2.533,0 3.339,2.188 3.339,3.734 0,0.23 0,0.461 -0.016,0.674 l -6.054,0 z m 5.214,-0.723 c -0.016,-1.628 -0.905,-2.911 -2.517,-2.911 -1.694,0 -2.467,1.184 -2.648,2.911 l 5.165,0 z"
         id="path53"
         inkscape:connector-curvature="0"
         style="fill:#4d4d4d" /><path
         class="st3"
         d="m 654.646,296.167 c 0.28,1.069 1.036,1.711 2.336,1.711 1.464,0 2.056,-0.674 2.056,-1.595 0,-0.938 -0.395,-1.398 -2.237,-1.842 -2.122,-0.51 -2.648,-1.151 -2.648,-2.237 0,-1.135 0.855,-2.188 2.714,-2.188 1.859,0 2.747,1.135 2.879,2.303 l -0.822,0 c -0.148,-0.691 -0.691,-1.546 -2.089,-1.546 -1.431,0 -1.842,0.707 -1.842,1.365 0,0.757 0.395,1.135 2.023,1.53 2.319,0.559 2.895,1.316 2.895,2.549 0,1.497 -1.217,2.418 -2.944,2.418 -1.875,0 -2.928,-0.987 -3.158,-2.467 l 0.837,0 z"
         id="path55"
         inkscape:connector-curvature="0"
         style="fill:#4d4d4d" /><path
         class="st3"
         d="m 660.666,290.213 1.53,0 0,-2.566 0.822,0 0,2.566 1.957,0 0,0.773 -1.957,0 0,5.346 c 0,0.921 0.197,1.447 0.987,1.447 0.247,0 0.592,-0.016 0.855,-0.099 l 0,0.724 c -0.28,0.115 -0.674,0.148 -1.02,0.148 -1.053,0 -1.645,-0.526 -1.645,-1.842 l 0,-5.724 -1.53,0 0,-0.773 z"
         id="path57"
         inkscape:connector-curvature="0"
         style="fill:#4d4d4d" /><path
         class="st3"
         d="m 672.295,296.874 c 0,0.724 0.066,1.299 0.115,1.563 l -0.789,0 c -0.066,-0.197 -0.115,-0.559 -0.148,-1.266 -0.28,0.609 -1.003,1.464 -2.698,1.464 -1.908,0 -2.73,-1.234 -2.73,-2.467 0,-1.809 1.398,-2.632 3.865,-2.632 0.691,0 1.234,0 1.563,0 l 0,-0.839 c 0,-0.822 -0.247,-1.924 -2.122,-1.924 -1.661,0 -1.908,0.872 -2.089,1.546 l -0.822,0 c 0.099,-0.905 0.658,-2.303 2.928,-2.303 1.875,0 2.928,0.789 2.928,2.599 l 0,4.259 z m -0.806,-2.632 c -0.313,0 -1.069,0 -1.612,0 -1.826,0 -2.961,0.477 -2.961,1.891 0,1.036 0.74,1.744 1.892,1.744 2.352,0 2.681,-1.563 2.681,-3.339 l 0,-0.296 z"
         id="path59"
         inkscape:connector-curvature="0"
         style="fill:#4d4d4d" /><path
         class="st3"
         d="m 681.061,296.035 c 0,0.806 0.016,2.089 0.016,2.401 l -0.79,0 c -0.033,-0.214 -0.049,-0.757 -0.049,-1.431 -0.345,0.971 -1.184,1.628 -2.648,1.628 -1.184,0 -2.697,-0.461 -2.697,-2.977 l 0,-5.444 0.806,0 0,5.247 c 0,1.201 0.378,2.368 2.007,2.368 1.842,0 2.533,-1.036 2.533,-3.388 l 0,-4.227 0.823,0 0,5.823 z"
         id="path61"
         inkscape:connector-curvature="0"
         style="fill:#4d4d4d" /><path
         class="st3"
         d="m 683.758,292.45 c 0,-1.382 -0.016,-1.974 -0.016,-2.237 l 0.806,0 c 0.016,0.263 0.033,0.789 0.033,1.842 0.477,-1.234 1.53,-1.974 2.862,-2.04 l 0,0.888 c -1.711,0.115 -2.862,1.299 -2.862,3.257 l 0,4.277 -0.823,0 0,-5.987 z"
         id="path63"
         inkscape:connector-curvature="0"
         style="fill:#4d4d4d" /><path
         class="st3"
         d="m 694.45,296.874 c 0,0.724 0.066,1.299 0.115,1.563 l -0.789,0 c -0.066,-0.197 -0.115,-0.559 -0.148,-1.266 -0.28,0.609 -1.003,1.464 -2.697,1.464 -1.908,0 -2.73,-1.234 -2.73,-2.467 0,-1.809 1.398,-2.632 3.865,-2.632 0.691,0 1.234,0 1.563,0 l 0,-0.839 c 0,-0.822 -0.247,-1.924 -2.122,-1.924 -1.661,0 -1.908,0.872 -2.089,1.546 l -0.822,0 c 0.099,-0.905 0.658,-2.303 2.928,-2.303 1.875,0 2.928,0.789 2.928,2.599 l 0,4.259 z m -0.806,-2.632 c -0.313,0 -1.069,0 -1.612,0 -1.826,0 -2.961,0.477 -2.961,1.891 0,1.036 0.74,1.744 1.891,1.744 2.352,0 2.681,-1.563 2.681,-3.339 l 0,-0.296 z"
         id="path65"
         inkscape:connector-curvature="0"
         style="fill:#4d4d4d" /><path
         class="st3"
         d="m 697.163,292.285 c 0,-0.724 0,-1.415 -0.016,-2.073 l 0.806,0 c 0.033,0.263 0.049,1.332 0.033,1.563 0.362,-0.839 1.036,-1.76 2.731,-1.76 1.464,0 2.763,0.822 2.763,3.092 l 0,5.329 -0.822,0 0,-5.198 c 0,-1.464 -0.609,-2.418 -2.04,-2.418 -1.957,0 -2.632,1.628 -2.632,3.421 l 0,4.194 -0.822,0 0,-6.15 z"
         id="path67"
         inkscape:connector-curvature="0"
         style="fill:#4d4d4d" /><path
         class="st3"
         d="m 704.894,290.213 1.53,0 0,-2.566 0.822,0 0,2.566 1.957,0 0,0.773 -1.957,0 0,5.346 c 0,0.921 0.197,1.447 0.987,1.447 0.247,0 0.592,-0.016 0.855,-0.099 l 0,0.724 c -0.28,0.115 -0.674,0.148 -1.02,0.148 -1.053,0 -1.645,-0.526 -1.645,-1.842 l 0,-5.724 -1.53,0 0,-0.773 z"
         id="path69"
         inkscape:connector-curvature="0"
         style="fill:#4d4d4d" /></g><g
       id="g71"><path
         class="st0"
         d="m 627.726,340.008 c 0,2.221 -1.826,3.767 -4.688,3.767 -1.678,0 -3.421,-0.559 -4.54,-1.415 l 1.217,-2.319 c 0.905,0.938 1.99,1.431 3.092,1.431 1.266,0 1.974,-0.526 1.974,-1.431 0,-0.921 -0.707,-1.398 -1.99,-1.398 l -1.941,0 0,-1.612 2.698,-2.582 -4.441,0 -0.016,-2.319 8.06,0 0,1.744 -3.109,2.895 0.576,0.082 c 1.825,0.279 3.108,1.397 3.108,3.157 z"
         id="path73"
         inkscape:connector-curvature="0"
         style="fill:#668aa3" /><path
         class="st0"
         d="m 631.904,342.344 c 0,0.839 -0.592,1.431 -1.415,1.431 -0.823,0 -1.398,-0.592 -1.398,-1.431 0,-0.839 0.576,-1.415 1.398,-1.415 0.822,0 1.415,0.576 1.415,1.415 z"
         id="path75"
         inkscape:connector-curvature="0"
         style="fill:#668aa3" /></g><g
       id="g77"><path
         class="st3"
         d="m 640.995,331.521 0.822,0 0,1.595 -0.822,0 0,-1.595 z m 0,3.898 0.822,0 0,8.224 -0.822,0 0,-8.224 z"
         id="path79"
         inkscape:connector-curvature="0"
         style="fill:#4d4d4d" /><path
         class="st3"
         d="m 643.396,335.419 1.53,0 0,-2.566 0.822,0 0,2.566 1.957,0 0,0.773 -1.957,0 0,5.346 c 0,0.921 0.197,1.448 0.987,1.448 0.247,0 0.592,-0.017 0.855,-0.099 l 0,0.724 c -0.28,0.115 -0.674,0.148 -1.02,0.148 -1.053,0 -1.645,-0.526 -1.645,-1.842 l 0,-5.724 -1.53,0 0,-0.774 z"
         id="path81"
         inkscape:connector-curvature="0"
         style="fill:#4d4d4d" /><path
         class="st3"
         d="m 655.024,342.081 c 0,0.724 0.066,1.299 0.115,1.563 l -0.79,0 c -0.066,-0.197 -0.115,-0.559 -0.148,-1.266 -0.28,0.609 -1.003,1.464 -2.698,1.464 -1.908,0 -2.73,-1.234 -2.73,-2.467 0,-1.809 1.398,-2.632 3.865,-2.632 0.691,0 1.234,0 1.563,0 l 0,-0.839 c 0,-0.822 -0.247,-1.924 -2.122,-1.924 -1.661,0 -1.908,0.872 -2.089,1.546 l -0.822,0 c 0.099,-0.905 0.658,-2.303 2.928,-2.303 1.875,0 2.928,0.789 2.928,2.599 l 0,4.259 z m -0.806,-2.632 c -0.313,0 -1.069,0 -1.612,0 -1.826,0 -2.961,0.477 -2.961,1.891 0,1.036 0.74,1.744 1.891,1.744 2.352,0 2.681,-1.563 2.681,-3.339 l 0,-0.296 z"
         id="path83"
         inkscape:connector-curvature="0"
         style="fill:#4d4d4d" /><path
         class="st3"
         d="m 657.738,343.643 0,-12.122 0.822,0 0,12.122 -0.822,0 z"
         id="path85"
         inkscape:connector-curvature="0"
         style="fill:#4d4d4d" /><path
         class="st3"
         d="m 661.258,331.521 0.822,0 0,1.595 -0.822,0 0,-1.595 z m 0,3.898 0.822,0 0,8.224 -0.822,0 0,-8.224 z"
         id="path87"
         inkscape:connector-curvature="0"
         style="fill:#4d4d4d" /><path
         class="st3"
         d="m 670.304,342.081 c 0,0.724 0.066,1.299 0.115,1.563 l -0.789,0 c -0.066,-0.197 -0.115,-0.559 -0.148,-1.266 -0.28,0.609 -1.003,1.464 -2.698,1.464 -1.908,0 -2.73,-1.234 -2.73,-2.467 0,-1.809 1.398,-2.632 3.865,-2.632 0.691,0 1.234,0 1.563,0 l 0,-0.839 c 0,-0.822 -0.247,-1.924 -2.122,-1.924 -1.661,0 -1.908,0.872 -2.089,1.546 l -0.822,0 c 0.099,-0.905 0.658,-2.303 2.928,-2.303 1.875,0 2.928,0.789 2.928,2.599 l 0,4.259 z m -0.806,-2.632 c -0.313,0 -1.069,0 -1.612,0 -1.826,0 -2.961,0.477 -2.961,1.891 0,1.036 0.74,1.744 1.891,1.744 2.352,0 2.681,-1.563 2.681,-3.339 l 0,-0.296 z"
         id="path89"
         inkscape:connector-curvature="0"
         style="fill:#4d4d4d" /><path
         class="st3"
         d="m 673.018,337.492 c 0,-0.724 0,-1.415 -0.016,-2.072 l 0.806,0 c 0.033,0.263 0.049,1.332 0.033,1.563 0.362,-0.839 1.036,-1.76 2.73,-1.76 1.464,0 2.763,0.822 2.763,3.092 l 0,5.329 -0.822,0 0,-5.198 c 0,-1.464 -0.609,-2.418 -2.04,-2.418 -1.957,0 -2.632,1.628 -2.632,3.421 l 0,4.194 -0.823,0 0,-6.151 z"
         id="path91"
         inkscape:connector-curvature="0"
         style="fill:#4d4d4d" /><path
         class="st3"
         d="m 686.307,337.656 c 0,-1.382 -0.016,-1.974 -0.016,-2.237 l 0.806,0 c 0.016,0.263 0.033,0.789 0.033,1.842 0.477,-1.234 1.53,-1.974 2.862,-2.04 l 0,0.888 c -1.711,0.115 -2.862,1.299 -2.862,3.257 l 0,4.277 -0.822,0 0,-5.987 z"
         id="path93"
         inkscape:connector-curvature="0"
         style="fill:#4d4d4d" /><path
         class="st3"
         d="m 691.686,339.63 c 0.017,2.122 1.086,3.438 2.665,3.438 1.546,0 2.072,-0.872 2.369,-1.546 l 0.839,0 c -0.345,1.086 -1.217,2.319 -3.24,2.319 -2.5,0 -3.471,-2.155 -3.471,-4.244 0,-2.352 1.168,-4.375 3.569,-4.375 2.533,0 3.339,2.188 3.339,3.734 0,0.23 0,0.461 -0.016,0.674 l -6.054,0 z m 5.214,-0.724 c -0.016,-1.628 -0.905,-2.911 -2.517,-2.911 -1.694,0 -2.467,1.184 -2.648,2.911 l 5.165,0 z"
         id="path95"
         inkscape:connector-curvature="0"
         style="fill:#4d4d4d" /><path
         class="st3"
         d="m 699.959,341.373 c 0.28,1.069 1.036,1.711 2.336,1.711 1.464,0 2.056,-0.674 2.056,-1.595 0,-0.938 -0.395,-1.398 -2.237,-1.842 -2.122,-0.51 -2.648,-1.151 -2.648,-2.237 0,-1.135 0.855,-2.188 2.714,-2.188 1.859,0 2.747,1.135 2.878,2.303 l -0.823,0 c -0.148,-0.691 -0.691,-1.546 -2.089,-1.546 -1.431,0 -1.842,0.707 -1.842,1.365 0,0.757 0.395,1.135 2.023,1.53 2.319,0.559 2.895,1.316 2.895,2.549 0,1.497 -1.217,2.418 -2.944,2.418 -1.875,0 -2.928,-0.987 -3.158,-2.467 l 0.839,0 z"
         id="path97"
         inkscape:connector-curvature="0"
         style="fill:#4d4d4d" /><path
         class="st3"
         d="m 705.979,335.419 1.53,0 0,-2.566 0.822,0 0,2.566 1.957,0 0,0.773 -1.957,0 0,5.346 c 0,0.921 0.197,1.448 0.987,1.448 0.247,0 0.592,-0.017 0.855,-0.099 l 0,0.724 c -0.28,0.115 -0.674,0.148 -1.02,0.148 -1.053,0 -1.645,-0.526 -1.645,-1.842 l 0,-5.724 -1.53,0 0,-0.774 z"
         id="path99"
         inkscape:connector-curvature="0"
         style="fill:#4d4d4d" /><path
         class="st3"
         d="m 717.607,342.081 c 0,0.724 0.066,1.299 0.115,1.563 l -0.79,0 c -0.066,-0.197 -0.115,-0.559 -0.148,-1.266 -0.28,0.609 -1.003,1.464 -2.698,1.464 -1.908,0 -2.73,-1.234 -2.73,-2.467 0,-1.809 1.398,-2.632 3.865,-2.632 0.691,0 1.234,0 1.563,0 l 0,-0.839 c 0,-0.822 -0.247,-1.924 -2.122,-1.924 -1.661,0 -1.908,0.872 -2.089,1.546 l -0.822,0 c 0.099,-0.905 0.658,-2.303 2.928,-2.303 1.875,0 2.928,0.789 2.928,2.599 l 0,4.259 z m -0.806,-2.632 c -0.312,0 -1.069,0 -1.612,0 -1.826,0 -2.961,0.477 -2.961,1.891 0,1.036 0.74,1.744 1.892,1.744 2.352,0 2.681,-1.563 2.681,-3.339 l 0,-0.296 z"
         id="path101"
         inkscape:connector-curvature="0"
         style="fill:#4d4d4d" /><path
         class="st3"
         d="m 726.374,341.242 c 0,0.806 0.016,2.089 0.016,2.401 l -0.789,0 c -0.033,-0.214 -0.049,-0.757 -0.049,-1.431 -0.345,0.97 -1.184,1.628 -2.648,1.628 -1.184,0 -2.698,-0.461 -2.698,-2.977 l 0,-5.444 0.806,0 0,5.247 c 0,1.201 0.378,2.368 2.007,2.368 1.842,0 2.533,-1.036 2.533,-3.388 l 0,-4.227 0.822,0 0,5.823 z"
         id="path103"
         inkscape:connector-curvature="0"
         style="fill:#4d4d4d" /><path
         class="st3"
         d="m 729.071,337.656 c 0,-1.382 -0.016,-1.974 -0.016,-2.237 l 0.806,0 c 0.016,0.263 0.033,0.789 0.033,1.842 0.477,-1.234 1.53,-1.974 2.862,-2.04 l 0,0.888 c -1.711,0.115 -2.862,1.299 -2.862,3.257 l 0,4.277 -0.823,0 0,-5.987 z"
         id="path105"
         inkscape:connector-curvature="0"
         style="fill:#4d4d4d" /><path
         class="st3"
         d="m 739.762,342.081 c 0,0.724 0.066,1.299 0.115,1.563 l -0.789,0 c -0.066,-0.197 -0.115,-0.559 -0.148,-1.266 -0.28,0.609 -1.003,1.464 -2.698,1.464 -1.908,0 -2.73,-1.234 -2.73,-2.467 0,-1.809 1.398,-2.632 3.865,-2.632 0.691,0 1.234,0 1.563,0 l 0,-0.839 c 0,-0.822 -0.247,-1.924 -2.122,-1.924 -1.661,0 -1.908,0.872 -2.089,1.546 l -0.822,0 c 0.099,-0.905 0.658,-2.303 2.928,-2.303 1.875,0 2.928,0.789 2.928,2.599 l 0,4.259 z m -0.806,-2.632 c -0.313,0 -1.069,0 -1.612,0 -1.826,0 -2.961,0.477 -2.961,1.891 0,1.036 0.74,1.744 1.892,1.744 2.352,0 2.681,-1.563 2.681,-3.339 l 0,-0.296 z"
         id="path107"
         inkscape:connector-curvature="0"
         style="fill:#4d4d4d" /><path
         class="st3"
         d="m 742.476,337.492 c 0,-0.724 0,-1.415 -0.016,-2.072 l 0.806,0 c 0.033,0.263 0.049,1.332 0.033,1.563 0.362,-0.839 1.036,-1.76 2.73,-1.76 1.464,0 2.763,0.822 2.763,3.092 l 0,5.329 -0.822,0 0,-5.198 c 0,-1.464 -0.609,-2.418 -2.04,-2.418 -1.957,0 -2.632,1.628 -2.632,3.421 l 0,4.194 -0.822,0 0,-6.151 z"
         id="path109"
         inkscape:connector-curvature="0"
         style="fill:#4d4d4d" /><path
         class="st3"
         d="m 750.207,335.419 1.53,0 0,-2.566 0.822,0 0,2.566 1.957,0 0,0.773 -1.957,0 0,5.346 c 0,0.921 0.197,1.448 0.987,1.448 0.247,0 0.592,-0.017 0.855,-0.099 l 0,0.724 c -0.28,0.115 -0.674,0.148 -1.02,0.148 -1.053,0 -1.645,-0.526 -1.645,-1.842 l 0,-5.724 -1.53,0 0,-0.774 z"
         id="path111"
         inkscape:connector-curvature="0"
         style="fill:#4d4d4d" /></g><g
       id="g113"><path
         class="st0"
         d="m 625.078,354.7 -3.208,6.76 2.155,0 -0.016,-2.434 2.763,0 0,2.434 1.48,0 0,2.286 -1.48,0 0,2.5 -2.763,0 0,-2.5 -5.214,0 0,-2.023 3.421,-7.023 2.862,0 z"
         id="path115"
         inkscape:connector-curvature="0"
         style="fill:#668aa3" /><path
         class="st0"
         d="m 631.904,364.947 c 0,0.839 -0.592,1.431 -1.415,1.431 -0.823,0 -1.398,-0.592 -1.398,-1.431 0,-0.839 0.576,-1.415 1.398,-1.415 0.822,0 1.415,0.576 1.415,1.415 z"
         id="path117"
         inkscape:connector-curvature="0"
         style="fill:#668aa3" /></g><g
       id="g119"><path
         class="st3"
         d="m 641.208,366.246 0,-7.451 -1.414,0 0,-0.773 1.414,0 0,-1.168 c 0,-1.382 0.395,-2.895 2.237,-2.895 0.247,0 0.609,0.049 0.806,0.115 l 0,0.789 c -0.247,-0.066 -0.641,-0.099 -0.888,-0.099 -0.97,0 -1.332,0.691 -1.332,2.122 l 0,1.135 1.793,0 0,0.773 -1.793,0 0,7.451 -0.823,0 z"
         id="path121"
         inkscape:connector-curvature="0"
         style="fill:#4d4d4d" /><path
         class="st3"
         d="m 645.205,360.259 c 0,-1.382 -0.016,-1.974 -0.016,-2.237 l 0.806,0 c 0.016,0.263 0.033,0.789 0.033,1.842 0.477,-1.234 1.53,-1.974 2.862,-2.04 l 0,0.888 c -1.711,0.115 -2.862,1.299 -2.862,3.257 l 0,4.277 -0.823,0 0,-5.987 z"
         id="path123"
         inkscape:connector-curvature="0"
         style="fill:#4d4d4d" /><path
         class="st3"
         d="m 650.583,362.233 c 0.016,2.122 1.086,3.438 2.665,3.438 1.546,0 2.072,-0.872 2.369,-1.546 l 0.839,0 c -0.345,1.086 -1.217,2.319 -3.24,2.319 -2.5,0 -3.471,-2.155 -3.471,-4.244 0,-2.352 1.168,-4.375 3.569,-4.375 2.533,0 3.339,2.188 3.339,3.734 0,0.23 0,0.461 -0.016,0.674 l -6.054,0 z m 5.214,-0.724 c -0.016,-1.628 -0.905,-2.911 -2.517,-2.911 -1.694,0 -2.467,1.184 -2.648,2.911 l 5.165,0 z"
         id="path125"
         inkscape:connector-curvature="0"
         style="fill:#4d4d4d" /><path
         class="st3"
         d="m 658.659,360.095 c 0,-0.724 0,-1.415 -0.016,-2.072 l 0.806,0 c 0.033,0.263 0.049,1.332 0.033,1.563 0.362,-0.839 1.036,-1.76 2.731,-1.76 1.464,0 2.763,0.822 2.763,3.092 l 0,5.329 -0.822,0 0,-5.198 c 0,-1.464 -0.609,-2.418 -2.04,-2.418 -1.957,0 -2.632,1.628 -2.632,3.421 l 0,4.194 -0.822,0 0,-6.151 z"
         id="path127"
         inkscape:connector-curvature="0"
         style="fill:#4d4d4d" /><path
         class="st3"
         d="m 673.725,363.828 c -0.395,1.448 -1.349,2.615 -3.191,2.615 -2.056,0 -3.52,-1.53 -3.52,-4.277 0,-2.253 1.201,-4.342 3.619,-4.342 2.089,0 2.944,1.48 3.092,2.632 l -0.839,0 c -0.247,-0.954 -0.872,-1.859 -2.27,-1.859 -1.743,0 -2.73,1.48 -2.73,3.536 0,1.957 0.921,3.536 2.648,3.536 1.201,0 1.924,-0.609 2.352,-1.842 l 0.839,0 z"
         id="path129"
         inkscape:connector-curvature="0"
         style="fill:#4d4d4d" /><path
         class="st3"
         d="m 676.456,354.124 0,5.28 c 0.461,-0.855 1.266,-1.579 2.714,-1.579 1.168,0 2.78,0.592 2.78,3.191 l 0,5.231 -0.822,0 0,-5.066 c 0,-1.628 -0.74,-2.549 -2.105,-2.549 -1.628,0 -2.566,1.003 -2.566,3.026 l 0,4.589 -0.823,0 0,-12.122 0.822,0 z"
         id="path131"
         inkscape:connector-curvature="0"
         style="fill:#4d4d4d" /><path
         class="st3"
         d="m 688.923,360.259 c 0,-1.382 -0.016,-1.974 -0.016,-2.237 l 0.806,0 c 0.016,0.263 0.033,0.789 0.033,1.842 0.477,-1.234 1.53,-1.974 2.862,-2.04 l 0,0.888 c -1.711,0.115 -2.862,1.299 -2.862,3.257 l 0,4.277 -0.823,0 0,-5.987 z"
         id="path133"
         inkscape:connector-curvature="0"
         style="fill:#4d4d4d" /><path
         class="st3"
         d="m 694.301,362.233 c 0.016,2.122 1.086,3.438 2.665,3.438 1.546,0 2.072,-0.872 2.369,-1.546 l 0.839,0 c -0.345,1.086 -1.217,2.319 -3.24,2.319 -2.5,0 -3.471,-2.155 -3.471,-4.244 0,-2.352 1.168,-4.375 3.569,-4.375 2.533,0 3.339,2.188 3.339,3.734 0,0.23 0,0.461 -0.016,0.674 l -6.054,0 z m 5.214,-0.724 c -0.016,-1.628 -0.905,-2.911 -2.517,-2.911 -1.694,0 -2.467,1.184 -2.648,2.911 l 5.165,0 z"
         id="path135"
         inkscape:connector-curvature="0"
         style="fill:#4d4d4d" /><path
         class="st3"
         d="m 702.574,363.977 c 0.28,1.069 1.036,1.711 2.336,1.711 1.464,0 2.056,-0.674 2.056,-1.595 0,-0.938 -0.395,-1.398 -2.237,-1.842 -2.122,-0.51 -2.648,-1.151 -2.648,-2.237 0,-1.135 0.855,-2.188 2.714,-2.188 1.859,0 2.747,1.135 2.879,2.303 l -0.823,0 c -0.148,-0.691 -0.691,-1.546 -2.089,-1.546 -1.431,0 -1.842,0.707 -1.842,1.365 0,0.757 0.395,1.135 2.023,1.53 2.319,0.559 2.895,1.316 2.895,2.549 0,1.497 -1.217,2.418 -2.944,2.418 -1.875,0 -2.928,-0.987 -3.158,-2.467 l 0.838,0 z"
         id="path137"
         inkscape:connector-curvature="0"
         style="fill:#4d4d4d" /><path
         class="st3"
         d="m 708.594,358.022 1.53,0 0,-2.566 0.822,0 0,2.566 1.957,0 0,0.773 -1.957,0 0,5.346 c 0,0.921 0.197,1.448 0.987,1.448 0.247,0 0.592,-0.017 0.855,-0.099 l 0,0.724 c -0.28,0.115 -0.674,0.148 -1.02,0.148 -1.053,0 -1.645,-0.526 -1.645,-1.842 l 0,-5.724 -1.53,0 0,-0.774 z"
         id="path139"
         inkscape:connector-curvature="0"
         style="fill:#4d4d4d" /><path
         class="st3"
         d="m 720.223,364.684 c 0,0.724 0.066,1.299 0.115,1.563 l -0.789,0 c -0.066,-0.197 -0.115,-0.559 -0.148,-1.267 -0.28,0.609 -1.003,1.464 -2.697,1.464 -1.908,0 -2.73,-1.234 -2.73,-2.467 0,-1.809 1.398,-2.632 3.865,-2.632 0.691,0 1.234,0 1.563,0 l 0,-0.839 c 0,-0.822 -0.247,-1.924 -2.122,-1.924 -1.661,0 -1.908,0.872 -2.089,1.546 l -0.822,0 c 0.099,-0.905 0.658,-2.303 2.928,-2.303 1.875,0 2.928,0.789 2.928,2.599 l 0,4.26 z m -0.806,-2.632 c -0.313,0 -1.069,0 -1.612,0 -1.826,0 -2.961,0.477 -2.961,1.891 0,1.036 0.74,1.744 1.892,1.744 2.352,0 2.681,-1.563 2.681,-3.339 l 0,-0.296 z"
         id="path141"
         inkscape:connector-curvature="0"
         style="fill:#4d4d4d" /><path
         class="st3"
         d="m 728.99,363.845 c 0,0.806 0.017,2.089 0.017,2.401 l -0.79,0 c -0.033,-0.214 -0.049,-0.757 -0.049,-1.431 -0.345,0.97 -1.184,1.628 -2.648,1.628 -1.184,0 -2.698,-0.461 -2.698,-2.977 l 0,-5.444 0.806,0 0,5.247 c 0,1.201 0.378,2.368 2.007,2.368 1.842,0 2.533,-1.036 2.533,-3.388 l 0,-4.227 0.823,0 0,5.823 z"
         id="path143"
         inkscape:connector-curvature="0"
         style="fill:#4d4d4d" /><path
         class="st3"
         d="m 731.687,360.259 c 0,-1.382 -0.016,-1.974 -0.016,-2.237 l 0.806,0 c 0.016,0.263 0.033,0.789 0.033,1.842 0.477,-1.234 1.53,-1.974 2.862,-2.04 l 0,0.888 c -1.711,0.115 -2.862,1.299 -2.862,3.257 l 0,4.277 -0.823,0 0,-5.987 z"
         id="path145"
         inkscape:connector-curvature="0"
         style="fill:#4d4d4d" /><path
         class="st3"
         d="m 742.378,364.684 c 0,0.724 0.066,1.299 0.115,1.563 l -0.789,0 c -0.066,-0.197 -0.115,-0.559 -0.148,-1.267 -0.28,0.609 -1.003,1.464 -2.697,1.464 -1.908,0 -2.73,-1.234 -2.73,-2.467 0,-1.809 1.398,-2.632 3.865,-2.632 0.691,0 1.234,0 1.563,0 l 0,-0.839 c 0,-0.822 -0.247,-1.924 -2.122,-1.924 -1.661,0 -1.908,0.872 -2.089,1.546 l -0.822,0 c 0.099,-0.905 0.658,-2.303 2.928,-2.303 1.875,0 2.928,0.789 2.928,2.599 l 0,4.26 z m -0.806,-2.632 c -0.313,0 -1.069,0 -1.612,0 -1.826,0 -2.961,0.477 -2.961,1.891 0,1.036 0.74,1.744 1.892,1.744 2.352,0 2.681,-1.563 2.681,-3.339 l 0,-0.296 z"
         id="path147"
         inkscape:connector-curvature="0"
         style="fill:#4d4d4d" /><path
         class="st3"
         d="m 745.091,360.095 c 0,-0.724 0,-1.415 -0.016,-2.072 l 0.806,0 c 0.033,0.263 0.049,1.332 0.033,1.563 0.362,-0.839 1.036,-1.76 2.73,-1.76 1.464,0 2.763,0.822 2.763,3.092 l 0,5.329 -0.822,0 0,-5.198 c 0,-1.464 -0.609,-2.418 -2.04,-2.418 -1.957,0 -2.632,1.628 -2.632,3.421 l 0,4.194 -0.822,0 0,-6.151 z"
         id="path149"
         inkscape:connector-curvature="0"
         style="fill:#4d4d4d" /><path
         class="st3"
         d="m 752.822,358.022 1.53,0 0,-2.566 0.822,0 0,2.566 1.957,0 0,0.773 -1.957,0 0,5.346 c 0,0.921 0.197,1.448 0.987,1.448 0.247,0 0.592,-0.017 0.855,-0.099 l 0,0.724 c -0.28,0.115 -0.674,0.148 -1.02,0.148 -1.053,0 -1.645,-0.526 -1.645,-1.842 l 0,-5.724 -1.53,0 0,-0.774 z"
         id="path151"
         inkscape:connector-curvature="0"
         style="fill:#4d4d4d" /></g><g
       id="g153"><path
         class="st0"
         d="m 623.417,381.481 c 2.714,0 4.474,1.431 4.474,3.487 0,2.434 -1.859,4.013 -4.704,4.013 -1.546,0 -3.323,-0.576 -4.573,-1.447 l 1.201,-2.336 c 0.905,0.954 1.957,1.447 3.01,1.447 1.168,0 1.826,-0.526 1.826,-1.464 0,-0.872 -0.658,-1.365 -1.809,-1.365 -0.609,0 -2.5,0.017 -3.224,0.066 l 0,-6.579 7.747,0 0,2.434 -4.984,0 0,1.76 c 0.246,-0.016 0.806,-0.016 1.036,-0.016 z"
         id="path155"
         inkscape:connector-curvature="0"
         style="fill:#668aa3" /><path
         class="st0"
         d="m 631.904,387.55 c 0,0.839 -0.592,1.431 -1.415,1.431 -0.823,0 -1.398,-0.592 -1.398,-1.431 0,-0.839 0.576,-1.415 1.398,-1.415 0.822,0 1.415,0.576 1.415,1.415 z"
         id="path157"
         inkscape:connector-curvature="0"
         style="fill:#668aa3" /></g><g
       id="g159"><path
         class="st3"
         d="m 647.048,386.432 c -0.395,1.448 -1.349,2.615 -3.191,2.615 -2.056,0 -3.52,-1.53 -3.52,-4.277 0,-2.253 1.201,-4.342 3.619,-4.342 2.089,0 2.944,1.48 3.092,2.632 l -0.839,0 c -0.247,-0.954 -0.872,-1.859 -2.27,-1.859 -1.744,0 -2.73,1.48 -2.73,3.536 0,1.957 0.921,3.536 2.648,3.536 1.201,0 1.924,-0.609 2.352,-1.842 l 0.839,0 z"
         id="path161"
         inkscape:connector-curvature="0"
         style="fill:#4d4d4d" /><path
         class="st3"
         d="m 649.778,376.727 0,5.28 c 0.461,-0.855 1.267,-1.579 2.714,-1.579 1.168,0 2.78,0.592 2.78,3.191 l 0,5.231 -0.822,0 0,-5.066 c 0,-1.628 -0.74,-2.549 -2.105,-2.549 -1.628,0 -2.566,1.003 -2.566,3.026 l 0,4.589 -0.822,0 0,-12.122 0.821,0 z"
         id="path163"
         inkscape:connector-curvature="0"
         style="fill:#4d4d4d" /><path
         class="st3"
         d="m 657.969,376.727 0.822,0 0,1.595 -0.822,0 0,-1.595 z m 0,3.898 0.822,0 0,8.224 -0.822,0 0,-8.224 z"
         id="path165"
         inkscape:connector-curvature="0"
         style="fill:#4d4d4d" /><path
         class="st3"
         d="m 661.488,382.698 c 0,-0.724 0,-1.415 -0.016,-2.072 l 0.806,0 c 0.033,0.263 0.049,1.332 0.033,1.563 0.362,-0.839 1.036,-1.76 2.73,-1.76 1.464,0 2.763,0.822 2.763,3.092 l 0,5.329 -0.822,0 0,-5.198 c 0,-1.464 -0.609,-2.418 -2.04,-2.418 -1.957,0 -2.632,1.628 -2.632,3.421 l 0,4.194 -0.823,0 0,-6.151 z"
         id="path167"
         inkscape:connector-curvature="0"
         style="fill:#4d4d4d" /><path
         class="st3"
         d="m 670.682,384.836 c 0.017,2.122 1.086,3.438 2.665,3.438 1.546,0 2.072,-0.872 2.369,-1.546 l 0.839,0 c -0.345,1.086 -1.217,2.319 -3.24,2.319 -2.5,0 -3.471,-2.155 -3.471,-4.244 0,-2.352 1.168,-4.375 3.569,-4.375 2.533,0 3.339,2.188 3.339,3.734 0,0.23 0,0.461 -0.016,0.674 l -6.054,0 z m 5.214,-0.723 c -0.016,-1.628 -0.905,-2.911 -2.517,-2.911 -1.694,0 -2.467,1.184 -2.648,2.911 l 5.165,0 z"
         id="path169"
         inkscape:connector-curvature="0"
         style="fill:#4d4d4d" /><path
         class="st3"
         d="m 678.956,386.58 c 0.28,1.069 1.036,1.711 2.336,1.711 1.464,0 2.056,-0.674 2.056,-1.595 0,-0.938 -0.395,-1.398 -2.237,-1.842 -2.122,-0.51 -2.648,-1.151 -2.648,-2.237 0,-1.135 0.855,-2.188 2.714,-2.188 1.859,0 2.747,1.135 2.878,2.303 l -0.822,0 c -0.148,-0.691 -0.691,-1.546 -2.089,-1.546 -1.431,0 -1.842,0.707 -1.842,1.365 0,0.757 0.395,1.135 2.023,1.53 2.319,0.559 2.895,1.316 2.895,2.549 0,1.497 -1.217,2.418 -2.944,2.418 -1.875,0 -2.928,-0.987 -3.158,-2.467 l 0.838,0 z"
         id="path171"
         inkscape:connector-curvature="0"
         style="fill:#4d4d4d" /><path
         class="st3"
         d="m 686.439,384.836 c 0.016,2.122 1.086,3.438 2.665,3.438 1.546,0 2.072,-0.872 2.369,-1.546 l 0.839,0 c -0.345,1.086 -1.217,2.319 -3.24,2.319 -2.5,0 -3.471,-2.155 -3.471,-4.244 0,-2.352 1.168,-4.375 3.569,-4.375 2.533,0 3.339,2.188 3.339,3.734 0,0.23 0,0.461 -0.016,0.674 l -6.054,0 z m 5.214,-0.723 c -0.016,-1.628 -0.905,-2.911 -2.517,-2.911 -1.694,0 -2.467,1.184 -2.648,2.911 l 5.165,0 z"
         id="path173"
         inkscape:connector-curvature="0"
         style="fill:#4d4d4d" /><path
         class="st3"
         d="m 698.791,382.862 c 0,-1.382 -0.017,-1.974 -0.017,-2.237 l 0.806,0 c 0.016,0.263 0.033,0.789 0.033,1.842 0.477,-1.234 1.53,-1.974 2.862,-2.04 l 0,0.888 c -1.711,0.115 -2.862,1.299 -2.862,3.257 l 0,4.277 -0.822,0 0,-5.987 z"
         id="path175"
         inkscape:connector-curvature="0"
         style="fill:#4d4d4d" /><path
         class="st3"
         d="m 704.17,384.836 c 0.016,2.122 1.086,3.438 2.665,3.438 1.546,0 2.072,-0.872 2.369,-1.546 l 0.839,0 c -0.345,1.086 -1.217,2.319 -3.24,2.319 -2.5,0 -3.471,-2.155 -3.471,-4.244 0,-2.352 1.168,-4.375 3.569,-4.375 2.533,0 3.339,2.188 3.339,3.734 0,0.23 0,0.461 -0.016,0.674 l -6.054,0 z m 5.214,-0.723 c -0.016,-1.628 -0.905,-2.911 -2.517,-2.911 -1.694,0 -2.467,1.184 -2.648,2.911 l 5.165,0 z"
         id="path177"
         inkscape:connector-curvature="0"
         style="fill:#4d4d4d" /><path
         class="st3"
         d="m 712.443,386.58 c 0.28,1.069 1.036,1.711 2.336,1.711 1.464,0 2.056,-0.674 2.056,-1.595 0,-0.938 -0.395,-1.398 -2.237,-1.842 -2.122,-0.51 -2.648,-1.151 -2.648,-2.237 0,-1.135 0.855,-2.188 2.714,-2.188 1.859,0 2.747,1.135 2.878,2.303 l -0.822,0 c -0.148,-0.691 -0.691,-1.546 -2.089,-1.546 -1.431,0 -1.842,0.707 -1.842,1.365 0,0.757 0.395,1.135 2.023,1.53 2.319,0.559 2.895,1.316 2.895,2.549 0,1.497 -1.217,2.418 -2.944,2.418 -1.875,0 -2.928,-0.987 -3.158,-2.467 l 0.838,0 z"
         id="path179"
         inkscape:connector-curvature="0"
         style="fill:#4d4d4d" /><path
         class="st3"
         d="m 718.463,380.625 1.53,0 0,-2.566 0.822,0 0,2.566 1.957,0 0,0.773 -1.957,0 0,5.346 c 0,0.921 0.197,1.448 0.987,1.448 0.247,0 0.592,-0.017 0.855,-0.099 l 0,0.724 c -0.28,0.115 -0.674,0.148 -1.02,0.148 -1.053,0 -1.645,-0.526 -1.645,-1.842 l 0,-5.724 -1.53,0 0,-0.774 z"
         id="path181"
         inkscape:connector-curvature="0"
         style="fill:#4d4d4d" /><path
         class="st3"
         d="m 730.091,387.287 c 0,0.724 0.066,1.299 0.115,1.563 l -0.789,0 c -0.066,-0.197 -0.115,-0.559 -0.148,-1.267 -0.28,0.609 -1.003,1.464 -2.698,1.464 -1.908,0 -2.73,-1.234 -2.73,-2.467 0,-1.809 1.398,-2.632 3.865,-2.632 0.691,0 1.234,0 1.563,0 l 0,-0.839 c 0,-0.822 -0.247,-1.924 -2.122,-1.924 -1.661,0 -1.908,0.872 -2.089,1.546 l -0.822,0 c 0.099,-0.905 0.658,-2.303 2.928,-2.303 1.875,0 2.928,0.79 2.928,2.599 l 0,4.26 z m -0.806,-2.632 c -0.313,0 -1.069,0 -1.612,0 -1.826,0 -2.961,0.477 -2.961,1.891 0,1.036 0.74,1.744 1.891,1.744 2.352,0 2.681,-1.563 2.681,-3.339 l 0,-0.296 z"
         id="path183"
         inkscape:connector-curvature="0"
         style="fill:#4d4d4d" /><path
         class="st3"
         d="m 738.858,386.448 c 0,0.806 0.016,2.089 0.016,2.401 l -0.79,0 c -0.033,-0.214 -0.049,-0.757 -0.049,-1.431 -0.345,0.97 -1.184,1.628 -2.648,1.628 -1.184,0 -2.697,-0.461 -2.697,-2.977 l 0,-5.444 0.806,0 0,5.247 c 0,1.201 0.378,2.368 2.007,2.368 1.842,0 2.533,-1.036 2.533,-3.388 l 0,-4.227 0.823,0 0,5.823 z"
         id="path185"
         inkscape:connector-curvature="0"
         style="fill:#4d4d4d" /><path
         class="st3"
         d="m 741.555,382.862 c 0,-1.382 -0.016,-1.974 -0.016,-2.237 l 0.806,0 c 0.017,0.263 0.033,0.789 0.033,1.842 0.477,-1.234 1.53,-1.974 2.862,-2.04 l 0,0.888 c -1.711,0.115 -2.862,1.299 -2.862,3.257 l 0,4.277 -0.822,0 0,-5.987 z"
         id="path187"
         inkscape:connector-curvature="0"
         style="fill:#4d4d4d" /><path
         class="st3"
         d="m 752.246,387.287 c 0,0.724 0.066,1.299 0.115,1.563 l -0.789,0 c -0.066,-0.197 -0.115,-0.559 -0.148,-1.267 -0.28,0.609 -1.003,1.464 -2.698,1.464 -1.908,0 -2.73,-1.234 -2.73,-2.467 0,-1.809 1.398,-2.632 3.865,-2.632 0.691,0 1.234,0 1.563,0 l 0,-0.839 c 0,-0.822 -0.247,-1.924 -2.122,-1.924 -1.661,0 -1.908,0.872 -2.089,1.546 l -0.822,0 c 0.099,-0.905 0.658,-2.303 2.928,-2.303 1.875,0 2.928,0.79 2.928,2.599 l 0,4.26 z m -0.806,-2.632 c -0.313,0 -1.069,0 -1.612,0 -1.826,0 -2.961,0.477 -2.961,1.891 0,1.036 0.74,1.744 1.891,1.744 2.352,0 2.681,-1.563 2.681,-3.339 l 0,-0.296 z"
         id="path189"
         inkscape:connector-curvature="0"
         style="fill:#4d4d4d" /><path
         class="st3"
         d="m 754.96,382.698 c 0,-0.724 0,-1.415 -0.016,-2.072 l 0.806,0 c 0.033,0.263 0.049,1.332 0.033,1.563 0.362,-0.839 1.036,-1.76 2.73,-1.76 1.464,0 2.763,0.822 2.763,3.092 l 0,5.329 -0.822,0 0,-5.198 c 0,-1.464 -0.609,-2.418 -2.04,-2.418 -1.957,0 -2.632,1.628 -2.632,3.421 l 0,4.194 -0.823,0 0,-6.151 z"
         id="path191"
         inkscape:connector-curvature="0"
         style="fill:#4d4d4d" /><path
         class="st3"
         d="m 762.691,380.625 1.53,0 0,-2.566 0.822,0 0,2.566 1.957,0 0,0.773 -1.957,0 0,5.346 c 0,0.921 0.197,1.448 0.987,1.448 0.247,0 0.592,-0.017 0.855,-0.099 l 0,0.724 c -0.28,0.115 -0.674,0.148 -1.02,0.148 -1.053,0 -1.645,-0.526 -1.645,-1.842 l 0,-5.724 -1.53,0 0,-0.774 z"
         id="path193"
         inkscape:connector-curvature="0"
         style="fill:#4d4d4d" /></g><g
       id="g195"><path
         class="st0"
         d="m 624.371,402.077 c -1.793,0 -2.665,1.151 -2.632,3.026 0.543,-0.773 1.431,-1.234 2.681,-1.234 2.237,0 3.684,1.48 3.684,3.734 0,2.434 -1.711,3.98 -4.244,3.98 -3.059,0 -4.902,-2.188 -4.902,-5.724 0,-3.684 2.056,-6.069 5.231,-6.069 1.283,0 2.714,0.362 3.668,0.954 l -1.102,2.072 c -0.657,-0.476 -1.496,-0.739 -2.384,-0.739 z m -2.319,5.56 c 0,0.839 0.526,1.579 1.694,1.579 1.02,0 1.645,-0.576 1.645,-1.628 0,-0.97 -0.592,-1.563 -1.612,-1.563 -1.102,0 -1.727,0.674 -1.727,1.612 z"
         id="path197"
         inkscape:connector-curvature="0"
         style="fill:#668aa3" /><path
         class="st0"
         d="m 631.904,410.153 c 0,0.839 -0.592,1.431 -1.415,1.431 -0.823,0 -1.398,-0.592 -1.398,-1.431 0,-0.839 0.576,-1.415 1.398,-1.415 0.822,0 1.415,0.577 1.415,1.415 z"
         id="path199"
         inkscape:connector-curvature="0"
         style="fill:#668aa3" /></g><g
       id="g201"><path
         class="st3"
         d="m 646.636,409.89 c 0,0.724 0.066,1.299 0.115,1.563 l -0.789,0 c -0.066,-0.197 -0.115,-0.559 -0.148,-1.267 -0.28,0.609 -1.003,1.464 -2.697,1.464 -1.908,0 -2.73,-1.234 -2.73,-2.467 0,-1.809 1.398,-2.632 3.865,-2.632 0.691,0 1.234,0 1.563,0 l 0,-0.839 c 0,-0.822 -0.247,-1.924 -2.122,-1.924 -1.661,0 -1.908,0.872 -2.089,1.546 l -0.822,0 c 0.099,-0.905 0.658,-2.303 2.928,-2.303 1.875,0 2.928,0.789 2.928,2.599 l 0,4.26 z m -0.806,-2.631 c -0.312,0 -1.069,0 -1.612,0 -1.826,0 -2.961,0.477 -2.961,1.891 0,1.036 0.74,1.744 1.892,1.744 2.352,0 2.681,-1.563 2.681,-3.339 l 0,-0.296 z"
         id="path203"
         inkscape:connector-curvature="0"
         style="fill:#4d4d4d" /><path
         class="st3"
         d="m 649.268,409.183 c 0.28,1.069 1.036,1.711 2.336,1.711 1.464,0 2.056,-0.674 2.056,-1.595 0,-0.938 -0.395,-1.398 -2.237,-1.842 -2.122,-0.51 -2.648,-1.151 -2.648,-2.237 0,-1.135 0.855,-2.188 2.714,-2.188 1.859,0 2.747,1.135 2.879,2.303 l -0.823,0 c -0.148,-0.691 -0.691,-1.546 -2.089,-1.546 -1.431,0 -1.842,0.707 -1.842,1.365 0,0.757 0.395,1.135 2.023,1.53 2.319,0.559 2.895,1.316 2.895,2.549 0,1.497 -1.217,2.418 -2.944,2.418 -1.875,0 -2.928,-0.987 -3.158,-2.467 l 0.838,0 z"
         id="path205"
         inkscape:connector-curvature="0"
         style="fill:#4d4d4d" /><path
         class="st3"
         d="m 656.571,399.33 0.822,0 0,1.595 -0.822,0 0,-1.595 z m 0,3.899 0.822,0 0,8.224 -0.822,0 0,-8.224 z"
         id="path207"
         inkscape:connector-curvature="0"
         style="fill:#4d4d4d" /><path
         class="st3"
         d="m 665.617,409.89 c 0,0.724 0.066,1.299 0.115,1.563 l -0.789,0 c -0.066,-0.197 -0.115,-0.559 -0.148,-1.267 -0.28,0.609 -1.003,1.464 -2.698,1.464 -1.908,0 -2.73,-1.234 -2.73,-2.467 0,-1.809 1.398,-2.632 3.865,-2.632 0.691,0 1.234,0 1.563,0 l 0,-0.839 c 0,-0.822 -0.247,-1.924 -2.122,-1.924 -1.661,0 -1.908,0.872 -2.089,1.546 l -0.822,0 c 0.099,-0.905 0.658,-2.303 2.928,-2.303 1.875,0 2.928,0.789 2.928,2.599 l 0,4.26 z m -0.806,-2.631 c -0.313,0 -1.069,0 -1.612,0 -1.826,0 -2.961,0.477 -2.961,1.891 0,1.036 0.74,1.744 1.891,1.744 2.352,0 2.681,-1.563 2.681,-3.339 l 0,-0.296 z"
         id="path209"
         inkscape:connector-curvature="0"
         style="fill:#4d4d4d" /><path
         class="st3"
         d="m 668.331,405.301 c 0,-0.724 0,-1.415 -0.016,-2.072 l 0.806,0 c 0.033,0.263 0.049,1.332 0.033,1.563 0.362,-0.839 1.036,-1.76 2.731,-1.76 1.464,0 2.763,0.822 2.763,3.092 l 0,5.329 -0.822,0 0,-5.198 c 0,-1.464 -0.609,-2.418 -2.04,-2.418 -1.957,0 -2.632,1.628 -2.632,3.421 l 0,4.194 -0.822,0 0,-6.151 z"
         id="path211"
         inkscape:connector-curvature="0"
         style="fill:#4d4d4d" /><path
         class="st3"
         d="m 681.62,405.466 c 0,-1.382 -0.016,-1.974 -0.016,-2.237 l 0.806,0 c 0.016,0.263 0.033,0.789 0.033,1.842 0.477,-1.234 1.53,-1.974 2.862,-2.04 l 0,0.888 c -1.711,0.115 -2.862,1.299 -2.862,3.257 l 0,4.277 -0.822,0 0,-5.987 z"
         id="path213"
         inkscape:connector-curvature="0"
         style="fill:#4d4d4d" /><path
         class="st3"
         d="m 686.999,407.439 c 0.016,2.122 1.086,3.438 2.665,3.438 1.546,0 2.073,-0.872 2.369,-1.546 l 0.839,0 c -0.345,1.086 -1.217,2.319 -3.24,2.319 -2.5,0 -3.471,-2.155 -3.471,-4.244 0,-2.352 1.168,-4.375 3.569,-4.375 2.533,0 3.339,2.188 3.339,3.734 0,0.23 0,0.461 -0.017,0.674 l -6.053,0 z m 5.214,-0.723 c -0.016,-1.628 -0.905,-2.911 -2.517,-2.911 -1.694,0 -2.467,1.184 -2.648,2.911 l 5.165,0 z"
         id="path215"
         inkscape:connector-curvature="0"
         style="fill:#4d4d4d" /><path
         class="st3"
         d="m 695.272,409.183 c 0.28,1.069 1.036,1.711 2.336,1.711 1.464,0 2.056,-0.674 2.056,-1.595 0,-0.938 -0.395,-1.398 -2.237,-1.842 -2.122,-0.51 -2.648,-1.151 -2.648,-2.237 0,-1.135 0.855,-2.188 2.714,-2.188 1.859,0 2.747,1.135 2.878,2.303 l -0.823,0 c -0.148,-0.691 -0.691,-1.546 -2.089,-1.546 -1.431,0 -1.842,0.707 -1.842,1.365 0,0.757 0.395,1.135 2.023,1.53 2.319,0.559 2.895,1.316 2.895,2.549 0,1.497 -1.217,2.418 -2.944,2.418 -1.875,0 -2.928,-0.987 -3.158,-2.467 l 0.839,0 z"
         id="path217"
         inkscape:connector-curvature="0"
         style="fill:#4d4d4d" /><path
         class="st3"
         d="m 701.292,403.229 1.53,0 0,-2.566 0.822,0 0,2.566 1.957,0 0,0.773 -1.957,0 0,5.346 c 0,0.921 0.197,1.447 0.987,1.447 0.247,0 0.592,-0.017 0.855,-0.099 l 0,0.724 c -0.28,0.115 -0.674,0.148 -1.02,0.148 -1.053,0 -1.645,-0.526 -1.645,-1.842 l 0,-5.724 -1.53,0 0,-0.773 z"
         id="path219"
         inkscape:connector-curvature="0"
         style="fill:#4d4d4d" /><path
         class="st3"
         d="m 712.92,409.89 c 0,0.724 0.066,1.299 0.115,1.563 l -0.79,0 c -0.066,-0.197 -0.115,-0.559 -0.148,-1.267 -0.28,0.609 -1.003,1.464 -2.698,1.464 -1.908,0 -2.73,-1.234 -2.73,-2.467 0,-1.809 1.398,-2.632 3.865,-2.632 0.691,0 1.234,0 1.563,0 l 0,-0.839 c 0,-0.822 -0.247,-1.924 -2.122,-1.924 -1.661,0 -1.908,0.872 -2.089,1.546 l -0.822,0 c 0.099,-0.905 0.658,-2.303 2.928,-2.303 1.875,0 2.928,0.789 2.928,2.599 l 0,4.26 z m -0.806,-2.631 c -0.312,0 -1.069,0 -1.612,0 -1.826,0 -2.961,0.477 -2.961,1.891 0,1.036 0.74,1.744 1.892,1.744 2.352,0 2.681,-1.563 2.681,-3.339 l 0,-0.296 z"
         id="path221"
         inkscape:connector-curvature="0"
         style="fill:#4d4d4d" /><path
         class="st3"
         d="m 721.687,409.051 c 0,0.806 0.016,2.089 0.016,2.401 l -0.789,0 c -0.033,-0.214 -0.049,-0.757 -0.049,-1.431 -0.345,0.97 -1.184,1.628 -2.648,1.628 -1.184,0 -2.698,-0.461 -2.698,-2.977 l 0,-5.444 0.806,0 0,5.247 c 0,1.201 0.378,2.368 2.007,2.368 1.842,0 2.533,-1.036 2.533,-3.388 l 0,-4.227 0.822,0 0,5.823 z"
         id="path223"
         inkscape:connector-curvature="0"
         style="fill:#4d4d4d" /><path
         class="st3"
         d="m 724.384,405.466 c 0,-1.382 -0.016,-1.974 -0.016,-2.237 l 0.806,0 c 0.016,0.263 0.033,0.789 0.033,1.842 0.477,-1.234 1.53,-1.974 2.862,-2.04 l 0,0.888 c -1.711,0.115 -2.862,1.299 -2.862,3.257 l 0,4.277 -0.823,0 0,-5.987 z"
         id="path225"
         inkscape:connector-curvature="0"
         style="fill:#4d4d4d" /><path
         class="st3"
         d="m 735.076,409.89 c 0,0.724 0.066,1.299 0.115,1.563 l -0.789,0 c -0.066,-0.197 -0.115,-0.559 -0.148,-1.267 -0.28,0.609 -1.003,1.464 -2.698,1.464 -1.908,0 -2.73,-1.234 -2.73,-2.467 0,-1.809 1.398,-2.632 3.865,-2.632 0.691,0 1.234,0 1.563,0 l 0,-0.839 c 0,-0.822 -0.247,-1.924 -2.122,-1.924 -1.661,0 -1.908,0.872 -2.089,1.546 l -0.822,0 c 0.099,-0.905 0.658,-2.303 2.928,-2.303 1.875,0 2.928,0.789 2.928,2.599 l 0,4.26 z m -0.807,-2.631 c -0.313,0 -1.069,0 -1.612,0 -1.826,0 -2.961,0.477 -2.961,1.891 0,1.036 0.74,1.744 1.892,1.744 2.352,0 2.681,-1.563 2.681,-3.339 l 0,-0.296 z"
         id="path227"
         inkscape:connector-curvature="0"
         style="fill:#4d4d4d" /><path
         class="st3"
         d="m 737.789,405.301 c 0,-0.724 0,-1.415 -0.016,-2.072 l 0.806,0 c 0.033,0.263 0.049,1.332 0.033,1.563 0.362,-0.839 1.036,-1.76 2.73,-1.76 1.464,0 2.763,0.822 2.763,3.092 l 0,5.329 -0.822,0 0,-5.198 c 0,-1.464 -0.609,-2.418 -2.04,-2.418 -1.957,0 -2.632,1.628 -2.632,3.421 l 0,4.194 -0.822,0 0,-6.151 z"
         id="path229"
         inkscape:connector-curvature="0"
         style="fill:#4d4d4d" /><path
         class="st3"
         d="m 745.52,403.229 1.53,0 0,-2.566 0.822,0 0,2.566 1.957,0 0,0.773 -1.957,0 0,5.346 c 0,0.921 0.197,1.447 0.987,1.447 0.247,0 0.592,-0.017 0.855,-0.099 l 0,0.724 c -0.28,0.115 -0.674,0.148 -1.02,0.148 -1.053,0 -1.645,-0.526 -1.645,-1.842 l 0,-5.724 -1.53,0 0,-0.773 z"
         id="path231"
         inkscape:connector-curvature="0"
         style="fill:#4d4d4d" /></g><g
       id="g233"><path
         class="st0"
         d="m 628.138,422.509 0,2.089 -4.342,9.458 -3.175,0 4.211,-9.112 -3.224,0 0,1.612 -2.665,0 0,-4.046 9.195,0 z"
         id="path235"
         inkscape:connector-curvature="0"
         style="fill:#668aa3" /><path
         class="st0"
         d="m 631.904,432.757 c 0,0.839 -0.592,1.431 -1.415,1.431 -0.823,0 -1.398,-0.592 -1.398,-1.431 0,-0.839 0.576,-1.415 1.398,-1.415 0.822,0 1.415,0.576 1.415,1.415 z"
         id="path237"
         inkscape:connector-curvature="0"
         style="fill:#668aa3" /></g><g
       id="g239"><path
         class="st3"
         d="m 641.817,432.839 0,4.507 -0.822,0 0,-9.491 c 0,-0.674 0,-1.398 -0.016,-2.023 l 0.806,0 c 0.033,0.313 0.033,0.806 0.033,1.48 0.51,-0.987 1.414,-1.678 2.895,-1.678 1.941,0 3.29,1.628 3.29,4.096 0,2.961 -1.579,4.523 -3.569,4.523 -1.449,0 -2.206,-0.641 -2.617,-1.414 z m 5.313,-3.076 c 0,-1.908 -0.921,-3.339 -2.55,-3.339 -1.99,0 -2.813,1.25 -2.813,3.487 0,2.204 0.641,3.569 2.697,3.569 1.712,0 2.666,-1.447 2.666,-3.717 z"
         id="path241"
         inkscape:connector-curvature="0"
         style="fill:#4d4d4d" /><path
         class="st3"
         d="m 650.123,421.934 0.822,0 0,1.595 -0.822,0 0,-1.595 z m 0,3.898 0.822,0 0,8.224 -0.822,0 0,-8.224 z"
         id="path243"
         inkscape:connector-curvature="0"
         style="fill:#4d4d4d" /><path
         class="st3"
         d="m 652.787,433.299 5.198,-6.694 -4.934,0 0,-0.773 5.888,0 0,0.789 -5.132,6.662 5.313,0 -0.197,0.773 -6.135,0 0,-0.757 z"
         id="path245"
         inkscape:connector-curvature="0"
         style="fill:#4d4d4d" /><path
         class="st3"
         d="m 660.337,433.299 5.198,-6.694 -4.935,0 0,-0.773 5.888,0 0,0.789 -5.132,6.662 5.313,0 -0.197,0.773 -6.135,0 0,-0.757 z"
         id="path247"
         inkscape:connector-curvature="0"
         style="fill:#4d4d4d" /><path
         class="st3"
         d="m 674.005,432.493 c 0,0.724 0.066,1.299 0.115,1.563 l -0.79,0 c -0.066,-0.197 -0.115,-0.559 -0.148,-1.266 -0.28,0.609 -1.003,1.464 -2.698,1.464 -1.908,0 -2.73,-1.234 -2.73,-2.467 0,-1.809 1.398,-2.632 3.865,-2.632 0.691,0 1.234,0 1.563,0 l 0,-0.839 c 0,-0.822 -0.247,-1.924 -2.122,-1.924 -1.661,0 -1.908,0.872 -2.089,1.546 l -0.822,0 c 0.099,-0.905 0.658,-2.303 2.928,-2.303 1.875,0 2.928,0.789 2.928,2.599 l 0,4.259 z m -0.806,-2.631 c -0.312,0 -1.069,0 -1.612,0 -1.826,0 -2.961,0.477 -2.961,1.891 0,1.036 0.74,1.744 1.892,1.744 2.352,0 2.681,-1.563 2.681,-3.339 l 0,-0.296 z"
         id="path249"
         inkscape:connector-curvature="0"
         style="fill:#4d4d4d" /><path
         class="st3"
         d="m 681.817,432.839 0,4.507 -0.822,0 0,-9.491 c 0,-0.674 0,-1.398 -0.017,-2.023 l 0.806,0 c 0.033,0.313 0.033,0.806 0.033,1.48 0.51,-0.987 1.415,-1.678 2.895,-1.678 1.941,0 3.29,1.628 3.29,4.096 0,2.961 -1.579,4.523 -3.569,4.523 -1.448,0 -2.205,-0.641 -2.616,-1.414 z m 5.313,-3.076 c 0,-1.908 -0.921,-3.339 -2.549,-3.339 -1.99,0 -2.813,1.25 -2.813,3.487 0,2.204 0.642,3.569 2.698,3.569 1.71,0 2.664,-1.447 2.664,-3.717 z"
         id="path251"
         inkscape:connector-curvature="0"
         style="fill:#4d4d4d" /><path
         class="st3"
         d="m 690.057,434.056 0,-12.122 0.822,0 0,12.122 -0.822,0 z"
         id="path253"
         inkscape:connector-curvature="0"
         style="fill:#4d4d4d" /><path
         class="st3"
         d="m 699.104,432.493 c 0,0.724 0.066,1.299 0.115,1.563 l -0.789,0 c -0.066,-0.197 -0.115,-0.559 -0.148,-1.266 -0.28,0.609 -1.003,1.464 -2.697,1.464 -1.908,0 -2.73,-1.234 -2.73,-2.467 0,-1.809 1.398,-2.632 3.865,-2.632 0.691,0 1.234,0 1.563,0 l 0,-0.839 c 0,-0.822 -0.247,-1.924 -2.122,-1.924 -1.661,0 -1.908,0.872 -2.089,1.546 l -0.822,0 c 0.099,-0.905 0.658,-2.303 2.928,-2.303 1.875,0 2.928,0.789 2.928,2.599 l 0,4.259 z m -0.806,-2.631 c -0.313,0 -1.069,0 -1.612,0 -1.826,0 -2.961,0.477 -2.961,1.891 0,1.036 0.74,1.744 1.892,1.744 2.352,0 2.681,-1.563 2.681,-3.339 l 0,-0.296 z"
         id="path255"
         inkscape:connector-curvature="0"
         style="fill:#4d4d4d" /><path
         class="st3"
         d="m 707.871,431.638 c -0.395,1.447 -1.349,2.615 -3.191,2.615 -2.056,0 -3.52,-1.53 -3.52,-4.277 0,-2.253 1.201,-4.342 3.619,-4.342 2.089,0 2.944,1.48 3.092,2.632 l -0.839,0 c -0.247,-0.954 -0.872,-1.859 -2.27,-1.859 -1.743,0 -2.73,1.48 -2.73,3.536 0,1.957 0.921,3.536 2.648,3.536 1.201,0 1.924,-0.609 2.352,-1.842 l 0.839,0 z"
         id="path257"
         inkscape:connector-curvature="0"
         style="fill:#4d4d4d" /><path
         class="st3"
         d="m 710.041,430.043 c 0.016,2.122 1.086,3.438 2.665,3.438 1.546,0 2.073,-0.872 2.369,-1.546 l 0.839,0 c -0.345,1.086 -1.217,2.319 -3.24,2.319 -2.5,0 -3.471,-2.155 -3.471,-4.244 0,-2.352 1.168,-4.375 3.569,-4.375 2.533,0 3.339,2.188 3.339,3.734 0,0.23 0,0.461 -0.016,0.674 l -6.054,0 z m 5.214,-0.724 c -0.017,-1.628 -0.905,-2.911 -2.517,-2.911 -1.694,0 -2.467,1.184 -2.648,2.911 l 5.165,0 z"
         id="path259"
         inkscape:connector-curvature="0"
         style="fill:#4d4d4d" /></g><g
       id="g261"><path
         class="st0"
         d="m 627.463,448.106 c 0,0.97 -0.526,1.875 -1.382,2.369 1.201,0.543 1.974,1.645 1.974,2.928 0,2.072 -1.826,3.388 -4.655,3.388 -2.813,0 -4.622,-1.299 -4.622,-3.339 0,-1.299 0.822,-2.434 2.105,-2.977 -0.938,-0.543 -1.53,-1.48 -1.53,-2.451 0,-1.859 1.595,-3.043 4.03,-3.043 2.501,0 4.08,1.217 4.08,3.125 z m -5.872,5.033 c 0,0.938 0.642,1.447 1.809,1.447 1.184,0 1.842,-0.51 1.842,-1.447 0,-0.921 -0.658,-1.431 -1.826,-1.431 -1.183,0 -1.825,0.51 -1.825,1.431 z m 0.28,-4.868 c 0,0.789 0.543,1.234 1.53,1.234 1.003,0 1.546,-0.444 1.546,-1.234 0,-0.822 -0.543,-1.266 -1.546,-1.266 -0.988,-10e-4 -1.53,0.443 -1.53,1.266 z"
         id="path263"
         inkscape:connector-curvature="0"
         style="fill:#668aa3" /><path
         class="st0"
         d="m 631.904,455.36 c 0,0.839 -0.592,1.431 -1.415,1.431 -0.823,0 -1.398,-0.592 -1.398,-1.431 0,-0.839 0.576,-1.415 1.398,-1.415 0.822,0 1.415,0.576 1.415,1.415 z"
         id="path265"
         inkscape:connector-curvature="0"
         style="fill:#668aa3" /></g><g
       id="g267"><path
         class="st3"
         d="m 639.761,448.435 1.53,0 0,-2.566 0.822,0 0,2.566 1.957,0 0,0.773 -1.957,0 0,5.346 c 0,0.921 0.197,1.447 0.987,1.447 0.247,0 0.592,-0.016 0.855,-0.099 l 0,0.724 c -0.28,0.115 -0.674,0.148 -1.02,0.148 -1.053,0 -1.645,-0.526 -1.645,-1.842 l 0,-5.724 -1.53,0 0,-0.773 z"
         id="path269"
         inkscape:connector-curvature="0"
         style="fill:#4d4d4d" /><path
         class="st3"
         d="m 646.521,444.537 0,5.28 c 0.46,-0.855 1.266,-1.579 2.714,-1.579 1.168,0 2.78,0.592 2.78,3.191 l 0,5.231 -0.822,0 0,-5.066 c 0,-1.628 -0.74,-2.549 -2.105,-2.549 -1.628,0 -2.566,1.003 -2.566,3.026 l 0,4.589 -0.823,0 0,-12.122 0.822,0 z"
         id="path271"
         inkscape:connector-curvature="0"
         style="fill:#4d4d4d" /><path
         class="st3"
         d="m 660.255,455.097 c 0,0.724 0.066,1.299 0.115,1.563 l -0.79,0 c -0.066,-0.197 -0.115,-0.559 -0.148,-1.266 -0.28,0.609 -1.003,1.464 -2.698,1.464 -1.908,0 -2.73,-1.234 -2.73,-2.467 0,-1.809 1.398,-2.632 3.865,-2.632 0.691,0 1.234,0 1.563,0 l 0,-0.839 c 0,-0.822 -0.247,-1.924 -2.122,-1.924 -1.661,0 -1.908,0.872 -2.089,1.546 l -0.822,0 c 0.099,-0.905 0.658,-2.303 2.928,-2.303 1.875,0 2.928,0.789 2.928,2.599 l 0,4.259 z m -0.806,-2.632 c -0.312,0 -1.069,0 -1.612,0 -1.826,0 -2.961,0.477 -2.961,1.891 0,1.036 0.74,1.744 1.892,1.744 2.352,0 2.681,-1.563 2.681,-3.339 l 0,-0.296 z"
         id="path273"
         inkscape:connector-curvature="0"
         style="fill:#4d4d4d" /><path
         class="st3"
         d="m 662.969,444.537 0.822,0 0,1.595 -0.822,0 0,-1.595 z m 0,3.898 0.822,0 0,8.224 -0.822,0 0,-8.224 z"
         id="path275"
         inkscape:connector-curvature="0"
         style="fill:#4d4d4d" /><path
         class="st3"
         d="m 670.765,450.672 c 0,-1.382 -0.016,-1.974 -0.016,-2.237 l 0.806,0 c 0.016,0.263 0.033,0.789 0.033,1.842 0.477,-1.234 1.53,-1.974 2.862,-2.04 l 0,0.888 c -1.711,0.115 -2.862,1.299 -2.862,3.257 l 0,4.277 -0.823,0 0,-5.987 z"
         id="path277"
         inkscape:connector-curvature="0"
         style="fill:#4d4d4d" /><path
         class="st3"
         d="m 676.143,452.646 c 0.017,2.122 1.086,3.438 2.665,3.438 1.546,0 2.072,-0.872 2.369,-1.546 l 0.839,0 c -0.345,1.086 -1.217,2.319 -3.24,2.319 -2.5,0 -3.471,-2.155 -3.471,-4.244 0,-2.352 1.168,-4.375 3.569,-4.375 2.533,0 3.339,2.188 3.339,3.734 0,0.23 0,0.461 -0.016,0.674 l -6.054,0 z m 5.214,-0.724 c -0.016,-1.628 -0.905,-2.911 -2.517,-2.911 -1.694,0 -2.467,1.184 -2.648,2.911 l 5.165,0 z"
         id="path279"
         inkscape:connector-curvature="0"
         style="fill:#4d4d4d" /><path
         class="st3"
         d="m 684.416,454.389 c 0.28,1.069 1.036,1.711 2.336,1.711 1.464,0 2.056,-0.674 2.056,-1.595 0,-0.938 -0.395,-1.398 -2.237,-1.842 -2.122,-0.51 -2.648,-1.151 -2.648,-2.237 0,-1.135 0.855,-2.188 2.714,-2.188 1.859,0 2.747,1.135 2.879,2.303 l -0.823,0 c -0.148,-0.691 -0.691,-1.546 -2.089,-1.546 -1.431,0 -1.842,0.707 -1.842,1.365 0,0.757 0.395,1.135 2.023,1.53 2.319,0.559 2.895,1.316 2.895,2.549 0,1.497 -1.217,2.418 -2.944,2.418 -1.875,0 -2.928,-0.987 -3.158,-2.467 l 0.838,0 z"
         id="path281"
         inkscape:connector-curvature="0"
         style="fill:#4d4d4d" /><path
         class="st3"
         d="m 690.436,448.435 1.53,0 0,-2.566 0.822,0 0,2.566 1.957,0 0,0.773 -1.957,0 0,5.346 c 0,0.921 0.197,1.447 0.987,1.447 0.247,0 0.592,-0.016 0.855,-0.099 l 0,0.724 c -0.28,0.115 -0.674,0.148 -1.02,0.148 -1.053,0 -1.645,-0.526 -1.645,-1.842 l 0,-5.724 -1.53,0 0,-0.773 z"
         id="path283"
         inkscape:connector-curvature="0"
         style="fill:#4d4d4d" /><path
         class="st3"
         d="m 702.065,455.097 c 0,0.724 0.066,1.299 0.115,1.563 l -0.789,0 c -0.066,-0.197 -0.115,-0.559 -0.148,-1.266 -0.28,0.609 -1.003,1.464 -2.698,1.464 -1.908,0 -2.73,-1.234 -2.73,-2.467 0,-1.809 1.398,-2.632 3.865,-2.632 0.691,0 1.234,0 1.563,0 l 0,-0.839 c 0,-0.822 -0.247,-1.924 -2.122,-1.924 -1.661,0 -1.908,0.872 -2.089,1.546 l -0.822,0 c 0.099,-0.905 0.658,-2.303 2.928,-2.303 1.875,0 2.928,0.789 2.928,2.599 l 0,4.259 z m -0.806,-2.632 c -0.313,0 -1.069,0 -1.612,0 -1.826,0 -2.961,0.477 -2.961,1.891 0,1.036 0.74,1.744 1.892,1.744 2.352,0 2.681,-1.563 2.681,-3.339 l 0,-0.296 z"
         id="path285"
         inkscape:connector-curvature="0"
         style="fill:#4d4d4d" /><path
         class="st3"
         d="m 710.831,454.258 c 0,0.806 0.017,2.089 0.017,2.401 l -0.79,0 c -0.033,-0.214 -0.049,-0.757 -0.049,-1.431 -0.345,0.971 -1.184,1.628 -2.648,1.628 -1.184,0 -2.698,-0.461 -2.698,-2.977 l 0,-5.444 0.806,0 0,5.247 c 0,1.201 0.378,2.368 2.007,2.368 1.842,0 2.533,-1.036 2.533,-3.388 l 0,-4.227 0.822,0 0,5.823 z"
         id="path287"
         inkscape:connector-curvature="0"
         style="fill:#4d4d4d" /><path
         class="st3"
         d="m 713.529,450.672 c 0,-1.382 -0.016,-1.974 -0.016,-2.237 l 0.806,0 c 0.016,0.263 0.033,0.789 0.033,1.842 0.477,-1.234 1.53,-1.974 2.862,-2.04 l 0,0.888 c -1.711,0.115 -2.862,1.299 -2.862,3.257 l 0,4.277 -0.822,0 0,-5.987 z"
         id="path289"
         inkscape:connector-curvature="0"
         style="fill:#4d4d4d" /><path
         class="st3"
         d="m 724.22,455.097 c 0,0.724 0.066,1.299 0.115,1.563 l -0.789,0 c -0.066,-0.197 -0.115,-0.559 -0.148,-1.266 -0.28,0.609 -1.003,1.464 -2.698,1.464 -1.908,0 -2.73,-1.234 -2.73,-2.467 0,-1.809 1.398,-2.632 3.865,-2.632 0.691,0 1.234,0 1.563,0 l 0,-0.839 c 0,-0.822 -0.247,-1.924 -2.122,-1.924 -1.661,0 -1.908,0.872 -2.089,1.546 l -0.822,0 c 0.099,-0.905 0.658,-2.303 2.928,-2.303 1.875,0 2.928,0.789 2.928,2.599 l 0,4.259 z m -0.806,-2.632 c -0.313,0 -1.069,0 -1.612,0 -1.826,0 -2.961,0.477 -2.961,1.891 0,1.036 0.74,1.744 1.892,1.744 2.352,0 2.681,-1.563 2.681,-3.339 l 0,-0.296 z"
         id="path291"
         inkscape:connector-curvature="0"
         style="fill:#4d4d4d" /><path
         class="st3"
         d="m 726.933,450.508 c 0,-0.724 0,-1.415 -0.016,-2.073 l 0.806,0 c 0.033,0.263 0.049,1.332 0.033,1.563 0.362,-0.839 1.036,-1.76 2.731,-1.76 1.464,0 2.763,0.822 2.763,3.092 l 0,5.329 -0.822,0 0,-5.198 c 0,-1.464 -0.609,-2.418 -2.04,-2.418 -1.957,0 -2.632,1.628 -2.632,3.421 l 0,4.194 -0.822,0 0,-6.15 z"
         id="path293"
         inkscape:connector-curvature="0"
         style="fill:#4d4d4d" /><path
         class="st3"
         d="m 734.664,448.435 1.53,0 0,-2.566 0.822,0 0,2.566 1.957,0 0,0.773 -1.957,0 0,5.346 c 0,0.921 0.197,1.447 0.987,1.447 0.247,0 0.592,-0.016 0.855,-0.099 l 0,0.724 c -0.28,0.115 -0.674,0.148 -1.02,0.148 -1.053,0 -1.645,-0.526 -1.645,-1.842 l 0,-5.724 -1.53,0 0,-0.773 z"
         id="path295"
         inkscape:connector-curvature="0"
         style="fill:#4d4d4d" /></g><g
       id="g297"><path
         class="st0"
         d="m 622.463,477.108 c 1.793,0 2.665,-1.151 2.632,-3.043 -0.543,0.773 -1.431,1.25 -2.681,1.25 -2.237,0 -3.651,-1.497 -3.651,-3.75 0,-2.434 1.678,-3.964 4.227,-3.964 3.043,0 4.885,2.171 4.885,5.708 0,3.684 -2.04,6.086 -5.231,6.086 -1.267,0 -2.698,-0.378 -3.668,-0.954 l 1.118,-2.072 c 0.658,0.476 1.497,0.739 2.369,0.739 z m -1.004,-5.527 c 0,0.987 0.576,1.579 1.596,1.579 1.118,0 1.727,-0.691 1.711,-1.628 0.016,-0.839 -0.51,-1.579 -1.661,-1.579 -1.02,0 -1.646,0.592 -1.646,1.628 z"
         id="path299"
         inkscape:connector-curvature="0"
         style="fill:#668aa3" /><path
         class="st0"
         d="m 631.904,477.963 c 0,0.839 -0.592,1.431 -1.415,1.431 -0.823,0 -1.398,-0.592 -1.398,-1.431 0,-0.839 0.576,-1.415 1.398,-1.415 0.822,0 1.415,0.576 1.415,1.415 z"
         id="path301"
         inkscape:connector-curvature="0"
         style="fill:#668aa3" /></g><g
       id="g303"><path
         class="st3"
         d="m 647.048,476.845 c -0.395,1.448 -1.349,2.615 -3.191,2.615 -2.056,0 -3.52,-1.53 -3.52,-4.277 0,-2.253 1.201,-4.342 3.619,-4.342 2.089,0 2.944,1.48 3.092,2.632 l -0.839,0 c -0.247,-0.954 -0.872,-1.859 -2.27,-1.859 -1.744,0 -2.73,1.48 -2.73,3.536 0,1.957 0.921,3.536 2.648,3.536 1.201,0 1.924,-0.609 2.352,-1.842 l 0.839,0 z"
         id="path305"
         inkscape:connector-curvature="0"
         style="fill:#4d4d4d" /><path
         class="st3"
         d="m 654.663,477.7 c 0,0.724 0.066,1.299 0.115,1.563 l -0.789,0 c -0.066,-0.197 -0.115,-0.559 -0.148,-1.266 -0.28,0.609 -1.003,1.464 -2.698,1.464 -1.908,0 -2.73,-1.234 -2.73,-2.467 0,-1.809 1.398,-2.632 3.865,-2.632 0.691,0 1.234,0 1.563,0 l 0,-0.839 c 0,-0.822 -0.247,-1.924 -2.122,-1.924 -1.661,0 -1.908,0.872 -2.089,1.546 l -0.822,0 c 0.099,-0.905 0.658,-2.303 2.928,-2.303 1.875,0 2.928,0.789 2.928,2.599 l 0,4.259 z m -0.806,-2.632 c -0.313,0 -1.069,0 -1.612,0 -1.826,0 -2.961,0.477 -2.961,1.892 0,1.036 0.74,1.744 1.891,1.744 2.352,0 2.681,-1.563 2.681,-3.339 l 0,-0.297 z"
         id="path307"
         inkscape:connector-curvature="0"
         style="fill:#4d4d4d" /><path
         class="st3"
         d="m 657.508,479.262 0,-7.451 -1.414,0 0,-0.773 1.414,0 0,-1.168 c 0,-1.382 0.395,-2.895 2.237,-2.895 0.247,0 0.609,0.049 0.806,0.115 l 0,0.789 c -0.247,-0.066 -0.641,-0.099 -0.888,-0.099 -0.97,0 -1.332,0.691 -1.332,2.122 l 0,1.135 1.793,0 0,0.773 -1.793,0 0,7.451 -0.823,0 z"
         id="path309"
         inkscape:connector-curvature="0"
         style="fill:#4d4d4d" /><path
         class="st3"
         d="m 661.604,475.249 c 0.016,2.122 1.086,3.438 2.665,3.438 1.546,0 2.073,-0.872 2.369,-1.546 l 0.839,0 c -0.345,1.086 -1.217,2.319 -3.24,2.319 -2.5,0 -3.471,-2.155 -3.471,-4.244 0,-2.352 1.168,-4.375 3.569,-4.375 2.533,0 3.339,2.188 3.339,3.734 0,0.23 0,0.461 -0.017,0.674 l -6.053,0 z m 5.214,-0.724 c -0.016,-1.628 -0.905,-2.911 -2.517,-2.911 -1.694,0 -2.467,1.184 -2.648,2.911 l 5.165,0 z"
         id="path311"
         inkscape:connector-curvature="0"
         style="fill:#4d4d4d" /></g><g
       id="g313"><path
         class="st0"
         d="m 614.961,490.335 0,11.53 -3.01,0 0,-9.063 -2.22,0 0,-2.467 5.23,0 z"
         id="path315"
         inkscape:connector-curvature="0"
         style="fill:#668aa3" /><path
         class="st0"
         d="m 627.954,496.092 c 0,3.767 -1.612,5.856 -4.507,5.856 -2.928,0 -4.523,-2.089 -4.523,-5.856 0,-3.767 1.596,-5.839 4.523,-5.839 2.895,0 4.507,2.073 4.507,5.839 z m -6.152,0 c 0,2.632 0.477,3.734 1.645,3.734 1.151,0 1.628,-1.102 1.628,-3.734 0,-2.648 -0.477,-3.734 -1.628,-3.734 -1.167,10e-4 -1.645,1.086 -1.645,3.734 z"
         id="path317"
         inkscape:connector-curvature="0"
         style="fill:#668aa3" /><path
         class="st0"
         d="m 631.934,500.566 c 0,0.839 -0.592,1.431 -1.415,1.431 -0.822,0 -1.398,-0.592 -1.398,-1.431 0,-0.839 0.576,-1.415 1.398,-1.415 0.823,10e-4 1.415,0.576 1.415,1.415 z"
         id="path319"
         inkscape:connector-curvature="0"
         style="fill:#668aa3" /></g><g
       id="g321"><path
         class="st3"
         d="m 647.344,489.743 0,9.754 c 0,0.79 0,1.546 0.016,2.369 l -0.789,0 c -0.033,-0.197 -0.049,-0.97 -0.049,-1.382 -0.411,1.003 -1.332,1.579 -2.763,1.579 -2.138,0 -3.421,-1.743 -3.421,-4.211 0,-2.533 1.398,-4.408 3.635,-4.408 1.645,0 2.303,0.707 2.55,1.234 l 0,-4.935 0.821,0 z m -6.136,8.076 c 0,2.253 1.168,3.471 2.582,3.471 2.171,0 2.763,-1.497 2.763,-3.734 0,-2.122 -0.51,-3.339 -2.615,-3.339 -1.627,0 -2.73,1.3 -2.73,3.602 z"
         id="path323"
         inkscape:connector-curvature="0"
         style="fill:#4d4d4d" /><path
         class="st3"
         d="m 650.041,489.743 0.823,0 0,1.595 -0.823,0 0,-1.595 z m 0,3.899 0.823,0 0,8.224 -0.823,0 0,-8.224 z"
         id="path325"
         inkscape:connector-curvature="0"
         style="fill:#4d4d4d" /><path
         class="st3"
         d="m 653.56,495.714 c 0,-0.724 0,-1.415 -0.016,-2.072 l 0.806,0 c 0.033,0.263 0.049,1.332 0.033,1.563 0.362,-0.839 1.036,-1.76 2.73,-1.76 1.464,0 2.763,0.822 2.763,3.092 l 0,5.329 -0.822,0 0,-5.198 c 0,-1.464 -0.609,-2.418 -2.04,-2.418 -1.957,0 -2.632,1.628 -2.632,3.421 l 0,4.194 -0.822,0 0,-6.151 z"
         id="path327"
         inkscape:connector-curvature="0"
         style="fill:#4d4d4d" /><path
         class="st3"
         d="m 662.755,497.852 c 0.016,2.122 1.086,3.438 2.665,3.438 1.546,0 2.072,-0.872 2.369,-1.546 l 0.839,0 c -0.345,1.086 -1.217,2.319 -3.24,2.319 -2.5,0 -3.471,-2.155 -3.471,-4.244 0,-2.352 1.168,-4.375 3.569,-4.375 2.533,0 3.339,2.188 3.339,3.734 0,0.23 0,0.461 -0.016,0.674 l -6.054,0 z m 5.214,-0.723 c -0.016,-1.628 -0.905,-2.911 -2.517,-2.911 -1.694,0 -2.467,1.184 -2.648,2.911 l 5.165,0 z"
         id="path329"
         inkscape:connector-curvature="0"
         style="fill:#4d4d4d" /><path
         class="st3"
         d="m 670.831,495.879 c 0,-1.382 -0.016,-1.974 -0.016,-2.237 l 0.806,0 c 0.016,0.263 0.033,0.789 0.033,1.842 0.477,-1.234 1.53,-1.974 2.862,-2.04 l 0,0.888 c -1.711,0.115 -2.862,1.299 -2.862,3.257 l 0,4.277 -0.822,0 0,-5.987 z"
         id="path331"
         inkscape:connector-curvature="0"
         style="fill:#4d4d4d" /></g><g
       id="g333"><path
         class="st0"
         d="m 624.387,312.849 c 0,-0.625 -0.477,-0.987 -1.316,-0.987 -0.937,0 -2.122,0.559 -3.191,1.464 l -1.135,-2.22 c 1.48,-1.086 3.092,-1.744 4.77,-1.744 2.336,0 4.03,1.217 4.03,3.043 0,1.25 -0.954,2.549 -2.237,3.849 l -2.369,2.369 4.935,0 0,2.418 -8.783,0 -0.016,-1.99 4.194,-4.309 c 0.641,-0.66 1.118,-1.4 1.118,-1.893 z"
         id="path335"
         inkscape:connector-curvature="0"
         style="fill:#668aa3" /><path
         class="st0"
         d="m 631.904,319.741 c 0,0.839 -0.592,1.431 -1.415,1.431 -0.823,0 -1.398,-0.592 -1.398,-1.431 0,-0.839 0.576,-1.415 1.398,-1.415 0.822,0 1.415,0.576 1.415,1.415 z"
         id="path337"
         inkscape:connector-curvature="0"
         style="fill:#668aa3" /></g><g
       id="g339"><path
         class="st3"
         d="m 640.995,318.77 c 0.28,1.069 1.036,1.711 2.336,1.711 1.464,0 2.056,-0.674 2.056,-1.595 0,-0.938 -0.395,-1.398 -2.237,-1.842 -2.122,-0.51 -2.648,-1.151 -2.648,-2.237 0,-1.135 0.855,-2.188 2.714,-2.188 1.859,0 2.747,1.135 2.878,2.303 l -0.823,0 c -0.148,-0.691 -0.691,-1.546 -2.089,-1.546 -1.431,0 -1.842,0.707 -1.842,1.365 0,0.757 0.395,1.135 2.023,1.53 2.319,0.559 2.895,1.316 2.895,2.549 0,1.497 -1.217,2.418 -2.944,2.418 -1.875,0 -2.928,-0.987 -3.158,-2.467 l 0.839,0 z"
         id="path341"
         inkscape:connector-curvature="0"
         style="fill:#4d4d4d" /><path
         class="st3"
         d="m 648.248,312.816 c 1.217,4.244 1.925,6.678 2.056,7.402 l 0.017,0 c 0.132,-0.658 0.954,-3.24 2.237,-7.402 l 0.888,0 c 1.53,5.083 1.99,6.546 2.138,7.188 l 0.017,0 c 0.23,-0.905 0.609,-2.138 2.122,-7.188 l 0.872,0 -2.599,8.224 -0.905,0 c -0.888,-2.911 -1.957,-6.481 -2.122,-7.237 l -0.016,0 c -0.164,0.806 -1.102,3.75 -2.171,7.237 l -0.987,0 -2.418,-8.224 0.871,0 z"
         id="path343"
         inkscape:connector-curvature="0"
         style="fill:#4d4d4d" /><path
         class="st3"
         d="m 660.337,308.918 0.822,0 0,1.595 -0.822,0 0,-1.595 z m 0,3.898 0.822,0 0,8.224 -0.822,0 0,-8.224 z"
         id="path345"
         inkscape:connector-curvature="0"
         style="fill:#4d4d4d" /><path
         class="st3"
         d="m 663.775,318.77 c 0.28,1.069 1.036,1.711 2.336,1.711 1.464,0 2.056,-0.674 2.056,-1.595 0,-0.938 -0.395,-1.398 -2.237,-1.842 -2.122,-0.51 -2.648,-1.151 -2.648,-2.237 0,-1.135 0.855,-2.188 2.714,-2.188 1.859,0 2.747,1.135 2.878,2.303 l -0.822,0 c -0.148,-0.691 -0.691,-1.546 -2.089,-1.546 -1.431,0 -1.842,0.707 -1.842,1.365 0,0.757 0.395,1.135 2.023,1.53 2.319,0.559 2.895,1.316 2.895,2.549 0,1.497 -1.217,2.418 -2.944,2.418 -1.875,0 -2.928,-0.987 -3.158,-2.467 l 0.838,0 z"
         id="path347"
         inkscape:connector-curvature="0"
         style="fill:#4d4d4d" /><path
         class="st3"
         d="m 671.274,318.77 c 0.28,1.069 1.036,1.711 2.336,1.711 1.464,0 2.056,-0.674 2.056,-1.595 0,-0.938 -0.395,-1.398 -2.237,-1.842 -2.122,-0.51 -2.648,-1.151 -2.648,-2.237 0,-1.135 0.855,-2.188 2.714,-2.188 1.859,0 2.747,1.135 2.878,2.303 l -0.822,0 c -0.148,-0.691 -0.691,-1.546 -2.089,-1.546 -1.431,0 -1.842,0.707 -1.842,1.365 0,0.757 0.395,1.135 2.023,1.53 2.319,0.559 2.895,1.316 2.895,2.549 0,1.497 -1.217,2.418 -2.944,2.418 -1.875,0 -2.928,-0.987 -3.158,-2.467 l 0.838,0 z"
         id="path349"
         inkscape:connector-curvature="0"
         style="fill:#4d4d4d" /><path
         class="st3"
         d="m 682.853,315.053 c 0,-1.382 -0.016,-1.974 -0.016,-2.237 l 0.806,0 c 0.016,0.263 0.033,0.79 0.033,1.842 0.477,-1.234 1.53,-1.974 2.862,-2.04 l 0,0.888 c -1.711,0.115 -2.862,1.299 -2.862,3.257 l 0,4.277 -0.822,0 0,-5.987 z"
         id="path351"
         inkscape:connector-curvature="0"
         style="fill:#4d4d4d" /><path
         class="st3"
         d="m 688.232,317.027 c 0.017,2.122 1.086,3.438 2.665,3.438 1.546,0 2.072,-0.872 2.369,-1.546 l 0.839,0 c -0.345,1.086 -1.217,2.319 -3.24,2.319 -2.5,0 -3.471,-2.155 -3.471,-4.244 0,-2.352 1.168,-4.375 3.569,-4.375 2.533,0 3.339,2.188 3.339,3.734 0,0.23 0,0.461 -0.016,0.674 l -6.054,0 z m 5.214,-0.724 c -0.016,-1.628 -0.905,-2.911 -2.517,-2.911 -1.694,0 -2.467,1.184 -2.648,2.911 l 5.165,0 z"
         id="path353"
         inkscape:connector-curvature="0"
         style="fill:#4d4d4d" /><path
         class="st3"
         d="m 696.505,318.77 c 0.28,1.069 1.036,1.711 2.336,1.711 1.464,0 2.056,-0.674 2.056,-1.595 0,-0.938 -0.395,-1.398 -2.237,-1.842 -2.122,-0.51 -2.648,-1.151 -2.648,-2.237 0,-1.135 0.855,-2.188 2.714,-2.188 1.859,0 2.747,1.135 2.879,2.303 l -0.823,0 c -0.148,-0.691 -0.691,-1.546 -2.089,-1.546 -1.431,0 -1.842,0.707 -1.842,1.365 0,0.757 0.395,1.135 2.023,1.53 2.319,0.559 2.895,1.316 2.895,2.549 0,1.497 -1.217,2.418 -2.944,2.418 -1.875,0 -2.928,-0.987 -3.158,-2.467 l 0.838,0 z"
         id="path355"
         inkscape:connector-curvature="0"
         style="fill:#4d4d4d" /><path
         class="st3"
         d="m 702.525,312.816 1.53,0 0,-2.566 0.822,0 0,2.566 1.957,0 0,0.773 -1.957,0 0,5.346 c 0,0.921 0.197,1.447 0.987,1.447 0.247,0 0.592,-0.016 0.855,-0.099 l 0,0.724 c -0.28,0.115 -0.674,0.148 -1.02,0.148 -1.053,0 -1.645,-0.526 -1.645,-1.842 l 0,-5.724 -1.53,0 0,-0.773 z"
         id="path357"
         inkscape:connector-curvature="0"
         style="fill:#4d4d4d" /><path
         class="st3"
         d="m 714.153,319.477 c 0,0.724 0.066,1.299 0.115,1.563 l -0.789,0 c -0.066,-0.197 -0.115,-0.559 -0.148,-1.266 -0.28,0.609 -1.003,1.464 -2.698,1.464 -1.908,0 -2.73,-1.234 -2.73,-2.467 0,-1.809 1.398,-2.632 3.865,-2.632 0.691,0 1.234,0 1.563,0 l 0,-0.839 c 0,-0.822 -0.247,-1.924 -2.122,-1.924 -1.661,0 -1.908,0.872 -2.089,1.546 l -0.822,0 c 0.099,-0.905 0.658,-2.303 2.928,-2.303 1.875,0 2.928,0.789 2.928,2.599 l 0,4.259 z m -0.806,-2.631 c -0.313,0 -1.069,0 -1.612,0 -1.826,0 -2.961,0.477 -2.961,1.892 0,1.036 0.74,1.744 1.892,1.744 2.352,0 2.681,-1.563 2.681,-3.339 l 0,-0.297 z"
         id="path359"
         inkscape:connector-curvature="0"
         style="fill:#4d4d4d" /><path
         class="st3"
         d="m 722.92,318.639 c 0,0.806 0.016,2.089 0.016,2.401 l -0.79,0 c -0.033,-0.214 -0.049,-0.757 -0.049,-1.431 -0.345,0.97 -1.184,1.628 -2.648,1.628 -1.184,0 -2.697,-0.461 -2.697,-2.977 l 0,-5.444 0.806,0 0,5.247 c 0,1.201 0.378,2.368 2.007,2.368 1.842,0 2.533,-1.036 2.533,-3.388 l 0,-4.227 0.823,0 0,5.823 z"
         id="path361"
         inkscape:connector-curvature="0"
         style="fill:#4d4d4d" /><path
         class="st3"
         d="m 725.617,315.053 c 0,-1.382 -0.016,-1.974 -0.016,-2.237 l 0.806,0 c 0.017,0.263 0.033,0.79 0.033,1.842 0.477,-1.234 1.53,-1.974 2.862,-2.04 l 0,0.888 c -1.711,0.115 -2.862,1.299 -2.862,3.257 l 0,4.277 -0.823,0 0,-5.987 z"
         id="path363"
         inkscape:connector-curvature="0"
         style="fill:#4d4d4d" /><path
         class="st3"
         d="m 736.309,319.477 c 0,0.724 0.066,1.299 0.115,1.563 l -0.789,0 c -0.066,-0.197 -0.115,-0.559 -0.148,-1.266 -0.28,0.609 -1.003,1.464 -2.697,1.464 -1.908,0 -2.73,-1.234 -2.73,-2.467 0,-1.809 1.398,-2.632 3.865,-2.632 0.691,0 1.234,0 1.563,0 l 0,-0.839 c 0,-0.822 -0.247,-1.924 -2.122,-1.924 -1.661,0 -1.908,0.872 -2.089,1.546 l -0.822,0 c 0.099,-0.905 0.658,-2.303 2.928,-2.303 1.875,0 2.928,0.789 2.928,2.599 l 0,4.259 z m -0.806,-2.631 c -0.313,0 -1.069,0 -1.612,0 -1.826,0 -2.961,0.477 -2.961,1.892 0,1.036 0.74,1.744 1.891,1.744 2.352,0 2.681,-1.563 2.681,-3.339 l 0,-0.297 z"
         id="path365"
         inkscape:connector-curvature="0"
         style="fill:#4d4d4d" /><path
         class="st3"
         d="m 739.022,314.888 c 0,-0.724 0,-1.415 -0.016,-2.073 l 0.806,0 c 0.033,0.263 0.049,1.332 0.033,1.563 0.362,-0.839 1.036,-1.76 2.73,-1.76 1.464,0 2.763,0.822 2.763,3.092 l 0,5.329 -0.822,0 0,-5.198 c 0,-1.464 -0.609,-2.418 -2.04,-2.418 -1.957,0 -2.632,1.628 -2.632,3.421 l 0,4.194 -0.823,0 0,-6.15 z"
         id="path367"
         inkscape:connector-curvature="0"
         style="fill:#4d4d4d" /><path
         class="st3"
         d="m 746.753,312.816 1.53,0 0,-2.566 0.822,0 0,2.566 1.957,0 0,0.773 -1.957,0 0,5.346 c 0,0.921 0.197,1.447 0.987,1.447 0.247,0 0.592,-0.016 0.855,-0.099 l 0,0.724 c -0.28,0.115 -0.674,0.148 -1.02,0.148 -1.053,0 -1.645,-0.526 -1.645,-1.842 l 0,-5.724 -1.53,0 0,-0.773 z"
         id="path369"
         inkscape:connector-curvature="0"
         style="fill:#4d4d4d" /></g><g
       id="g371"><polygon
         class="st1"
         points="633.647,273.384 633.647,274.245 603.617,274.245 603.617,515.561 633.647,515.561 633.647,516.422 602.756,516.422 602.756,273.384 "
         id="polygon373"
         style="fill:#666666" /></g></g><g
     id="g375"
     transform="translate(-597.61,-252.076)" /><g
     id="g377"
     transform="translate(-597.61,-252.076)" /><g
     id="g379"
     transform="translate(-597.61,-252.076)" /><g
     id="g381"
     transform="translate(-597.61,-252.076)" /><g
     id="g383"
     transform="translate(-597.61,-252.076)" /><g
     id="g385"
     transform="translate(-597.61,-252.076)" /><g
     id="g387"
     transform="translate(-597.61,-252.076)" /><g
     id="g389"
     transform="translate(-597.61,-252.076)" /><g
     id="g391"
     transform="translate(-597.61,-252.076)" /><g
     id="g393"
     transform="translate(-597.61,-252.076)" /><g
     id="g395"
     transform="translate(-597.61,-252.076)" /><g
     id="g397"
     transform="translate(-597.61,-252.076)" /><g
     id="g399"
     transform="translate(-597.61,-252.076)" /><g
     id="g401"
     transform="translate(-597.61,-252.076)" /><g
     id="g403"
     transform="translate(-597.61,-252.076)" /></svg>