<?xml version="1.0" encoding="utf-8"?>
<!-- Generator: Adobe Illustrator 22.1.0, SVG Export Plug-In . SVG Version: 6.00 Build 0)  -->
<svg version="1.1" id="Layer_1" xmlns="http://www.w3.org/2000/svg" xmlns:xlink="http://www.w3.org/1999/xlink" x="0px" y="0px"
	 viewBox="0 0 576 288" style="enable-background:new 0 0 576 288;" xml:space="preserve">
<style type="text/css">
	.st0{fill:#934A94;}
	.st1{fill:#FFFFFF;}
	.st2{font-family:'Montserrat-Regular';}
	.st3{font-size:12px;}
	.st4{font-family:'EngraversMT';}
</style>
<g>
	<g id="patch_3">
		<g>
			<path class="st0" d="M72,36.7h425.1v17.4H72V36.7z"/>
		</g>
	</g>
	<g id="patch_4">
		<g>
			<path class="st0" d="M72,58.5h406.6v17.4H72V58.5z"/>
		</g>
	</g>
	<g id="patch_5">
		<g>
			<path class="st0" d="M72,80.2h340.5v17.4H72V80.2z"/>
		</g>
	</g>
	<g id="patch_6">
		<g>
			<path class="st0" d="M72,102h334.3v17.4H72V102z"/>
		</g>
	</g>
	<g id="patch_7">
		<g>
			<path class="st0" d="M72,123.7h322v17.4H72V123.7z"/>
		</g>
	</g>
	<g id="patch_8">
		<g>
			<path class="st0" d="M72,145.5h305.4v17.4H72V145.5z"/>
		</g>
	</g>
	<g id="patch_9">
		<g>
			<path class="st0" d="M72,167.2h249.7v17.4H72V167.2z"/>
		</g>
	</g>
	<g id="patch_10">
		<g>
			<path class="st0" d="M72,188.9h187.8v17.4H72V188.9z"/>
		</g>
	</g>
	<g id="patch_11">
		<g>
			<path class="st0" d="M72,210.7h167.2v17.4H72V210.7z"/>
		</g>
	</g>
	<g id="patch_12">
		<g>
			<path class="st0" d="M72,232.4h163v17.4H72V232.4z"/>
		</g>
	</g>
</g>
<text transform="matrix(1 0 0 1 72.4167 49.2313)" class="st1 st2 st3">Hotel</text>
<text transform="matrix(1 0 0 1 458.5833 49.2313)" class="st1 st4 st3">206</text>
<text transform="matrix(1 0 0 1 72.4167 71.1172)" class="st1 st2 st3">Italian Restaurant</text>
<text transform="matrix(1 0 0 1 440.25 71.1173)" class="st1 st4 st3">197</text>
<text transform="matrix(1 0 0 1 72.4167 93.0032)" class="st1 st2 st3">Swiss Restaurant</text>
<text transform="matrix(1 0 0 1 373.9167 93.0032)" class="st1 st4 st3">165</text>
<text transform="matrix(1 0 0 1 72.4167 114.8892)" class="st1 st2 st3">Bar</text>
<text transform="matrix(1 0 0 1 367.9167 114.8892)" class="st1 st4 st3">162</text>
<text transform="matrix(1 0 0 1 72.4167 136.7751)" class="st1 st2 st3">Supermarket</text>
<text transform="matrix(1 0 0 1 355.4167 136.7751)" class="st1 st4 st3">156</text>
<text transform="matrix(1 0 0 1 72.4167 158.6611)" class="st1 st2 st3">Cafe</text>
<text transform="matrix(1 0 0 1 338.5835 158.6611)" class="st1 st4 st3">148</text>
<text transform="matrix(1 0 0 1 72.4167 180.5471)" class="st1 st2 st3">Restaurant</text>
<text transform="matrix(1 0 0 1 284.0833 180.5471)" class="st1 st4 st3">121</text>
<text transform="matrix(1 0 0 1 72.4167 202.433)" class="st1 st2 st3">Tram Station</text>
<text transform="matrix(1 0 0 1 230.0833 202.433)" class="st1 st4 st3">91</text>
<text transform="matrix(1 0 0 1 72.4167 224.319)" class="st1 st2 st3">Bakery</text>
<text transform="matrix(1 0 0 1 209.0833 224.319)" class="st1 st4 st3">81</text>
<text transform="matrix(1 0 0 1 72.4167 246.2049)" class="st1 st2 st3">Park</text>
<text transform="matrix(1 0 0 1 204.9167 246.2049)" class="st1 st4 st3">79</text>
</svg>
